<!-- Generator: Adobe Illustrator 19.1.0, SVG Export Plug-In  -->
<svg version="1.1"
	 xmlns="http://www.w3.org/2000/svg" xmlns:xlink="http://www.w3.org/1999/xlink" xmlns:a="http://ns.adobe.com/AdobeSVGViewerExtensions/3.0/"
	 x="0px" y="0px" width="24px" height="24px" viewBox="0 0 24 24" enable-background="new 0 0 24 24" xml:space="preserve">
<defs>
	<symbol  id="tag" viewBox="-24 -24 48 48">
		<g>
			<g>
				<path fill="#33333A" d="M0,20c11,0,20-9,20-20S11-20,0-20s-20,9-20,20S-11,20,0,20 M0,24c-13.3,0-24-10.7-24-24s10.7-24,24-24
					S24-13.3,24,0S13.3,24,0,24L0,24z"/>
			</g>
		</g>
		<g>
			<path fill="#33333A" d="M11,2.5l-0.9,6.1C10,9.3,9.3,10,8.6,10.1L2.5,11c-0.7,0.1-1.7-0.2-2.2-0.7l-11-11c-0.5-0.5-0.5-1.3,0-1.8
				l8.1-8.1c0.5-0.5,1.3-0.5,1.8,0l11,11C10.8,0.9,11.1,1.8,11,2.5z M6.6,2.2C5.4,1,3.5,1,2.2,2.2C1,3.5,1,5.4,2.2,6.6
				c1.2,1.2,3.2,1.2,4.4,0C7.8,5.4,7.8,3.5,6.6,2.2z"/>
		</g>
	</symbol>
</defs>
<use xlink:href="#tag"  width="48" height="48" x="-24" y="-24" transform="matrix(0.5 0 0 -0.5 12 12)" overflow="visible"/>
</svg>
