<!-- Generator: Adobe Illustrator 19.1.0, SVG Export Plug-In  -->
<svg version="1.1"
	 xmlns="http://www.w3.org/2000/svg" xmlns:xlink="http://www.w3.org/1999/xlink" xmlns:a="http://ns.adobe.com/AdobeSVGViewerExtensions/3.0/"
	 x="0px" y="0px" width="65.3px" height="26.7px" viewBox="0 0 65.3 26.7" enable-background="new 0 0 65.3 26.7"
	 xml:space="preserve">
<defs>
</defs>
<g>
	<polygon fill="#FFFFFF" points="5.4,16.2 7.1,4.8 10.6,4.8 10.6,20.9 8.3,20.9 8.3,9.4 6.5,20.9 4.1,20.9 2.2,9.5 2.2,20.9 0,20.9 
		0,4.8 3.6,4.8 	"/>
	<path fill="#FFFFFF" d="M15,13.7v4.9h1.4c0.8,0,1.3-0.4,1.3-1.6v-1.4c0-1.5-0.5-1.9-1.6-1.9H15z M15,7.1v4.2h1
		c0.9,0,1.5-0.4,1.5-1.7V8.8c0-1.1-0.4-1.7-1.3-1.7H15z M20,8.5v0.6c0,1.7-0.5,2.7-1.6,3.2c1.4,0.5,1.9,1.7,1.9,3.4v1.3
		c0,2.5-1.3,3.8-3.8,3.8h-4V4.8h3.8C18.9,4.8,20,6.1,20,8.5"/>
	<path fill="#FFFFFF" d="M24.2,15.8h2.4l-1.2-8.1L24.2,15.8z M30,20.9h-2.5L27,18h-3.1l-0.4,2.9h-2.3l2.6-16.1h3.7L30,20.9z"/>
	<path fill="#FFFFFF" d="M51.8,5v12.3c0,1.1,0.5,1.6,1.3,1.6c0.8,0,1.3-0.4,1.3-1.6V5h2.4v12.2c0,2.6-1.3,4-3.7,4
		c-2.5,0-3.7-1.5-3.7-4V5H51.8z"/>
	<path fill="#FFFFFF" d="M65.3,15v2.1c0,2.6-1.3,4-3.7,4c-2.5,0-3.7-1.5-3.7-4V8.8c0-2.6,1.3-4,3.7-4c2.5,0,3.7,1.5,3.7,4v1.6H63
		V8.6c0-1.1-0.5-1.6-1.3-1.6c-0.8,0-1.3,0.4-1.3,1.6v8.6c0,1.1,0.5,1.6,1.3,1.6c0.8,0,1.3-0.4,1.3-1.6V15H65.3z"/>
	<polygon fill="#FFFFFF" points="0.4,25 1.1,25 1.1,25.4 0.4,25.4 0.4,26.2 1.2,26.2 1.2,26.6 0,26.6 0,23.8 1.2,23.8 1.2,24.2 
		0.4,24.2 	"/>
	<path fill="#FFFFFF" d="M3.3,23.7C3.8,23.7,4,24,4,24.5v0.1H3.6v-0.1c0-0.2-0.1-0.3-0.2-0.3c-0.1,0-0.2,0.1-0.2,0.3
		C3.1,25,4,25.1,4,25.9c0,0.5-0.2,0.7-0.7,0.7c-0.4,0-0.7-0.3-0.7-0.7v-0.2h0.4V26c0,0.2,0.1,0.3,0.2,0.3c0.1,0,0.2-0.1,0.2-0.3
		c0-0.6-0.9-0.7-0.9-1.5C2.7,24,2.9,23.7,3.3,23.7"/>
	<path fill="#FFFFFF" d="M6.8,25.6v0.4c0,0.5-0.2,0.7-0.7,0.7s-0.7-0.3-0.7-0.7v-1.5c0-0.5,0.2-0.7,0.7-0.7s0.7,0.3,0.7,0.7v0.3H6.4
		v-0.3c0-0.2-0.1-0.3-0.2-0.3c-0.1,0-0.2,0.1-0.2,0.3V26c0,0.2,0.1,0.3,0.2,0.3c0.1,0,0.2-0.1,0.2-0.3v-0.4H6.8z"/>
	<path fill="#FFFFFF" d="M8.7,23.8V26c0,0.2,0.1,0.3,0.2,0.3c0.1,0,0.2-0.1,0.2-0.3v-2.2h0.4v2.2c0,0.5-0.2,0.7-0.7,0.7
		c-0.4,0-0.7-0.3-0.7-0.7v-2.2H8.7z"/>
	<polygon fill="#FFFFFF" points="11.6,25 12.2,25 12.2,25.4 11.6,25.4 11.6,26.2 12.4,26.2 12.4,26.6 11.1,26.6 11.1,23.8 
		12.4,23.8 12.4,24.2 11.6,24.2 	"/>
	<polygon fill="#FFFFFF" points="13.9,23.8 14.3,23.8 14.3,26.2 15.1,26.2 15.1,26.6 13.9,26.6 	"/>
	<path fill="#FFFFFF" d="M16.9,25.7h0.4l-0.2-1.4L16.9,25.7z M18,26.6h-0.5l-0.1-0.5h-0.6l-0.1,0.5h-0.4l0.5-2.9h0.7L18,26.6z"/>
	<path fill="#FFFFFF" d="M21.7,24.2v2H22c0.1,0,0.2-0.1,0.2-0.3v-1.5c0-0.2-0.1-0.3-0.2-0.3H21.7z M21.3,23.8H22
		c0.4,0,0.7,0.2,0.7,0.7v1.4c0,0.5-0.2,0.7-0.7,0.7h-0.7V23.8z"/>
	<polygon fill="#FFFFFF" points="24.6,25 25.2,25 25.2,25.4 24.6,25.4 24.6,26.2 25.4,26.2 25.4,26.6 24.1,26.6 24.1,23.8 
		25.4,23.8 25.4,24.2 24.6,24.2 	"/>
	<path fill="#FFFFFF" d="M29.2,25.7h0.4l-0.2-1.4L29.2,25.7z M30.2,26.6h-0.5l-0.1-0.5h-0.6L29,26.6h-0.4l0.5-2.9h0.7L30.2,26.6z"/>
	<path fill="#FFFFFF" d="M32.1,24.2v2h0.3c0.1,0,0.2-0.1,0.2-0.3v-1.5c0-0.2-0.1-0.3-0.2-0.3H32.1z M31.6,23.8h0.7
		c0.4,0,0.7,0.2,0.7,0.7v1.4c0,0.5-0.2,0.7-0.7,0.7h-0.7V23.8z"/>
	<polygon fill="#FFFFFF" points="35.5,25.8 35.8,23.8 36.4,23.8 36.4,26.6 36,26.6 36,24.6 35.7,26.6 35.3,26.6 34.9,24.6 
		34.9,26.6 34.5,26.6 34.5,23.8 35.1,23.8 	"/>
	<rect x="38" y="23.8" fill="#FFFFFF" width="0.4" height="2.9"/>
	<polygon fill="#FFFFFF" points="40.4,24.6 40.4,26.6 40,26.6 40,23.8 40.5,23.8 41,25.5 41,23.8 41.4,23.8 41.4,26.6 40.9,26.6 	
		"/>
	<rect x="42.9" y="23.8" fill="#FFFFFF" width="0.4" height="2.9"/>
	<path fill="#FFFFFF" d="M45.6,23.7c0.4,0,0.7,0.3,0.7,0.7v0.1h-0.4v-0.1c0-0.2-0.1-0.3-0.2-0.3c-0.1,0-0.2,0.1-0.2,0.3
		c0,0.6,0.9,0.7,0.9,1.5c0,0.5-0.2,0.7-0.7,0.7c-0.4,0-0.7-0.3-0.7-0.7v-0.2h0.4V26c0,0.2,0.1,0.3,0.2,0.3c0.1,0,0.2-0.1,0.2-0.3
		c0-0.6-0.9-0.7-0.9-1.5C44.9,24,45.1,23.7,45.6,23.7"/>
	<polygon fill="#FFFFFF" points="47.6,23.8 49,23.8 49,24.2 48.5,24.2 48.5,26.6 48.1,26.6 48.1,24.2 47.6,24.2 	"/>
	<path fill="#FFFFFF" d="M50.9,24.2v0.9H51c0.2,0,0.3-0.1,0.3-0.3v-0.3c0-0.2-0.1-0.3-0.2-0.3H50.9z M51.3,26.6c0-0.1,0-0.1,0-0.4
		v-0.4c0-0.3-0.1-0.4-0.3-0.4h-0.2v1.2h-0.4v-2.9h0.7c0.5,0,0.7,0.2,0.7,0.7v0.2c0,0.3-0.1,0.5-0.3,0.6c0.2,0.1,0.3,0.3,0.3,0.6v0.4
		c0,0.1,0,0.2,0,0.3H51.3z"/>
	<path fill="#FFFFFF" d="M53.7,25.7h0.4l-0.2-1.4L53.7,25.7z M54.7,26.6h-0.5l-0.1-0.5h-0.6l-0.1,0.5h-0.4l0.5-2.9h0.7L54.7,26.6z"
		/>
	<path fill="#FFFFFF" d="M57.5,25.6v0.4c0,0.5-0.2,0.7-0.7,0.7s-0.7-0.3-0.7-0.7v-1.5c0-0.5,0.2-0.7,0.7-0.7s0.7,0.3,0.7,0.7v0.3H57
		v-0.3c0-0.2-0.1-0.3-0.2-0.3c-0.1,0-0.2,0.1-0.2,0.3V26c0,0.2,0.1,0.3,0.2,0.3c0.1,0,0.2-0.1,0.2-0.3v-0.4H57.5z"/>
	<rect x="59" y="23.8" fill="#FFFFFF" width="0.4" height="2.9"/>
	<path fill="#FFFFFF" d="M62.2,23.2l-0.4,0.5h-0.3l0.3-0.5H62.2z M61.4,26c0,0.2,0.1,0.3,0.2,0.3c0.1,0,0.2-0.1,0.2-0.3v-1.5
		c0-0.2-0.1-0.3-0.2-0.3c-0.1,0-0.2,0.1-0.2,0.3V26z M60.9,24.5c0-0.5,0.2-0.7,0.7-0.7c0.4,0,0.7,0.3,0.7,0.7v1.5
		c0,0.5-0.2,0.7-0.7,0.7c-0.4,0-0.7-0.3-0.7-0.7V24.5z"/>
	<polygon fill="#FFFFFF" points="64.2,24.6 64.2,26.6 63.8,26.6 63.8,23.8 64.4,23.8 64.8,25.5 64.8,23.8 65.2,23.8 65.2,26.6 
		64.8,26.6 	"/>
	<path fill="#FFFFFF" d="M41.5,9.6c0.1,0,0.2-0.1,0.2-0.2c0-0.1-0.1-0.2-0.2-0.2c-0.1,0-0.2,0.1-0.2,0.2C41.4,9.5,41.4,9.6,41.5,9.6
		"/>
	<path fill="#FFFFFF" d="M36.3,16C36.3,16,36.3,16,36.3,16C36.3,16,36.3,16.1,36.3,16C36.4,16.1,36.4,16,36.3,16
		C36.4,16,36.4,16,36.3,16"/>
	<path fill="#FFFFFF" d="M38.4,16.1C38.4,16.1,38.4,16,38.4,16.1C38.4,16,38.4,16,38.4,16.1C38.3,16,38.3,16,38.4,16.1
		C38.3,16,38.3,16.1,38.4,16.1"/>
	<path fill="#FFFFFF" d="M34.9,15.2c0.1,0.1,0.2,0.3,0.2,0.3s-0.2,0-0.3,0c-0.1-0.1-0.2-0.3-0.2-0.3S34.8,15.1,34.9,15.2 M34.8,14.3
		c0,0,0.2,0,0.3,0.1c0.1,0.1,0.1,0.3,0.1,0.3s-0.2,0-0.3-0.1C34.7,14.5,34.8,14.3,34.8,14.3 M35,14.8c0.1,0.1,0.1,0.3,0.1,0.3
		s-0.2,0-0.3-0.1c-0.1-0.1-0.1-0.3-0.1-0.3S34.9,14.7,35,14.8 M35,14c0.3,0,0.6,0.1,0.8,0.3l0,0c-0.1-0.1-0.3-0.1-0.5-0.1
		c-0.5,0-0.8,0.3-0.8,0.7c0,0.3,0.2,0.6,0.6,0.7c0.2,0.1,0.3,0.2,0.3,0.2v0.1h-0.2c0-0.1-0.1-0.1-0.3-0.2c-0.5-0.1-0.8-0.4-0.8-0.9
		C34,14.4,34.4,14,35,14 M35.3,14.5c0.1-0.1,0.3-0.1,0.3-0.1s0,0.2-0.1,0.3c-0.1,0.1-0.3,0.1-0.3,0.1S35.2,14.6,35.3,14.5
		 M35.3,14.8c0.1-0.1,0.3-0.1,0.3-0.1s0,0.2-0.1,0.3c-0.1,0.1-0.3,0.1-0.3,0.1S35.2,14.9,35.3,14.8 M35.5,15.4c-0.1,0.1-0.3,0-0.3,0
		s0-0.2,0.2-0.3c0.1-0.1,0.3,0,0.3,0S35.6,15.3,35.5,15.4 M35.4,16.9c0,0.1-0.1,0.2-0.2,0.2c-0.1,0-0.2-0.1-0.2-0.2l0.1-0.8h0.3
		L35.4,16.9z M36.3,15h0.6c0.1,0,0.1,0,0.1,0.1v0.1c0,0,0.1,0,0.1,0v-0.1c0-0.1-0.1-0.2-0.2-0.2l0,0l0,0c0.1-0.1,0.3-0.1,0.5-0.1
		c0.2,0,0.3,0.1,0.5,0.2l0,0l0,0c-0.1,0-0.1,0.1-0.1,0.2v0.1c0,0,0.1,0,0.1,0v-0.1c0-0.1,0-0.1,0.1-0.1h0.6v0c0,0,0,0.1,0,0.1h-0.4
		v0.1h0.4c-0.1,0.1-0.1,0.2-0.3,0.2H38c0,0,0,0.1,0,0.1h0.1l0.1,0h0.1v0.2h-1.8v-0.2h0.1l0.1,0h0.2c0,0,0-0.1,0-0.1h-0.1
		c-0.2,0-0.3-0.1-0.3-0.2h0.4v-0.1h-0.4C36.3,15.1,36.3,15,36.3,15L36.3,15z M37.7,16.1c0,0,0-0.1,0-0.2h0.1
		C37.8,15.9,37.7,16.1,37.7,16.1 M37.2,15.9h0.3l0,0.4c-0.1,0-0.1,0.1-0.2,0.1c0,0,0,0-0.1,0L37.2,15.9z M38.6,16L38.6,16
		c0,0.1-0.1,0.2-0.3,0.2c-0.1,0-0.2-0.1-0.3,0c0,0-0.1,0.1-0.2,0.3c0,0.1-0.1,0.2-0.2,0.2c-0.1,0-0.2,0.1-0.3,0.1
		c-0.1,0-0.1,0.1-0.2,0.1v0C37.1,16.9,37,16.9,37,17c0,0.1,0.1,0.1,0.2,0.2c-0.1,0-0.1,0.1-0.2,0.1c-0.1-0.1-0.2-0.2-0.2-0.3
		c0-0.1,0.1-0.2,0.2-0.3c0.1-0.1,0.2-0.1,0.3-0.1c0.1,0,0.2-0.1,0.3-0.1l0,0c0.1,0,0.1-0.1,0.1-0.1c0.2-0.4,0.4-0.5,0.6-0.5
		C38.5,15.9,38.6,16,38.6,16 M37.3,17C37.3,17,37.3,16.9,37.3,17c0.1-0.1,0.2,0,0.2,0C37.4,17.1,37.4,17.1,37.3,17
		C37.3,17.1,37.3,17.1,37.3,17 M37.6,17.4L37.6,17.4C37.5,17.4,37.5,17.4,37.6,17.4c-0.2,0.1-0.2,0.1-0.3,0.2c0,0,0,0,0,0l0,0
		c0,0,0,0,0,0c0,0-0.1,0.1-0.1,0.1c0,0.1,0,0.1,0.1,0.1c-0.1,0-0.1,0.1-0.1,0.1c-0.1,0-0.1-0.1-0.1-0.2c0-0.1,0.1-0.2,0.1-0.3l0,0
		c0.1-0.1,0.2-0.1,0.3-0.2c0,0,0.1,0,0.1-0.1c0.1-0.1,0.2-0.1,0.2-0.2c0-0.1-0.1-0.1-0.1-0.2c0.1,0,0.1-0.1,0.2-0.1
		c0.1,0.1,0.1,0.1,0.1,0.3C37.9,17.2,37.7,17.3,37.6,17.4 M37.5,18c-0.1,0-0.1,0.1-0.2,0.1c0,0,0,0.1,0,0.1c0,0,0.1,0,0.1,0
		c0,0,0.1,0,0.1-0.1c0,0,0,0,0,0.1c0,0.1-0.1,0.2-0.2,0.2l0,0.1c0,0,0,0.1-0.1,0.1c0,0-0.1,0-0.1-0.1l0-0.1c-0.1,0-0.2-0.1-0.2-0.2
		c0,0,0-0.1,0-0.1c0.1-0.1,0.2-0.2,0.3-0.3c0,0,0,0,0,0c0,0,0,0,0,0h0c0,0,0,0,0,0c0,0,0,0,0,0c0,0,0-0.1,0-0.1c0,0,0-0.1-0.1-0.1
		c0,0,0,0,0,0c0,0,0.1,0,0.1-0.1c0,0.1,0.1,0.1,0.1,0.2C37.7,17.9,37.6,17.9,37.5,18 M36.9,15.9H37c0,0.1,0,0.2,0,0.2
		S36.9,15.9,36.9,15.9 M36.8,16.4c-0.1-0.1-0.1-0.2-0.2-0.3c-0.1-0.1-0.1,0-0.3,0c-0.1,0-0.3-0.1-0.3-0.1l0-0.1c0,0,0.2-0.2,0.3-0.2
		c0.2,0,0.4,0.1,0.6,0.5c0,0.1,0.1,0.1,0.2,0.2c-0.1,0-0.1,0.1-0.2,0.1C36.9,16.5,36.8,16.5,36.8,16.4 M33.5,14.5l0.4,0.2
		c0,0.1,0,0.1,0,0.2c0,0.5,0.3,0.9,0.9,1.1c0,0,0.1,0,0.1,0l-0.1,1v0c0,0.2,0.2,0.4,0.4,0.4c0.2,0,0.4-0.2,0.4-0.4v0l-0.1-1h0v-0.1
		c0-0.1,0-0.2-0.1-0.3c0.1,0,0.2,0,0.3-0.1c0.2-0.1,0.2-0.3,0.2-0.3l0-0.1l0.3-0.2V15c0,0.2,0.1,0.3,0.2,0.4v0.2v0
		c-0.2,0-0.3,0.1-0.3,0.2l-0.1,0.1l0,0.1c0,0,0,0,0,0c0,0.1,0.2,0.2,0.4,0.2c0.1,0,0.1,0,0.2,0l0,0c0,0,0.1,0.1,0.1,0.2
		c0,0.1,0.1,0.1,0.2,0.2c-0.1,0.1-0.1,0.2-0.1,0.3c0,0.2,0.1,0.3,0.2,0.4c0,0.1-0.1,0.2-0.1,0.3c0,0.2,0.1,0.3,0.2,0.4
		c0,0,0,0.1,0,0.1c0,0.1,0.1,0.2,0.2,0.3c0,0.1,0.1,0.2,0.2,0.2c0.1,0,0.2-0.1,0.2-0.2c0.1-0.1,0.2-0.2,0.2-0.3c0,0,0-0.1,0-0.1
		c0.1-0.1,0.2-0.2,0.2-0.4c0-0.1,0-0.2-0.1-0.3c0.1-0.1,0.2-0.2,0.2-0.4c0-0.1,0-0.2-0.1-0.3c0.1-0.1,0.1-0.1,0.1-0.2
		c0-0.1,0.1-0.1,0.1-0.2l0,0c0,0,0.1,0,0.2,0c0.2,0,0.4-0.1,0.4-0.2c0,0,0,0,0,0l0-0.1l-0.1-0.1c0,0-0.2-0.1-0.3-0.2v-0.3
		c0.1-0.1,0.2-0.3,0.2-0.5v-0.2h-0.2h-0.4c-0.2-0.2-0.4-0.3-0.7-0.3c-0.3,0-0.5,0.1-0.7,0.3h-0.4l0.5-0.3c0,0,0,0,0-0.1
		c0,0,0,0-0.1,0l-1,0.6l-0.1,0c0-0.1,0.1-0.2,0.1-0.2l0-0.1l0.7-0.6c0,0,0,0,0-0.1c0,0,0,0-0.1,0l-0.7,0.6l0,0c0,0,0,0,0-0.1
		l0.2-0.3l-0.1-0.1c0,0,0,0,0,0l0.3-0.4c0,0,0,0,0-0.1c0,0-0.1,0-0.1,0L35.7,14c-0.2-0.2-0.5-0.2-0.8-0.2c-0.2,0-0.4,0-0.5,0.1
		l-0.2-0.3c0,0,0,0-0.1,0c0,0,0,0,0,0.1l0.2,0.2c-0.1,0.1-0.2,0.1-0.3,0.2L33.9,14c0,0-0.1,0-0.1,0c0,0,0,0.1,0,0.1l0.3,0.2
		c-0.1,0.1-0.1,0.2-0.2,0.4L33.5,14.5C33.5,14.4,33.5,14.4,33.5,14.5C33.4,14.5,33.4,14.5,33.5,14.5"/>
	<path fill="#FFFFFF" d="M43.2,16.2c-0.2,0-0.4-0.2-0.4-0.4h0.9C43.6,16,43.4,16.2,43.2,16.2 M42.3,17.5c0,0-0.1,0-0.2,0
		c-0.1,0-0.2-0.1-0.3-0.2l0.1-1.3c0,0,0,0,0.1,0c0.1,0,0.2,0.1,0.2,0.1c0.1,0.1,0.2,0.1,0.3,0.2c0.1,0,0.2,0.1,0.3,0.1
		C42.7,16.5,42.3,17.5,42.3,17.5 M41.6,17.9C41.6,17.9,41.5,18,41.6,17.9c-0.1,0.1-0.1,0-0.1,0l-0.2-3.2h-1.5h0
		c-0.1,0-0.2-0.1-0.2-0.2c0-0.1,0.1-0.2,0.2-0.2c0.1,0,0.2,0.1,0.2,0.2c0,0,0,0,0,0c0.3,0,1,0,1.4-0.3c0,0-0.1-0.1-0.1-0.2
		c0-0.1,0.1-0.2,0.2-0.2c0.1,0,0.2,0.1,0.2,0.2c0,0.1,0,0.1-0.1,0.2c0.4,0.3,1.1,0.3,1.4,0.3c0,0,0,0,0,0c0-0.1,0.1-0.2,0.2-0.2
		c0.1,0,0.2,0.1,0.2,0.2c0,0.1-0.1,0.2-0.2,0.2h0h-1.5L41.6,17.9z M41.1,17.2c0-0.1-0.1-0.2-0.2-0.2c-0.1,0-0.2,0-0.3,0
		c-0.1,0-0.3,0-0.4,0c-0.1,0-0.1-0.1-0.2-0.1c0.1-0.1,0.6-1,0.7-1.1c0,0,0.1,0.1,0.2,0.1c0.1,0,0.2,0,0.2,0l0.1,1.3
		C41.2,17.2,41.1,17.2,41.1,17.2 M39.8,16.2c-0.2,0-0.4-0.2-0.4-0.4h0.9C40.3,16,40.1,16.2,39.8,16.2 M40.3,15.6l-0.3-0.7H41
		l0.1,0.9c-0.1,0-0.1,0-0.2,0c-0.1,0-0.2-0.1-0.2-0.1l-0.1,0l0,0.1l-0.2,0.2c0,0,0-0.1,0-0.1v-0.2H40.3z M39.8,14.9l0.3,0.7h-0.6
		L39.8,14.9z M42.7,16.1c0,0-0.1,0-0.2,0c-0.1,0-0.2-0.1-0.3-0.1c-0.1-0.1-0.2-0.1-0.3-0.1c0,0-0.1,0-0.1,0l0.1-0.9h1.1l-0.3,0.7
		h-0.2v0.2C42.6,15.9,42.6,16,42.7,16.1 M43.5,15.6h-0.6l0.3-0.7L43.5,15.6z M43.6,15.6l-0.3-0.7c0.2,0,0.3-0.2,0.3-0.3
		c0-0.2-0.2-0.3-0.3-0.3c-0.1,0-0.3,0.1-0.3,0.2c-0.4,0-0.8,0-1-0.2c0,0,0-0.1,0-0.1c0-0.2-0.2-0.4-0.4-0.4c-0.2,0-0.4,0.2-0.4,0.4
		c0,0,0,0.1,0,0.1c-0.3,0.1-0.6,0.2-1,0.2c-0.1-0.1-0.2-0.2-0.3-0.2c-0.2,0-0.3,0.2-0.3,0.3c0,0.2,0.1,0.3,0.3,0.3l-0.3,0.7h-0.2
		v0.2c0,0.3,0.3,0.6,0.6,0.6c0.1,0,0.2,0,0.3-0.1l-0.4,0.5h0l0,0l0,0l0,0l0,0.3l1.1,0.2c0,0.1,0.1,0.1,0.2,0.1c0.1,0,0.1,0,0.2,0
		l0,0.4l0,0c0,0.1,0.1,0.2,0.2,0.2c0.1,0,0.2-0.1,0.2-0.2v0v0l0-0.3l0.6,0.2l0.6-1.4l0-0.1c0.1,0,0.1,0,0.2,0c0.3,0,0.6-0.3,0.6-0.6
		v-0.2H43.6z"/>
	<path fill="#FFFFFF" d="M35.1,10.3c0.1,0,0.3,0,0.4,0c0,0,0.2,0,0.3,0c0.2,0,0.3,0.2,0.3,0.2l0,0.1c0,0-0.1,0.1-0.3,0.1
		c-0.1,0-0.3-0.1-0.4-0.1c-0.1,0-0.2,0-0.4,0c-0.2,0-0.5,0.2-0.5,0.5c0,0.3,0.2,0.4,0.3,0.6c0.2,0.2,0.3,0.2,0.4,0.3l0,0
		c-0.1,0-0.1,0-0.1,0.1c-0.4-0.1-0.8-0.4-0.8-0.9C34.4,10.6,34.8,10.3,35.1,10.3 M36.5,10.9v0.2c0,0.3-0.2,0.4-0.4,0.5
		c-0.1,0.1-0.2,0.2-0.2,0.2l-0.4,0.1c-0.1-0.1-0.2-0.2-0.3-0.3c-0.2-0.1-0.4-0.3-0.4-0.5v-0.2H36.5z M36,12.5l-0.6,0.2
		c-0.1,0-0.1,0-0.1-0.1c0-0.1,0-0.1,0.1-0.1l0.6-0.2c0,0,0.1,0,0.1,0.1C36.1,12.4,36.1,12.4,36,12.5 M35.4,12l0.6-0.2
		c0,0,0.1,0,0.1,0.1c0,0.1,0,0.1-0.1,0.1l-0.6,0.2c0,0-0.1,0-0.1-0.1C35.3,12.1,35.3,12.1,35.4,12 M36.2,13.1L36.2,13.1l-1,0v0
		c0-0.1,0.2-0.2,0.3-0.3l0.3-0.1C35.8,12.8,36.2,12.9,36.2,13.1 M36.2,9.5h0.9V8.5h0.5v1.1h0.9v0.5h-0.9v3h-0.5v-3h-0.9V9.5z
		 M34.2,11.1c0,0.7,0.5,1,0.9,1.1c0,0.1,0.1,0.1,0.1,0.2c0,0,0,0-0.1,0.1c0,0.1,0,0.1,0,0.2c0,0.1,0,0.1,0.1,0.1
		c-0.1,0.1-0.3,0.2-0.3,0.4v0.1h1.4v-0.1c0-0.2-0.2-0.3-0.3-0.4c0,0,0,0-0.1-0.1v0c0,0,0.2-0.1,0.2-0.2c0-0.1-0.1-0.2-0.1-0.2
		c0,0,0,0,0.1-0.1c0-0.1,0-0.1,0-0.2c0,0,0-0.1-0.1-0.1c0,0,0.1,0,0.1-0.1c0.2-0.1,0.5-0.3,0.5-0.7v-0.4h-0.4l0-0.1c0,0,0.1,0,0.2,0
		c0.1,0,0.1,0.1,0.2,0.1c0.1,0,0.1,0,0.1,0c0,0,0,0-0.1,0c-0.1,0-0.1-0.1-0.2-0.1c0,0-0.1,0-0.1,0c0,0-0.2-0.1-0.2-0.2h0.8v3h0.9v-3
		h0.9V9.4h-0.9V8.3h-0.9v1.1H36v0.8c-0.1,0-0.2-0.1-0.2-0.1c-0.1,0-0.3,0-0.3,0s-0.2,0-0.4,0C34.7,10.1,34.2,10.5,34.2,11.1"/>
	<path fill="#FFFFFF" d="M42.8,11.3c0-0.2,0.1-0.3,0.3-0.3c0.1,0,0.2,0,0.2,0.1c0,0.1-0.1,0.1-0.1,0.1c-0.1,0-0.1,0-0.1,0.1
		c0,0.1,0,0.1,0.1,0.1c0.2,0,0.3-0.1,0.3-0.3c0-0.2-0.2-0.3-0.4-0.3c-0.2,0-0.3,0.1-0.4,0.3l-0.2-0.5H43c0.4,0,0.6,0.2,0.6,0.6
		c0,0.3-0.2,0.5-0.5,0.5C43,11.6,42.8,11.5,42.8,11.3 M43.3,13.1L43.3,13.1l-1.8-3c0,0,0,0,0,0c0.2,0,0.4-0.1,0.5-0.2
		C42.4,10.8,43.3,13.1,43.3,13.1 M42.8,12.8h-0.3V12l0.3,0.6V12.8z M42.2,12.8h-0.3v-1.2c0-0.1,0-0.1-0.1-0.1c-0.1,0-0.1,0-0.1,0.1
		v1.2h-0.3v-1.2c0-0.1,0-0.1-0.1-0.1c-0.1,0-0.1,0-0.1,0.1v1.2h-0.3v-1.2l0.2-0.3h1l0.2,0.3V12.8z M40.6,12.8h-0.3v-0.2l0.3-0.6
		V12.8z M41.5,10.6h0.1l0.3,0.6h-0.8L41.5,10.6z M39.8,13.1L39.8,13.1c0,0,0.8-2.3,1.2-3.3c0.1,0.1,0.1,0.1,0.2,0.2l0.2,0.3
		L39.8,13.1z M39.9,11.6c-0.3,0-0.5-0.2-0.5-0.5c0-0.3,0.2-0.6,0.6-0.6h0.5l-0.2,0.5c-0.1-0.2-0.2-0.3-0.4-0.3
		c-0.2,0-0.3,0.1-0.3,0.3c0,0.2,0.1,0.3,0.3,0.3c0.1,0,0.1,0,0.1-0.1c0-0.1,0-0.1-0.1-0.1c0,0-0.1,0-0.1-0.1c0-0.1,0.1-0.1,0.2-0.1
		c0.2,0,0.3,0.1,0.3,0.3C40.2,11.5,40.1,11.6,39.9,11.6 M41.5,8.9c0.3,0,0.5,0.2,0.5,0.5c0,0.3-0.2,0.5-0.5,0.5
		c-0.3,0-0.5-0.2-0.5-0.5C41.1,9.1,41.3,8.9,41.5,8.9 M43.8,11.2c0-0.4-0.3-0.8-0.8-0.8h-0.6l-0.3-0.7c0-0.1,0.1-0.2,0.1-0.3
		c0-0.4-0.3-0.7-0.7-0.7c-0.4,0-0.7,0.3-0.7,0.7c0,0.1,0,0.2,0,0.3l-0.3,0.7H40c-0.5,0-0.8,0.3-0.8,0.8c0,0.4,0.3,0.6,0.7,0.6
		c0.1,0,0.1,0,0.2,0l-0.3,0.7L39.6,13c-0.1,0.1,0,0.2,0,0.2l0.1,0.1c0.1,0,0.2,0,0.2-0.1l0.2-0.3V13h0.2h2.4H43v-0.1l0.2,0.3
		c0,0.1,0.1,0.1,0.2,0.1l0.1-0.1c0,0,0.1,0,0-0.2l-0.2-0.6L43,11.8c0.1,0,0.1,0,0.2,0C43.5,11.8,43.8,11.5,43.8,11.2"/>
	<path fill="#FFFFFF" d="M35.8,10.5C35.8,10.5,35.9,10.5,35.8,10.5C35.9,10.5,35.8,10.4,35.8,10.5C35.8,10.4,35.8,10.5,35.8,10.5
		C35.8,10.5,35.8,10.5,35.8,10.5"/>
	<path fill="#FFFFFF" d="M41.5,4.6c0.1-0.1,0.2-0.2,0.3-0.3l0,0l0,0l0,0c0,0,0,0.1,0,0.1l0,0l0,0c-0.1,0.1-0.3,0.2-0.3,0.5l0,0.1
		l0,0l0,0c0,0,0-0.1,0-0.1v0C41.5,4.7,41.5,4.7,41.5,4.6L41.5,4.6L41.5,4.6z M41.4,4.9c0,0.1,0.1,0.2,0.1,0.2c0.1,0,0.2,0.1,0.2,0.1
		l0,0c0,0,0-0.1,0-0.1c0-0.3,0.3-0.6,0.3-0.6s0,0,0-0.1l0-0.2c0,0,0,0,0,0l-0.2,0c-0.2,0.2-0.4,0.4-0.4,0.4
		C41.4,4.7,41.4,4.8,41.4,4.9"/>
	<path fill="#FFFFFF" d="M42.1,4.1c0,0.1,0,0.3,0,0.3c0,0,0.1-0.1,0.1-0.2c0-0.1,0-0.3,0-0.3c0,0-0.1-0.2-0.2-0.2c0,0-0.1,0-0.1,0.1
		c0,0.1-0.1,0.2-0.1,0.2v0C41.9,4,42.1,4,42.1,4.1"/>
	<path fill="#FFFFFF" d="M34.6,5.6l0.2,0.2c0.1-0.1,0.2-0.1,0.3-0.2c0,0,0,0,0,0c0,0,0-0.1,0-0.1c0-0.1,0.1-0.1,0.1-0.1
		c0,0,0.1,0,0.1,0c0.1,0,0.1,0,0.2,0.1c0.1,0,0.2-0.1,0.3-0.1l0-0.2c-0.2,0-0.4,0.1-0.6,0.2C34.9,5.4,34.8,5.5,34.6,5.6"/>
	<path fill="#FFFFFF" d="M34.2,5.1l0.1,0.2c0.1-0.1,0.2-0.2,0.4-0.3c0,0,0,0,0,0c0-0.1,0.1-0.2,0.1-0.2c0,0,0.1,0,0.1,0
		c0.1,0,0.1,0,0.2,0.1c0.1-0.1,0.3-0.1,0.4-0.1c0,0-0.1-0.2-0.1-0.2c-0.2,0-0.5,0.1-0.7,0.2C34.6,4.8,34.4,5,34.2,5.1"/>
	<path fill="#FFFFFF" d="M34.5,4.5C34.5,4.5,34.5,4.5,34.5,4.5c0-0.1,0.1-0.2,0.1-0.3c0,0,0.1,0,0.1,0c0.1,0,0.1,0,0.2,0.1
		c0.2-0.1,0.4-0.1,0.5-0.2c0-0.1,0-0.2-0.1-0.2c0,0,0,0,0,0c-0.1,0-0.1,0-0.2,0l0,0c-0.1,0-0.2,0-0.2,0c-0.1,0-0.2,0-0.3-0.1
		c0,0,0,0,0,0c0,0,0,0,0,0c0,0,0,0,0,0c0,0,0,0,0,0c0,0,0,0,0,0.1c0,0.2-0.2,0.4-0.3,0.4l0,0c-0.1,0.1-0.2,0.2-0.2,0.2
		c0,0,0.1,0.1,0.1,0.2C34.2,4.7,34.4,4.6,34.5,4.5"/>
	<path fill="#FFFFFF" d="M40.2,4.1c0.1,0.1,0.1,0.2,0.2,0.2c0,0-0.1,0.1-0.2,0.3c0,0-0.1,0-0.1,0c0,0,0-0.1,0-0.1c0-0.1,0-0.2,0-0.3
		C40.1,4.1,40.1,4.1,40.2,4.1 M39.9,4.7c0.1,0,0.3,0.1,0.3,0.1c0.1-0.3,0.2-0.4,0.3-0.5c-0.1-0.1-0.2-0.2-0.3-0.4
		C40.1,4,39.9,4,39.9,4c0,0.1,0,0.2,0,0.4C39.9,4.6,39.9,4.6,39.9,4.7"/>
	<path fill="#FFFFFF" d="M37.9,4.1c0,0.1,0,0.2,0,0.3c0,0,0,0.1,0,0.1c0,0-0.1,0-0.1,0c-0.1-0.2-0.2-0.3-0.2-0.3
		c0.1-0.1,0.1-0.1,0.2-0.2C37.8,4.1,37.8,4.1,37.9,4.1 M37.4,4.3c0.1,0.1,0.2,0.2,0.3,0.5c0.1,0,0.2-0.1,0.3-0.1c0,0,0-0.1,0-0.2
		c0-0.2,0-0.4,0-0.4c-0.1,0-0.2-0.1-0.3-0.1C37.6,4.1,37.4,4.2,37.4,4.3"/>
	<path fill="#FFFFFF" d="M37.8,5.1c0.1,0,0.1,0,0.2,0c0,0.1,0.1,0.2,0.2,0.2c-0.1,0-0.2,0.1-0.4,0.1C37.8,5.3,37.8,5.2,37.8,5.1
		 M37.5,5.5c0.4-0.1,0.7-0.2,0.8-0.3c-0.1-0.1-0.2-0.2-0.3-0.4c-0.1,0-0.2,0-0.3,0.1C37.7,5.2,37.6,5.4,37.5,5.5"/>
	<path fill="#FFFFFF" d="M38.9,5.2C39,5.2,39,5.2,38.9,5.2c0.1,0.1,0,0.1,0,0.1C38.9,5.3,38.9,5.3,38.9,5.2
		C38.9,5.2,38.9,5.2,38.9,5.2 M38.7,5.3c0.1,0,0.2,0.1,0.3,0.2c0.1-0.1,0.2-0.1,0.3-0.2c-0.1,0-0.2-0.2-0.3-0.3
		C38.9,5.1,38.7,5.2,38.7,5.3"/>
	<path fill="#FFFFFF" d="M37.6,3.1c0,0,0.1,0.1,0.1,0.1c0,0.1,0,0.1-0.1,0.3c-0.1-0.1-0.1-0.1-0.1-0.2C37.5,3.2,37.5,3.1,37.6,3.1
		 M37.6,3.6c0-0.1,0.2-0.3,0.2-0.4c0-0.1-0.1-0.2-0.2-0.2c-0.1,0-0.2,0.2-0.2,0.3C37.4,3.5,37.5,3.6,37.6,3.6"/>
	<path fill="#FFFFFF" d="M39.9,5c0.1,0,0.1,0,0.2,0c0,0.1,0,0.2,0.1,0.3c-0.2,0-0.3-0.1-0.4-0.1C39.8,5.2,39.9,5.1,39.9,5 M40.4,5.5
		c-0.1-0.1-0.2-0.3-0.2-0.5c-0.2-0.1-0.3-0.1-0.3-0.1c-0.1,0.2-0.2,0.3-0.3,0.4C39.7,5.3,39.9,5.4,40.4,5.5"/>
	<path fill="#FFFFFF" d="M38.3,4.3c0.1,0,0.2,0.1,0.2,0.1s-0.1,0-0.2,0.1c0,0,0,0-0.1,0c0,0,0,0,0,0C38.3,4.4,38.3,4.3,38.3,4.3
		 M38.7,4.6c0,0,0,0.2-0.2,0.4c0,0-0.1-0.1-0.1-0.1C38.7,4.8,38.7,4.6,38.7,4.6 M38.4,4.6C38.4,4.6,38.4,4.6,38.4,4.6
		C38.4,4.5,38.4,4.5,38.4,4.6c0-0.1,0.1-0.1,0.1-0.1c0,0,0,0,0,0c0,0,0.1,0,0.1,0.1c0,0.1,0,0.2-0.2,0.3l-0.2,0.1
		c0.1,0.1,0.1,0.2,0.3,0.3c0.2-0.1,0.3-0.3,0.3-0.5c0-0.3-0.3-0.4-0.6-0.5c0,0.1,0,0.2,0,0.4c0,0.1,0,0.1,0,0.2L38.4,4.6z"/>
	<path fill="#FFFFFF" d="M40.3,3.1c0,0,0.1,0.1,0.1,0.2c0,0,0,0.1-0.1,0.2c-0.1-0.1-0.1-0.2-0.1-0.3C40.2,3.2,40.3,3.1,40.3,3.1
		 M40.5,3.3c0-0.2-0.1-0.3-0.2-0.3c-0.1,0-0.2,0.1-0.2,0.2c0,0.2,0.1,0.4,0.2,0.4C40.4,3.6,40.5,3.5,40.5,3.3"/>
	<path fill="#FFFFFF" d="M39.2,4.6c0,0,0,0.2,0.3,0.3c0,0-0.1,0.1-0.1,0.1C39.1,4.8,39.2,4.6,39.2,4.6 M39.6,4.3c0,0.1,0,0.1,0,0.2
		v0c0,0,0,0-0.1,0c-0.1-0.1-0.2-0.1-0.2-0.1S39.5,4.3,39.6,4.3 M39.4,5.2c0.1-0.1,0.2-0.2,0.3-0.3l-0.2-0.1c-0.1,0-0.2-0.2-0.2-0.3
		c0,0,0.1-0.1,0.1-0.1c0,0,0,0,0,0c0,0,0.1,0.1,0.1,0.1c0,0,0,0,0,0c0,0,0,0,0,0l0.2,0.1c0-0.1,0-0.1,0-0.2c0-0.1,0-0.2,0-0.4
		c-0.3,0.1-0.6,0.2-0.6,0.5C39.1,4.8,39.2,5,39.4,5.2"/>
	<polygon fill="#FFFFFF" points="43,5.4 43,5.1 43.4,5 43.1,4.9 43.1,4.5 42.9,4.8 42.6,4.6 42.6,4.6 42.7,4.9 42.5,5.2 42.8,5.1 	
		"/>
	<path fill="#FFFFFF" d="M42.5,4.5c0.1-0.2,0.1-0.4,0.1-0.4l0,0c0.1,0.1,0.2,0.1,0.2,0.1c0.1,0,0.2,0,0.2,0c0.1,0,0.2,0,0.3-0.1
		c0,0,0,0,0,0c0,0,0,0,0,0c0,0,0,0,0,0.1c0,0.2,0.2,0.4,0.3,0.4c0,0,0.1,0,0.2,0.1l0,0c0,0-0.2,0.1-0.3,0.3c-0.1,0.2,0,0.5-0.1,0.6
		c-0.1,0.1-0.2,0.2-0.3,0.2c0,0-0.1,0-0.1,0l-0.2,0c-0.1,0-0.2-0.1-0.3-0.1h0c-0.1-0.1-0.2-0.1-0.3-0.2c0,0-0.1-0.1-0.1-0.1
		c-0.1-0.1-0.2-0.2-0.1-0.4C42.2,4.8,42.3,4.7,42.5,4.5 M41.9,4.9c0,0,0,0.1,0,0.2c0,0.1,0.1,0.3,0.2,0.4c0,0,0.2,0.1,0.2,0.1
		c0.1,0.1,0.2,0.1,0.3,0.2l0,0l0.1,0c0.1,0,0.2,0,0.3,0.1l0.2,0c0,0,0.1,0,0.1,0c0.1,0,0.2,0,0.3-0.1c0,0,0.1-0.1,0.1-0.1
		c0-0.1,0-0.1,0-0.2V5.3c0-0.1,0-0.1,0-0.2c0,0,0,0,0,0h0l0,0c0.1-0.1,0.2-0.2,0.2-0.2l0,0l0-0.2l-0.1,0c-0.1,0-0.2-0.1-0.2-0.1
		c-0.1,0-0.2-0.1-0.2-0.3c0,0,0,0,0,0c0,0,0,0,0-0.1c0-0.1,0-0.1-0.1-0.1c0,0,0,0-0.1,0c0,0-0.1,0-0.1,0.1c0,0.1-0.1,0.1-0.2,0.1
		c-0.1,0-0.1,0-0.2,0c0,0-0.1,0-0.2-0.1l0,0l0,0c0,0,0,0-0.1,0l0,0l0,0.1c0,0.1,0,0.1,0,0.2c0,0.1,0,0.1,0,0.2l0,0c0,0,0,0,0,0
		c-0.1,0.1-0.1,0.1-0.2,0.2C42.1,4.7,42,4.8,41.9,4.9"/>
	<path fill="#FFFFFF" d="M36.8,5.2c0.1,0,0.1-0.1,0.1-0.1c0,0,0.1,0,0.1-0.1c0-0.1-0.1-0.1-0.1-0.1c0,0,0-0.1-0.1-0.1
		c-0.1,0-0.1,0-0.1,0.1v0.3C36.8,5.2,36.8,5.2,36.8,5.2"/>
	<path fill="#FFFFFF" d="M33.7,6.2c-0.1,0-0.1-0.1-0.1,0c-0.1,0.1,0,0.1,0,0.2c0,0.1-0.1,0.1,0,0.2c0.1,0.1,0.1,0,0.2,0
		c0.1,0,0.1,0.1,0.2,0c0,0,0-0.1,0-0.1L33.7,6.2z"/>
	<path fill="#FFFFFF" d="M39,21.2c-4.3,0-7.8-3.4-7.8-7.7c0-1.7,0.5-3.3,1.5-4.6c0.1,0,0.1-0.1,0.2-0.1C32.9,8.8,33,8.7,33,8.6
		c1.4-1.7,3.5-2.8,5.9-2.8c2.4,0,4.6,1.1,6,2.8c0,0.3,0.2,0.4,0.3,0.4c0.9,1.3,1.5,2.8,1.5,4.5C46.7,17.7,43.2,21.2,39,21.2
		 M33.1,8.1C33,8.2,33,8.2,32.9,8.3c0,0,0,0,0,0c0,0-0.1-0.1-0.1-0.1c0,0,0,0,0.1,0C32.9,8.2,33.1,8.1,33.1,8.1 M33.2,6.5L33.2,6.5
		L33.2,6.5z M32.2,8.4c0-0.2,0.1-0.3,0.3-0.4c0.1,0,0.1-0.1,0.2-0.1L33,7.8l0.1-0.1l-0.1,0c-0.5,0-0.7-0.1-0.7-0.4
		c0,0,0-0.1,0.1-0.1c0.1,0,0.1,0,0.1,0.1c0,0,0,0.1,0,0.1c0.1,0.1,0.4,0.1,0.5,0.1c0.3,0,0.5-0.1,0.7-0.2c-0.2,0-0.3-0.1-0.5-0.2
		c-0.2-0.2-0.3-0.3-0.3-0.6c0-0.2,0-0.4,0.2-0.6c0.3-0.4,0.7-0.4,0.8-0.4c0.1,0,0.1,0,0.1,0.1c0,0.1,0,0.1-0.1,0.1
		c0,0-0.3,0-0.6,0.3c-0.1,0.1-0.1,0.2-0.1,0.4c0,0.2,0.1,0.3,0.2,0.4c0,0,0.2,0.2,0.4,0.2c0.2,0,0.3-0.1,0.5-0.2l0,0
		c0.2-0.2,0.4-0.4,0.4-0.5c0.1-0.1,0.2,0,0.2,0.1c-0.2,0.2-0.4,0.5-0.7,0.8c0,0,0,0,0,0c-0.2,0.2-0.4,0.4-0.7,0.5
		C33.2,7.9,33.1,8,33.1,8v0l-0.3,0.1c-0.1,0-0.1,0-0.2,0.1c-0.1,0.1-0.2,0.2-0.2,0.3c0,0.1,0.1,0.2,0.1,0.2c0.1,0,0.1-0.1,0.1-0.1
		c0,0,0-0.1,0-0.1c0,0,0,0,0.1,0c0.1,0,0.1,0,0.1,0.1c0,0.2-0.2,0.3-0.3,0.3C32.3,8.8,32.2,8.7,32.2,8.4 M32.9,5.5V5.3H33V5.1h-0.2
		v0.2h0.1L32.9,5.5h-0.4V5.3h0.1l0-0.2h-0.1V4.9h1.1c0.1,0.1,0.2,0.2,0.2,0.3h-0.6v0.2h0.1v0.2H32.9z M34,5.5
		C33.9,5.4,33.9,5.4,34,5.5c-0.1,0-0.3,0-0.6,0.1V5.3h0.4C33.8,5.3,33.9,5.4,34,5.5 M34.1,6.3c0.1,0.1,0.1,0.1,0.1,0.2
		c0,0.2-0.1,0.3-0.3,0.3c0,0-0.1,0-0.1,0c0,0-0.1,0-0.2,0c-0.2,0-0.3-0.1-0.3-0.3c0,0,0-0.1,0-0.1c0,0,0-0.1,0-0.1
		c0-0.1,0-0.2,0.1-0.2C33.5,6,33.5,6,33.6,6h0c0.1,0,0.1,0,0.2,0.1c0,0,0,0,0,0l0.3-0.4c0,0,0.1,0,0.1,0.1c0,0.1,0.1,0.2,0.1,0.2
		L34.1,6.3C34.1,6.3,34.1,6.3,34.1,6.3 M34.3,6.3c0,0,0.1-0.1,0.2-0.2c0.1,0.1,0.1,0.1,0.1,0.1c-0.1,0.1-0.1,0.2-0.2,0.3v0
		C34.4,6.4,34.3,6.3,34.3,6.3 M34,4.3L34,4.3c0.1-0.1,0.2-0.2,0.2-0.2c0-0.1,0-0.3,0.2-0.4c0.2-0.1,0.3,0,0.4,0.1c0,0,0.1,0,0.1,0
		c0.1,0,0.3-0.1,0.5-0.1c0.1,0,0.2,0,0.3,0.1c0.2,0.5,0.4,1.8,0.4,1.8s-0.3,0-0.7,0.2c-0.3,0.1-0.6,0.4-0.6,0.4s-0.8-1-1.1-1.4
		C33.6,4.7,33.7,4.5,34,4.3 M36.5,3l0.2,0.2l-0.1,0.1l0.1,0.1l0.1-0.1L37,3.4l-0.2,0.2l-0.1-0.1l0.1-0.1l-0.1-0.1l-0.2,0.2l0.1,0.1
		l0.1-0.1l0.1,0.1L36.5,4l-0.1-0.1l0.1-0.1l-0.1-0.1l-0.4,0.4c0,0,0,0,0,0C35.8,4,35.8,4,35.8,3.8L36.5,3z M37.1,3.5
		c0,0,0.1,0.2,0.3,0.3c-0.1,0.1-0.1,0.2-0.2,0.2c-0.1,0-0.2,0-0.2,0c-0.1,0-0.2,0-0.3,0L37.1,3.5z M36.5,5.5c-0.1,0-0.2,0-0.3,0
		c0-0.1,0-0.1,0-0.2h0.2C36.4,5.4,36.5,5.4,36.5,5.5 M36,4.5l0-0.2C36.1,4.1,36.2,4,36.2,4c0,0,0.1,0.1,0.2,0.2
		C36.2,4.2,36,4.4,36,4.5 M36,4.8L36,4.8l0.5,0c0,0,0,0,0,0c0-0.2,0.1-0.3,0.3-0.3c0.2,0,0.3,0.2,0.3,0.2c0,0,0.2,0.1,0.2,0.3
		c0,0.2-0.2,0.3-0.2,0.3c0,0-0.1,0.2-0.3,0.2c-0.2,0-0.3-0.2-0.3-0.3c0,0,0,0,0,0h-0.4l0,0c0,0,0,0,0,0C36,5,36,5,36,4.8 M35.7,6.1
		C35.7,6.1,35.7,6.1,35.7,6.1c0-0.1,0-0.2,0-0.2c0,0,0.2,0,0.4,0c0.1,0,0.3,0,0.5,0c-0.3,0.1-0.7,0.2-1,0.4
		C35.7,6.3,35.7,6.2,35.7,6.1 M35.6,6.3c-0.3,0.1-0.6,0.3-0.9,0.5c0.1-0.1,0.2-0.3,0.3-0.4c0.1-0.1,0.2-0.2,0.2-0.3
		c0.1,0,0.1,0.1,0.2,0.1C35.4,6.3,35.5,6.3,35.6,6.3 M35.6,6.1C35.6,6.1,35.6,6.2,35.6,6.1c-0.1,0.1-0.1,0.1-0.1,0.1
		c0,0-0.1-0.1-0.2-0.1c0.1-0.1,0.3-0.2,0.4-0.2C35.6,6,35.6,6.1,35.6,6.1 M37.6,2.8C37.8,2.8,38,3,38,3.2c0,0.2-0.1,0.5-0.2,0.5
		c0.1,0,0.2,0.1,0.3,0.1c0-0.1,0.1-0.3,0.2-0.4l0,0l0,0c0,0,0.1,0.1,0.1,0.1l0,0l0,0c-0.1,0.2-0.2,0.3-0.2,0.4
		c0.3,0.1,0.6,0.2,0.7,0.4c0.1-0.2,0.4-0.3,0.7-0.4c0-0.1-0.1-0.3-0.2-0.4l0,0l0,0c0,0,0.1-0.1,0.1-0.1l0,0l0,0
		c0.1,0.2,0.2,0.4,0.2,0.4c0.1,0,0.2-0.1,0.3-0.1c-0.1-0.1-0.2-0.3-0.2-0.5c0-0.2,0.2-0.4,0.4-0.4c0.2,0,0.4,0.2,0.4,0.5
		c0,0.2-0.1,0.4-0.3,0.5c0.1,0.2,0.3,0.3,0.3,0.4c0,0,0.2-0.1,0.2-0.1l-0.1,0.1c-0.2,0.1-0.2,0.2-0.2,0.2h0c-0.1,0-0.1,0.1-0.1,0.2
		c0,0,0,0,0,0l0,0l0,0c0,0.1-0.1,0.2-0.1,0.3c0,0,0,0.4,0.3,0.5l0,0l0,0.1c0,0,0.1,0.1,0.1,0.1l0,0.1l0,0l-0.1,0
		c-0.9-0.1-1.3-0.3-1.4-0.4c-0.1,0.1-0.4,0.2-0.4,0.2c-0.1,0-0.4-0.2-0.4-0.2c-0.1,0.1-0.8,0.4-1.8,0.4c-0.2,0-0.4,0-0.5,0
		c-0.1,0-0.1-0.2,0-0.2c0.1,0,0.4,0,0.6,0l0,0c0.5,0,0.7-0.3,0.7-0.6c0-0.2-0.1-0.3-0.2-0.5c-0.1-0.1-0.3-0.2-0.4-0.2
		c-0.4,0-0.6,0.3-0.6,0.3c0,0,0,0-0.1,0c0,0,0,0-0.1,0c0,0,0,0,0-0.1c0,0,0-0.1,0-0.1c0,0,0.3-0.3,0.8-0.3c0.1,0,0.2,0,0.3,0.1
		c0.1-0.1,0.2-0.3,0.3-0.4c-0.1-0.1-0.3-0.2-0.3-0.5C37.2,3,37.3,2.8,37.6,2.8 M38.2,3.4C38.1,3.5,38,3.6,38,3.7c0,0,0,0,0,0
		c0.1-0.2,0.1-0.3,0.1-0.4C38.1,3.3,38.1,3.3,38.2,3.4 M39.4,3.7c0,0.1,0.1,0.1,0.1,0.2c-0.2,0.1-0.4,0.2-0.6,0.3
		c-0.1-0.1-0.4-0.2-0.6-0.3c0-0.1,0.1-0.1,0.1-0.2c0.2,0.1,0.3,0.2,0.5,0.2C39.1,3.8,39.3,3.8,39.4,3.7 M39.9,3.7
		C39.9,3.7,39.9,3.7,39.9,3.7c-0.1-0.1-0.2-0.2-0.2-0.3c0,0,0.1-0.1,0.1-0.1C39.8,3.4,39.9,3.5,39.9,3.7 M38.9,3.6
		c-0.3,0-0.7-0.4-0.9-0.9h0.3c0.2,0.3,0.4,0.6,0.7,0.6c0.2,0,0.5-0.3,0.7-0.6h0.3C39.7,3.2,39.3,3.6,38.9,3.6 M37.6,2.4h2.7v0.2
		h-2.7V2.4z M38.5,1.5c0.1,0,0.2,0,0.3,0.1V0.8h-0.4V0.6h0.4V0.2h0.3v0.4h0.4v0.2h-0.4v0.8c0.1,0,0.2,0,0.3,0c0.4,0,0.7,0.3,0.7,0.7
		c0,0,0,0,0,0h-0.2c0-0.2-0.2-0.5-0.5-0.5c-0.2,0-0.3,0.1-0.4,0.2c-0.1-0.1-0.2-0.2-0.4-0.2c-0.3,0-0.5,0.2-0.5,0.5h-0.3v0
		C37.9,1.8,38.1,1.5,38.5,1.5 M41,3.6c0,0.1,0.1,0.2,0.2,0.2c0,0,0,0,0,0C41.2,3.9,41,4,41,4c-0.1,0-0.2,0-0.2,0
		c0-0.1-0.1-0.1-0.2-0.2c0.2-0.2,0.3-0.4,0.3-0.4S40.9,3.6,41,3.6 M40.6,5.4c-0.1-0.1-0.1-0.3-0.1-0.4v0c0-0.1,0-0.1,0-0.2
		c0,0,0.1,0,0.1,0c0,0,0.1,0.1,0.1,0.1c0,0.1-0.1,0.2-0.1,0.2l0,0.1C40.6,5.2,40.6,5.3,40.6,5.4 M41.8,5.9c0.1,0,0.2,0,0.3,0
		c0,0,0.1,0,0.1,0.1c0,0,0,0.1,0,0.1c0,0.1,0,0.1,0.1,0.2c-0.3-0.1-0.6-0.3-1-0.4C41.5,5.9,41.6,5.9,41.8,5.9 M41.1,5.5
		C41.1,5.5,41.1,5.5,41.1,5.5C41.1,5.4,41,5.3,41,5.2c0,0,0,0,0-0.1c0,0,0.1-0.1,0.1-0.1l0,0.1c0,0,0.1,0.1,0.1,0.1s0,0,0,0
		c0,0,0,0,0,0l0.2,0.1c0,0,0.1,0,0.1,0c0,0,0,0,0,0c0,0,0,0.1,0.1,0.1C41.5,5.5,41.3,5.5,41.1,5.5 M41.2,5.8
		C41.2,5.7,41.2,5.7,41.2,5.8c0-0.1,0-0.1,0-0.1l0,0v0v0c0,0,0.4,0,0.6,0c0.1,0,0.2,0.2,0,0.2L41.2,5.8L41.2,5.8z M43.4,6.3
		c0,0,0.1,0,0.1,0c0,0,0,0,0,0c0,0.1,0,0.1,0.1,0.2l0.1,0c0,0,0,0-0.1,0.1C43.5,6.5,43.4,6.4,43.4,6.3 M43.2,6.8
		c-0.3-0.2-0.6-0.4-0.9-0.5c0.1,0,0.2,0,0.2-0.1c0,0,0.1-0.1,0.1-0.1c0,0,0.1,0,0.1,0c0.1,0.1,0.1,0.2,0.2,0.2
		C43,6.6,43.1,6.7,43.2,6.8 M43,6.4c-0.1-0.1,0.1-0.2,0.2-0.1c0.1,0.1,0.2,0.3,0.4,0.5l0,0.1h-0.1c-0.1,0-0.1,0-0.1,0l0,0l0,0
		C43.2,6.7,43.1,6.5,43,6.4 M41,3.3l0.1,0L41,3.3l0.2,0l0-0.1l0.1,0.1l0-0.1l0.1,0.2c0,0,0.1,0,0.1,0.1c0,0,0.1,0,0.1,0.1
		c0,0.1-0.2,0.1-0.2,0.1c0,0,0,0,0.1,0.1c0.1,0.1,0.2,0.2,0.2,0.2c0,0,0.1-0.1,0.1-0.1c0,0,0.1-0.1,0.1-0.1c0.1,0,0.1,0.1,0.2,0.1
		c0.1,0.1,0.1,0.1,0.1,0.1l0.3-0.2c0,0,0.1,0.3,0.4,0.3c0,0,0.1,0,0.1,0c0.1-0.1,0.2-0.2,0.4-0.1c0.1,0.1,0.2,0.2,0.2,0.4
		c0,0.1,0.1,0.2,0.2,0.2c0.1,0,0.2,0.1,0.2,0.1l0.1,0l0.1,0.5C43.9,5,43.8,5,43.8,5.4c0,0.1,0,0.3-0.1,0.4c0,0.1-0.1,0.1-0.2,0.2
		c0,0,0,0,0,0c0,0,0,0,0,0l0.1,0.2c0,0,0.2-0.2,0.2-0.2c0,0,0-0.2,0-0.2s0-0.1,0-0.4c0-0.3,0-0.3,0.1-0.4c0,0,0.1-0.1,0.2-0.1
		c0,0.1-0.2,0.2-0.2,0.2c0,0.1,0,0.1,0,0.1l0,0c0,0,0.1,0,0.1,0c0,0,0.1-0.1,0.2-0.1c0.1,0,0.1,0,0.2,0l0,0c0,0,0-0.1,0-0.1
		c0,0,0-0.1-0.1-0.1l0-0.1c0-0.1,0.1,0,0.1,0c0,0,0.1,0,0.1,0l0.1-0.1l0,0.1l0.1,0l0,0.1l0.1,0l0,0.1l0.1,0l-0.1,0
		c0,0.1,0,0.1-0.1,0.2c0,0,0,0,0,0c0,0.1-0.1,0.2-0.1,0.2l0,0.1c0,0,0.1,0,0.1,0c0.2,0,0.2-0.4,0.4-0.4c0.2,0,0.2,0.1,0.2,0.3
		c0,0.2,0.1,0.3,0,0.7c-0.1,0.2-0.1,0.4-0.2,0.6c0-0.1,0-0.1,0-0.2l0-0.1c0-0.2-0.1-0.4-0.2-0.6c-0.1-0.1-0.1-0.1-0.2-0.1
		c-0.1,0-0.1,0-0.1,0.1c0,0-0.1,0.1-0.1,0.1c0,0.1,0,0.1,0.1,0.2c0,0.1,0.1,0.2,0.1,0.3l0,0c0,0.1-0.1,0.2-0.2,0.3c0,0,0,0,0,0
		c0-0.1,0-0.1,0.1-0.2c0,0,0-0.1,0-0.1c0,0,0-0.1,0.1-0.2c-0.1,0-0.2,0.2-0.2,0.2c0,0,0,0-0.1,0c0,0,0,0.1,0,0.2
		c0,0-0.1,0.3-0.1,0.3l0,0l-0.1,0c0,0-0.1-0.1-0.1-0.1l0.1-0.3L44,6.8c0,0,0,0,0-0.1c0,0,0,0-0.1,0L43.8,7c0,0,0.1,0.1,0.1,0.2l0,0
		c0,0-0.1-0.1-0.1-0.1c0,0-0.1,0.1-0.1,0.1l0,0c0,0,0-0.1,0-0.1c0,0,0,0-0.1,0c0,0-0.1,0-0.1,0l0,0c0,0,0.1-0.1,0.1-0.1c0,0,0,0,0,0
		c0,0-0.1,0-0.1,0l0,0c0,0,0,0,0.1,0c0.1,0,0.1,0,0.2,0l0.1-0.3c0-0.1,0.1-0.1,0-0.2c0,0,0-0.1,0-0.1c0,0-0.2,0.1-0.2,0.1
		c0,0,0-0.1,0-0.1l-0.1-0.2c-0.1,0-0.1,0-0.2,0l0,0c0,0,0,0,0,0c-0.1,0-0.2,0-0.3,0h0l-0.2-0.1c-0.1,0-0.1,0-0.2,0
		c-0.1,0-0.2,0.1-0.2,0.1c0,0-0.1,0-0.1,0c0,0,0,0,0-0.1c0,0,0-0.1,0-0.2c0,0-0.1-0.1-0.2-0.1l-0.2-0.1l0,0
		c-0.1-0.1-0.2-0.2-0.2-0.3l0,0l0,0l-0.1,0c0,0-0.1-0.1-0.2-0.2l0,0c0,0,0-0.1,0-0.1c0,0,0-0.1-0.1-0.1c0,0-0.1,0.1-0.1,0.2
		c0,0.1-0.1,0.1-0.2,0.2c0,0.1,0,0.2,0,0.3c0,0,0,0,0.1,0.1c0,0,0.1,0.1,0.1,0.1c0,0,0,0,0,0c0,0-0.1,0-0.1,0l0,0l0-0.1l-0.1-0.1
		c0-0.1,0-0.2,0-0.3c0-0.1-0.1-0.1-0.1-0.1l0,0c0-0.1,0.1-0.2,0.1-0.3c0,0,0-0.1-0.1-0.1c0,0-0.1-0.1-0.1-0.1c-0.1,0-0.1,0-0.1-0.1
		c0,0,0,0,0-0.1c0,0,0.1-0.1,0,0c0,0,0,0,0,0c0,0,0.1,0,0.1,0c0-0.1,0-0.1,0-0.2c0-0.1,0.1-0.2,0.2-0.2c0,0,0.1-0.1,0.1-0.1
		c0,0,0.1-0.1,0.1-0.1c0.1-0.1,0.2-0.2,0.2-0.2l0-0.1c-0.1-0.1-0.1-0.1-0.2-0.2c0,0,0,0,0,0c-0.1,0-0.2,0-0.2-0.1L41,3.3L41,3.3z
		 M45,8.3c-0.1-0.1-0.1-0.2-0.3-0.3L45,8.2c0.1,0,0.1,0,0.1,0C45,8.3,45,8.3,45,8.3 M45,6.5c0,0.2-0.1,0.4-0.3,0.6
		c-0.1,0.1-0.3,0.2-0.5,0.2c0.2,0.1,0.4,0.2,0.7,0.2c0.4,0,0.5-0.1,0.5-0.2c0,0,0-0.1,0-0.1c0,0,0,0,0.1,0c0.1,0,0.1,0,0.1,0.1
		c0,0.4-0.5,0.4-0.7,0.4l-0.1,0c0,0,0.1,0.1,0.1,0.1l0.3,0.1c0.1,0,0.1,0.1,0.2,0.1c0.2,0.1,0.3,0.3,0.3,0.4c0,0.2-0.1,0.4-0.3,0.4
		c-0.2,0-0.3-0.1-0.3-0.3c0-0.1,0-0.1,0.1-0.1c0.1,0,0.1,0,0.1,0.1c0,0.1,0.1,0.1,0.1,0.1c0.1,0,0.1-0.1,0.1-0.2
		c0-0.1-0.1-0.2-0.2-0.3c-0.1,0-0.1-0.1-0.2-0.1L44.8,8c0,0-0.3-0.2-0.4-0.2l0,0c-0.2-0.1-0.4-0.3-0.6-0.5l-0.1-0.1l0,0
		c0,0,0.1,0.1,0.2,0c0-0.1,0-0.2,0-0.2l0.1,0c0,0,0,0,0,0c0,0,0,0,0,0c0.2,0,0.4-0.1,0.4-0.2c0.1-0.1,0.2-0.3,0.2-0.4c0,0,0,0,0-0.1
		c0-0.2-0.1-0.3-0.1-0.4c0,0,0-0.1,0-0.1c0,0,0,0,0-0.1c0,0,0,0,0.1,0c0,0,0.1,0,0.1,0.1C44.9,6,45,6.2,45,6.5C45,6.5,45,6.5,45,6.5
		 M45.5,9c0.2,0,0.4-0.3,0.4-0.5c0-0.2-0.1-0.4-0.4-0.6c0,0-0.1,0-0.1-0.1c0.2-0.1,0.3-0.2,0.3-0.5c0-0.1-0.1-0.3-0.3-0.3
		c-0.1,0-0.1,0-0.2,0.1c0,0-0.1,0.1-0.1,0.2c0,0-0.1,0-0.3,0c-0.1,0-0.2,0-0.3,0c0,0,0.2-0.1,0.3-0.2C44.9,7,45.1,7,45.1,6.9
		c0.2-0.3,0.2-0.5,0.3-0.7c0-0.1,0.1-0.3,0.1-0.4c0-0.1,0-0.2,0-0.3l0-0.1c0-0.1,0-0.3-0.2-0.4c0,0-0.4-0.6-0.4-0.6c0,0,0,0,0,0
		c0,0-0.2,0.2-0.2,0.2c0,0-0.1,0-0.2,0c0,0,0,0,0,0c0,0,0,0,0,0l-0.1-0.4l0,0c0,0-0.2,0-0.2,0c0,0-0.1,0-0.1,0c0,0-0.1,0-0.1-0.1
		c0,0,0,0,0-0.1c0-0.2-0.1-0.4-0.3-0.5c-0.1-0.1-0.4-0.1-0.6,0.1c0,0,0,0-0.1,0c-0.1,0-0.1-0.1-0.1-0.1l-0.1-0.3l-0.3,0.2
		c-0.2-0.2-0.3-0.2-0.4-0.2c-0.1,0-0.1,0.1-0.1,0.1c0,0,0-0.1,0-0.1c0-0.1-0.1-0.3-0.2-0.3c0,0,0,0-0.1,0c0-0.1-0.1-0.3-0.1-0.3
		c0,0,0,0-0.1,0c0,0-0.4,0.3-0.4,0.3c-0.1-0.2-0.2-0.4-0.4-0.5V2.3h-0.2v0c0-0.5-0.4-0.9-0.9-0.9c0,0-0.1,0-0.1,0V1h0.4V0.4h-0.4V0
		h-0.6v0.4h-0.4V1h0.4v0.4c0,0-0.1,0-0.1,0c-0.5,0-0.9,0.4-0.9,0.9h-0.2v0.4C37.2,2.7,37,2.9,37,3.2l-0.2-0.2c0,0-0.3-0.3-0.3-0.3
		l0,0l-0.7,0.9c-0.1-0.1-0.2-0.1-0.3-0.1c-0.2,0-0.5,0.1-0.5,0.1c-0.2-0.2-0.5-0.2-0.6-0.1C34.1,3.5,34,3.7,34,3.9c0,0,0,0,0,0.1
		c0,0,0,0-0.1,0.1c0,0,0,0,0,0c-0.3,0.2-0.4,0.4-0.4,0.5h-1.1v1h0.8c0,0-0.3,0.3-0.3,0.7c0,0.6,0.5,0.8,0.5,0.9c-0.1,0-0.2,0-0.3,0
		c-0.2,0-0.3,0-0.3,0c0-0.1-0.1-0.2-0.3-0.2c-0.2,0-0.3,0.1-0.3,0.3c0,0.3,0.3,0.4,0.3,0.5c0,0-0.5,0.2-0.5,0.6
		c0,0.3,0.2,0.5,0.4,0.5c-0.9,1.3-1.4,2.9-1.4,4.6c0,4.4,3.6,7.9,8,7.9c4.4,0,7.9-3.6,7.9-8C46.9,11.8,46.3,10.2,45.5,9"/>
	<path fill="#FFFFFF" d="M39.1,19.2v-5.6h5.6C44.6,16.6,42.1,19.1,39.1,19.2 M39.1,7.8c3,0.1,5.5,2.5,5.6,5.6h-5.6V7.8z M38.9,13.4
		h-5.6c0.1-3,2.5-5.5,5.6-5.6V13.4z M38.9,19.2c-3.1,0-5.5-2.5-5.6-5.6h5.6V19.2z M44.8,13.5c0-3.2-2.6-5.9-5.9-5.9
		c-3.2,0-5.9,2.6-5.9,5.9c0,3.2,2.6,5.9,5.9,5.9C42.2,19.3,44.8,16.7,44.8,13.5"/>
	<path fill="#FFFFFF" d="M34.3,17.7c0,0-0.1-0.1-0.1-0.2c0,0,0,0,0,0c0,0,0,0,0,0c0.1,0.1,0.1,0.1-0.1,0.2l-0.5,0.4c0,0,0,0-0.1,0
		c-0.1-0.1-0.1-0.2,0-0.3c0.1-0.1,0.2-0.1,0.3,0c0,0,0,0,0,0c0,0,0,0,0,0c-0.1-0.1-0.3-0.2-0.4,0c-0.1,0.1-0.1,0.3,0,0.4
		c0,0,0.1,0.1,0.1,0.1c0,0,0.1,0.1,0.1,0.1c0,0,0,0,0,0c0,0,0,0,0,0c-0.1-0.1-0.1-0.1,0-0.1l0.5-0.4c0.1-0.1,0.1-0.1,0.2-0.1
		c0,0,0,0,0,0c0,0,0,0,0,0C34.4,17.8,34.3,17.8,34.3,17.7"/>
	<path fill="#FFFFFF" d="M32.8,17.3c-0.1-0.2,0-0.4,0.2-0.5c0.3-0.2,0.4,0,0.5,0c0.1,0.2,0,0.4-0.2,0.6C33,17.5,32.9,17.4,32.8,17.3
		 M33.6,16.8c-0.2-0.3-0.5-0.3-0.7-0.2c-0.2,0.2-0.3,0.4-0.1,0.7c0.2,0.3,0.5,0.3,0.7,0.2C33.6,17.3,33.8,17.1,33.6,16.8"/>
	<path fill="#FFFFFF" d="M33.1,16.1C33.2,16.1,33.2,16.1,33.1,16.1C33.2,16.1,33.2,16.1,33.1,16.1c0-0.1,0-0.1,0-0.1
		c0,0,0-0.1,0-0.1c0,0,0,0,0,0c0,0,0,0,0,0c0,0.1,0,0.1-0.1,0.2l-0.5,0.2l0.4-0.9c0,0,0,0,0-0.1c0,0,0,0-0.1,0l-0.8,0.3
		c-0.1,0-0.1,0-0.1,0c0,0,0,0,0,0c0,0,0,0,0,0c0,0.1,0,0.1,0,0.1c0,0,0,0.1,0,0.1c0,0,0,0,0,0c0,0,0,0,0,0c0-0.1,0-0.1,0.1-0.1
		l0.5-0.2l-0.4,0.9c0,0,0,0.1,0,0.1c0,0,0,0,0.1,0l0.7-0.3C33.1,16,33.1,16.1,33.1,16.1"/>
	<path fill="#FFFFFF" d="M32,15.1C32,15.1,32,15.1,32,15.1C32,15.1,32,15.1,32,15.1c0,0-0.1-0.1-0.1-0.2l0-0.2l0.6-0.1
		c0.2,0,0.2,0,0.2,0c0,0,0,0,0,0c0,0,0,0,0,0c0,0,0-0.1,0-0.2c0,0,0-0.1,0-0.2c0,0,0,0,0,0c0,0,0,0,0,0c0,0.1,0,0.1-0.2,0.2
		l-0.6,0.1l0-0.2c0-0.1,0-0.1,0.1-0.2c0,0,0,0,0,0c0,0,0,0,0,0c0,0-0.1,0-0.1,0c0,0,0,0,0,0c0,0,0,0,0,0.1l0.1,0.6
		c0,0.1,0,0.1,0,0.1c0,0,0,0,0,0C31.9,15.1,32,15.1,32,15.1"/>
	<path fill="#FFFFFF" d="M31.7,14C31.7,14,31.8,14,31.7,14c0.1-0.1,0.1-0.1,0.3-0.1l0.2,0c0.1,0,0.2,0,0.3,0c0.1,0,0.1,0,0.1,0.1
		c0,0,0,0,0,0c0,0,0,0,0,0c0,0,0-0.1,0-0.2c0,0,0-0.1,0-0.2c0,0,0,0,0,0c0,0,0,0,0,0c0,0.1,0,0.1-0.1,0.1c-0.1,0-0.2,0-0.3,0l-0.2,0
		c-0.2,0-0.2,0-0.3,0c-0.1,0-0.1,0-0.1-0.1c0,0,0,0,0,0c0,0,0,0,0,0c0,0,0,0.1,0,0.2C31.7,13.9,31.7,14,31.7,14
		C31.7,14,31.7,14.1,31.7,14C31.7,14.1,31.7,14,31.7,14"/>
	<path fill="#FFFFFF" d="M31.7,13.3C31.7,13.3,31.7,13.3,31.7,13.3c0-0.1,0-0.1,0.2-0.1l0.6,0c0.2,0,0.2,0,0.2,0.1c0,0,0,0,0,0
		c0,0,0,0,0,0c0-0.1,0-0.1,0-0.2c0,0,0-0.1,0-0.2c0,0,0,0,0,0c0,0,0,0,0,0c0,0.1,0,0.1-0.2,0.1l-0.2,0c0,0,0,0,0,0c0,0,0-0.1,0-0.2
		c0,0,0-0.1,0.1-0.1c0,0,0,0,0,0c0,0,0,0,0,0c-0.1,0-0.1,0-0.2,0c0,0,0,0,0,0c0,0,0,0,0,0.1l0,0.2c0,0,0,0,0,0l-0.4,0c0,0,0,0,0,0
		l0-0.2c0,0,0-0.1,0-0.1c0,0,0,0,0,0c0,0,0,0,0,0c0,0,0,0,0,0c0,0-0.1,0-0.1,0c0,0,0,0,0,0c0,0,0,0,0,0c0,0,0,0,0,0c0,0,0,0,0,0l0,0
		c0,0,0,0,0,0.1c0,0,0,0.3,0,0.3C31.7,13.1,31.7,13.2,31.7,13.3C31.7,13.3,31.7,13.3,31.7,13.3"/>
	<path fill="#FFFFFF" d="M31.8,12.3C31.8,12.2,31.8,12.2,31.8,12.3c0.1-0.1,0.2-0.1,0.3,0l0.2,0c0.1,0,0.2,0,0.3,0.1
		c0.1,0,0.1,0,0,0.1c0,0,0,0,0,0c0,0,0,0,0,0c0-0.1,0-0.1,0-0.2c0,0,0-0.1,0-0.2c0,0,0,0,0,0c0,0,0,0,0,0c0,0.1,0,0.1-0.1,0.1
		c-0.1,0-0.1,0-0.3,0l-0.2,0c-0.2,0-0.2,0-0.3-0.1c-0.1,0-0.1,0-0.1-0.1c0,0,0,0,0,0c0,0,0,0,0,0c0,0,0,0.1,0,0.2
		C31.8,12.2,31.8,12.3,31.8,12.3C31.8,12.3,31.8,12.3,31.8,12.3C31.8,12.3,31.8,12.3,31.8,12.3"/>
	<path fill="#FFFFFF" d="M32.4,11.7c0.3,0.1,0.6-0.1,0.7-0.4c0-0.1,0.1-0.2,0-0.2c0,0,0,0,0,0c0,0-0.1-0.1-0.2-0.1c0,0,0,0,0,0
		c0,0,0,0,0,0c0.1,0.1,0.1,0.1,0.1,0.3c-0.1,0.2-0.3,0.3-0.5,0.2c-0.2-0.1-0.3-0.2-0.3-0.5c0-0.1,0.2-0.3,0.3-0.2c0,0,0,0,0,0
		c0,0,0,0,0,0c0,0-0.1,0-0.1,0c0,0-0.1,0-0.1,0c0,0,0,0,0,0c0,0.1-0.1,0.1-0.1,0.3C32,11.3,32.1,11.6,32.4,11.7"/>
	<path fill="#FFFFFF" d="M32.4,10.4C32.5,10.3,32.5,10.3,32.4,10.4c0.1,0,0.2,0,0.3,0.1l0.2,0.1c0.1,0.1,0.2,0.1,0.2,0.1
		c0,0,0,0.1,0,0.1c0,0,0,0,0,0c0,0,0,0,0,0c0,0,0.1-0.1,0.1-0.1c0,0,0.1-0.1,0.1-0.2c0,0,0,0,0,0c0,0,0,0,0,0c0,0.1-0.1,0.1-0.1,0.1
		c0,0-0.1-0.1-0.2-0.1l-0.2-0.1c-0.2-0.1-0.2-0.1-0.2-0.1c0,0-0.1-0.1,0-0.1c0,0,0,0,0,0c0,0,0,0,0,0c0,0-0.1,0.1-0.1,0.1
		C32.5,10.2,32.4,10.3,32.4,10.4C32.4,10.4,32.4,10.4,32.4,10.4C32.4,10.4,32.4,10.4,32.4,10.4"/>
	<path fill="#FFFFFF" d="M33.5,9.6l-0.2,0.2l-0.2-0.3c0,0,0,0,0,0l0,0L33.5,9.6z M33.4,10.1c0.1,0.1,0.1,0.1,0,0.2c0,0,0,0,0,0
		c0,0,0,0,0,0c0-0.1,0.1-0.1,0.1-0.1c0,0,0.1-0.1,0.1-0.1c0,0,0,0,0,0c0,0,0,0,0,0c0,0,0,0-0.1,0C33.5,10.1,33.5,10.1,33.4,10.1
		l0-0.2c0,0,0,0,0,0l0.2-0.3c0,0,0,0,0,0l0.2,0.1c0,0,0,0.1,0,0.1c0,0,0,0,0,0c0,0,0,0,0,0c0,0,0.1-0.1,0.1-0.1c0,0,0.1-0.1,0.1-0.1
		c0,0,0-0.1,0-0.1c0,0,0,0,0,0c0,0-0.1,0-0.2,0c-0.2,0-0.7-0.2-0.8-0.2c0,0,0,0-0.1,0c0,0,0,0,0,0.1L33.4,10.1z"/>
	<path fill="#FFFFFF" d="M33.9,8.3c0.1-0.1,0.1-0.1,0.2,0l0.2,0.3c0.2,0.2,0.4,0.2,0.6,0.1c0.2-0.2,0.2-0.4,0-0.6l-0.2-0.2
		c-0.1-0.1-0.1-0.1,0-0.2c0,0,0,0,0,0c0,0,0,0,0,0c0,0-0.1,0.1-0.1,0.1c0,0-0.1,0-0.1,0.1c0,0,0,0,0,0c0,0,0,0,0,0
		c0.1-0.1,0.1,0,0.2,0.1l0.2,0.3C35,8.3,35,8.5,34.9,8.6c-0.2,0.1-0.3,0-0.4-0.1l-0.2-0.3c-0.1-0.1-0.1-0.1,0-0.2c0,0,0,0,0,0
		c0,0,0,0,0,0c0,0-0.1,0.1-0.1,0.1C34,8.1,34,8.2,33.9,8.3C33.9,8.2,33.9,8.2,33.9,8.3C33.9,8.3,33.9,8.3,33.9,8.3"/>
	<path fill="#FFFFFF" d="M35.5,8c0.1,0.1,0,0.1,0,0.2c0,0,0,0,0,0c0,0,0,0,0,0c0.1,0,0.1-0.1,0.1-0.1c0,0,0.1,0,0.1-0.1c0,0,0,0,0,0
		c0,0,0,0,0,0C35.7,8.1,35.6,8,35.5,8l-0.2-0.5l0.9,0.3c0,0,0,0,0.1,0c0,0,0,0,0,0L35.9,7c0-0.1,0-0.1,0-0.1c0,0,0,0,0,0
		c0,0,0,0,0,0c-0.1,0-0.1,0.1-0.1,0.1c0,0-0.1,0-0.1,0.1c0,0,0,0,0,0c0,0,0,0,0,0c0.1,0,0.1,0,0.1,0.1l0.3,0.5l-0.9-0.3
		c0,0-0.1,0-0.1,0c0,0,0,0,0,0.1L35.5,8z"/>
	<path fill="#FFFFFF" d="M36.3,6.8c0.1,0,0.1,0,0.1,0c0,0,0,0.1,0.1,0.2l0.1,0.2c0,0.1,0.1,0.2,0.1,0.3c0,0.1,0,0.1-0.1,0.1
		c0,0,0,0,0,0c0,0,0,0,0,0c0,0,0.1-0.1,0.1-0.1c0,0,0.1,0,0.2-0.1c0,0,0,0,0,0c0,0,0,0,0,0c-0.1,0-0.1,0-0.1,0c0,0-0.1-0.1-0.1-0.3
		L36.7,7c-0.1-0.2-0.1-0.2-0.1-0.2c0-0.1,0-0.1,0.1-0.1c0,0,0,0,0,0c0,0,0,0,0,0c0,0-0.1,0-0.1,0.1C36.4,6.7,36.3,6.7,36.3,6.8
		C36.3,6.7,36.3,6.7,36.3,6.8C36.3,6.8,36.3,6.8,36.3,6.8"/>
	<path fill="#FFFFFF" d="M36.9,6.5c0.1,0,0.1,0,0.2,0.1l0.5,0.7c0,0,0,0,0.1,0c0,0,0,0,0-0.1l0.2-0.8c0-0.1,0-0.1,0.1-0.1
		c0,0,0,0,0,0c0,0,0,0,0,0c0,0-0.1,0-0.1,0c0,0-0.1,0-0.1,0c0,0,0,0,0,0c0,0,0,0,0,0c0,0,0.1,0,0.1,0c0,0,0,0,0,0l-0.1,0.7l-0.3-0.5
		c0,0,0-0.1,0-0.1c0,0,0,0,0,0c0,0,0,0,0,0c0,0,0,0,0,0c-0.1,0-0.1,0-0.2,0C37,6.5,37,6.5,36.9,6.5C36.9,6.5,36.9,6.5,36.9,6.5
		C36.9,6.5,36.9,6.5,36.9,6.5"/>
	<path fill="#FFFFFF" d="M38.2,6.3c0.1,0,0.1,0,0.1,0.1c0,0,0,0.1,0,0.3l0,0.2c0,0.1,0,0.1,0,0.2c0,0.1,0,0.2-0.1,0.2c0,0,0,0,0,0
		c0,0,0,0,0,0c0,0,0.1,0,0.2,0c0.1,0,0.3,0,0.4,0c0,0,0,0,0,0c0,0,0-0.1,0-0.1c0,0,0,0,0,0c0,0,0,0,0,0c0,0.1,0,0.1,0,0.1
		c0,0-0.1,0-0.2,0c-0.1,0-0.1,0-0.1-0.1c0,0,0-0.1,0-0.3c0,0,0,0,0,0c0,0,0.2,0,0.2,0c0.1,0,0.1,0,0.1,0.1c0,0,0,0,0,0c0,0,0,0,0,0
		c0-0.1,0-0.2,0-0.2c0,0,0,0,0,0c0,0,0,0,0,0c0,0,0,0-0.1,0c-0.1,0-0.1,0-0.1,0c0,0,0,0,0,0l0-0.3c0,0,0,0,0,0c0.2,0,0.3,0,0.3,0.1
		c0,0,0,0,0,0c0,0,0,0,0,0c0-0.1,0-0.1,0-0.2c0,0,0,0,0,0c0,0,0,0-0.1,0c0,0-0.3,0-0.3,0C38.3,6.2,38.3,6.2,38.2,6.3
		C38.2,6.2,38.2,6.3,38.2,6.3C38.2,6.3,38.2,6.3,38.2,6.3"/>
	<path fill="#FFFFFF" d="M39.5,6.3C39.5,6.3,39.5,6.3,39.5,6.3c0.2,0,0.3,0.1,0.2,0.2c0,0.1-0.1,0.2-0.2,0.2c-0.1,0-0.1,0-0.1,0
		L39.5,6.3z M39.2,7.2c0,0,0.1,0,0.2,0c0,0,0.1,0,0.2,0c0,0,0,0,0,0c0,0,0,0,0,0c-0.1,0-0.1,0-0.1-0.2l0-0.2l0,0l0.1,0c0,0,0,0,0,0
		c0,0.1,0.1,0.1,0.1,0.2c0.1,0.1,0.2,0.2,0.3,0.2l0.1,0c0,0,0,0,0,0c0,0,0,0,0,0c-0.1,0-0.2-0.1-0.4-0.4c0.1-0.1,0.2-0.2,0.2-0.3
		c0-0.2-0.1-0.2-0.3-0.3c0,0-0.1,0-0.2,0c0,0-0.1,0-0.2,0c0,0,0,0,0,0c0,0,0,0,0,0c0.1,0,0.1,0,0.1,0.1L39.2,7
		C39.2,7.1,39.2,7.1,39.2,7.2C39.1,7.1,39.1,7.1,39.2,7.2C39.1,7.2,39.1,7.2,39.2,7.2"/>
	<path fill="#FFFFFF" d="M40.4,7.4c0.2,0,0.3,0,0.4-0.2c0.1-0.3-0.3-0.4-0.2-0.6c0-0.1,0.1-0.1,0.2-0.1c0.1,0,0.1,0.1,0.1,0.2
		c0,0,0,0,0,0c0,0,0,0,0,0c0-0.1,0-0.1,0-0.1c0,0,0,0,0,0c0,0-0.1,0-0.2-0.1c-0.2,0-0.3,0-0.3,0.2c-0.1,0.3,0.3,0.4,0.2,0.6
		C40.6,7.3,40.5,7.3,40.4,7.4c-0.1-0.1-0.1-0.2-0.1-0.3c0,0,0,0,0,0c0,0,0,0,0,0l0,0.2C40.2,7.3,40.3,7.3,40.4,7.4"/>
	<path fill="#FFFFFF" d="M41,7.5c0,0,0.1,0,0.2,0.1c0,0,0.1,0,0.2,0.1c0,0,0,0,0,0c0,0,0,0,0,0c-0.1,0-0.1,0-0.1-0.1
		c0-0.1,0-0.1,0.1-0.3L41.4,7c0.1-0.2,0.1-0.2,0.1-0.2c0,0,0-0.1,0.1,0c0,0,0,0,0,0c0,0,0,0,0,0c0,0-0.1,0-0.1-0.1
		c0,0-0.1,0-0.2-0.1c0,0,0,0,0,0c0,0,0,0,0,0c0.1,0,0.1,0,0.1,0.1c0,0,0,0.1-0.1,0.3l-0.1,0.2c0,0.1-0.1,0.2-0.1,0.3
		C41.1,7.5,41.1,7.5,41,7.5C41,7.5,41,7.5,41,7.5C41,7.5,41,7.5,41,7.5"/>
	<path fill="#FFFFFF" d="M42,7.6l0.3-0.5c0,0,0,0,0.1,0c0.2,0.1,0.3,0.4,0.2,0.6C42.4,8,42.3,8,42,7.9C41.9,7.8,41.9,7.8,42,7.6
		 M41.6,7.7C41.6,7.7,41.6,7.7,41.6,7.7c0.1,0.1,0.1,0.1,0.2,0.1c0.1,0,0.1,0.1,0.2,0.1c0.3,0.2,0.6,0.1,0.7-0.2
		c0.2-0.3,0-0.5-0.3-0.7C42.3,7,42.3,7,42.2,7c0,0-0.1-0.1-0.2-0.1c0,0,0,0,0,0c0,0,0,0,0,0C42.1,7,42.1,7,42.1,7c0,0,0,0.1-0.1,0.2
		l-0.1,0.2C41.7,7.7,41.7,7.7,41.6,7.7C41.6,7.7,41.6,7.7,41.6,7.7"/>
	<path fill="#FFFFFF" d="M43.4,8.1C43.4,8.1,43.4,8.1,43.4,8.1L43.4,8.1l-0.1,0.4l-0.2-0.2L43.4,8.1z M42.6,8.3
		C42.6,8.3,42.6,8.3,42.6,8.3C42.6,8.3,42.6,8.3,42.6,8.3c0,0.1,0.1,0.1,0.1,0.1c0,0,0.1,0.1,0.1,0.1c0,0,0,0,0,0c0,0,0,0,0,0
		c0,0,0,0,0-0.1c0,0,0,0,0.1,0L43,8.3c0,0,0,0,0,0l0.2,0.2c0,0,0,0,0,0l-0.1,0.2c0,0-0.1,0-0.1,0c0,0,0,0,0,0c0,0,0,0,0,0
		c0,0,0.1,0.1,0.1,0.1c0,0,0.1,0.1,0.1,0.1c0,0,0.1,0,0.1,0c0,0,0,0,0,0c0,0,0-0.1,0-0.2c0.1-0.2,0.2-0.7,0.3-0.8c0,0,0,0,0-0.1
		c0,0,0,0-0.1,0l-0.7,0.4C42.7,8.3,42.7,8.3,42.6,8.3"/>
	<path fill="#FFFFFF" d="M43.9,9.1l0.5-0.4c0,0,0,0,0.1,0c0.2,0.2,0.2,0.5,0,0.6c-0.2,0.2-0.4,0.2-0.6-0.1
		C43.7,9.3,43.8,9.2,43.9,9.1 M43.6,9.1C43.5,9.1,43.5,9.1,43.6,9.1C43.5,9.1,43.5,9.1,43.6,9.1c0,0.1,0.1,0.1,0.1,0.1
		c0,0,0.1,0.1,0.2,0.2c0.2,0.2,0.5,0.3,0.8,0.1c0.3-0.2,0.2-0.5,0-0.8c0-0.1-0.1-0.1-0.1-0.1c0,0-0.1-0.1-0.1-0.1c0,0,0,0,0,0
		c0,0,0,0,0,0c0,0.1,0,0.1,0,0.1c0,0-0.1,0-0.2,0.2l-0.2,0.1C43.6,9.1,43.6,9.1,43.6,9.1"/>
	<path fill="#FFFFFF" d="M44.9,11.3C44.9,11.3,44.9,11.3,44.9,11.3c0.1,0,0.2,0,0.2,0c0,0,0,0,0,0c0,0,0,0,0,0c-0.1,0-0.2,0-0.2-0.2
		c-0.1-0.2,0-0.4,0.2-0.5c0.2-0.1,0.4-0.1,0.5,0.2c0.1,0.1,0.1,0.3-0.1,0.4c0,0,0,0,0,0c0,0,0,0,0,0c0,0,0.1,0,0.1-0.1
		c0,0,0.1,0,0.1,0c0,0,0,0,0,0c0-0.1,0-0.2-0.1-0.3c-0.1-0.3-0.4-0.4-0.7-0.3c-0.3,0.1-0.4,0.5-0.2,0.8
		C44.8,11.2,44.9,11.3,44.9,11.3"/>
	<path fill="#FFFFFF" d="M45.8,11.8L45.8,11.8L45.8,11.8L45.8,11.8L45.4,12l-0.1-0.3L45.8,11.8z M45,11.5C45,11.5,45,11.4,45,11.5
		C45,11.5,45,11.5,45,11.5c0,0.1,0,0.1,0,0.2c0,0,0,0.1,0,0.1c0,0,0,0,0,0c0,0,0,0,0,0c0,0,0-0.1,0-0.1c0,0,0,0,0.1,0l0.1,0
		c0,0,0,0,0,0l0.1,0.3c0,0,0,0,0,0l-0.2,0.1c0,0,0-0.1,0-0.1c0,0,0,0,0,0c0,0,0,0,0,0.1c0,0,0,0.1,0,0.1c0,0,0,0.1,0,0.1
		c0,0.1,0,0.1,0,0.1c0,0,0,0,0,0c0-0.1,0-0.1,0.1-0.2c0.2-0.1,0.6-0.4,0.7-0.5c0,0,0,0,0,0c0,0,0,0-0.1,0l-0.8-0.1
		C45,11.6,45,11.5,45,11.5"/>
	<path fill="#FFFFFF" d="M46,12.4C46,12.4,46,12.5,46,12.4C46,12.5,46,12.5,46,12.4c0,0,0.1,0.1,0.1,0.2l0,0.2l-0.6,0.1
		c-0.2,0-0.2,0-0.2-0.1c0,0,0,0,0,0c0,0,0,0,0,0c0,0,0,0.1,0,0.2c0,0,0,0.1,0,0.2c0,0,0,0,0,0c0,0,0,0,0,0c0-0.1,0-0.1,0.2-0.1
		l0.6,0l0,0.2c0,0.1,0,0.1-0.1,0.2c0,0,0,0,0,0c0,0,0,0,0,0c0,0,0.1,0,0.1,0c0,0,0,0,0,0c0,0,0,0,0-0.1l0-0.6c0-0.1,0-0.1,0-0.1
		c0,0,0,0,0,0C46.1,12.5,46,12.4,46,12.4"/>
	<path fill="#FFFFFF" d="M46.2,14.1c0,0.2-0.2,0.4-0.5,0.3c-0.4,0-0.4-0.2-0.4-0.3c0-0.2,0.2-0.4,0.5-0.3
		C46.1,13.8,46.2,13.9,46.2,14.1 M46.4,14.3c0,0-0.1-0.2-0.2-0.3c0-0.3-0.2-0.5-0.4-0.5c-0.2,0-0.5,0.1-0.5,0.5
		c0,0.3,0.2,0.5,0.5,0.6c0.3,0,0.5-0.2,0.5-0.5C46.2,14.2,46.3,14.4,46.4,14.3C46.3,14.4,46.3,14.4,46.4,14.3
		C46.3,14.4,46.4,14.4,46.4,14.3C46.4,14.4,46.4,14.3,46.4,14.3"/>
	<path fill="#FFFFFF" d="M46,15c0,0.1,0,0.1-0.2,0L45.4,15c-0.2-0.1-0.2-0.1-0.2-0.1c0,0,0,0,0,0c0,0,0,0,0,0c0,0,0,0.1,0,0.2
		c0,0.1-0.1,0.2-0.1,0.4c0,0.1,0,0.1,0,0.1c0,0,0.1,0.1,0.2,0.1c0,0,0,0,0,0c0,0,0,0,0,0c-0.1,0-0.1-0.1-0.1-0.2
		c0-0.2,0.1-0.2,0.2-0.1l0.5,0.1c0.2,0,0.2,0.1,0.1,0.1c0,0,0,0,0,0c0,0,0,0,0,0c0,0,0-0.1,0-0.2C46,15.2,46.1,15.1,46,15
		C46.1,15,46.1,15,46,15C46,15,46,15,46,15"/>
	<path fill="#FFFFFF" d="M45.7,16C45.7,16.1,45.7,16.1,45.7,16c-0.1,0-0.2,0-0.3,0l-0.2-0.1c-0.1,0-0.2-0.1-0.2-0.1c0,0-0.1,0,0-0.1
		c0,0,0,0,0,0c0,0,0,0,0,0c0,0,0,0.1-0.1,0.1c0,0,0,0.1-0.1,0.2c0,0,0,0,0,0c0,0,0,0,0,0c0-0.1,0-0.1,0.1-0.1c0.1,0,0.1,0.1,0.3,0.1
		l0.2,0.1c0.2,0.1,0.2,0.1,0.2,0.1c0.1,0,0.1,0,0,0.1c0,0,0,0,0,0c0,0,0,0,0,0c0,0,0-0.1,0.1-0.1C45.7,16.2,45.7,16.1,45.7,16
		C45.8,16,45.8,16,45.7,16C45.7,16,45.7,16,45.7,16"/>
	<path fill="#FFFFFF" d="M45.1,16.5c-0.3-0.2-0.6,0-0.7,0.3c0,0.1-0.1,0.2-0.1,0.2c0,0,0,0,0,0.1c0,0,0.1,0.1,0.1,0.1c0,0,0,0,0,0
		c0,0,0,0,0,0c-0.1-0.1-0.1-0.2,0-0.3c0.1-0.2,0.3-0.3,0.6-0.1c0.2,0.1,0.3,0.3,0.2,0.5c-0.1,0.1-0.2,0.2-0.3,0.2c0,0,0,0,0,0
		c0,0,0,0,0,0c0,0,0.1,0.1,0.1,0.1c0,0,0,0,0.1,0c0,0,0,0,0,0c0-0.1,0.1-0.1,0.2-0.2C45.4,17,45.3,16.7,45.1,16.5"/>
	<path fill="#FFFFFF" d="M44.4,18L44.4,18L44,17.8l0.2-0.2L44.4,18C44.4,18,44.4,18,44.4,18 M44.1,17.4c0-0.1,0-0.1,0-0.2
		c0,0,0,0,0,0c0,0,0,0,0,0c0,0.1-0.1,0.1-0.1,0.1c0,0-0.1,0.1-0.1,0.1c0,0,0,0,0,0c0,0,0,0,0,0c0,0,0,0,0.1,0
		C44,17.4,44.1,17.4,44.1,17.4l0,0.2c0,0,0,0,0,0l-0.2,0.2c0,0,0,0,0,0l-0.2-0.1c0,0,0-0.1,0-0.1c0,0,0,0,0,0c0,0,0,0,0,0
		c0,0-0.1,0.1-0.1,0.1c0,0-0.1,0.1-0.1,0.1c0,0,0,0.1,0,0.1c0,0,0,0,0,0c0,0,0.1,0,0.2,0c0.2,0.1,0.7,0.2,0.8,0.3c0,0,0.1,0,0.1,0
		c0,0,0,0,0-0.1L44.1,17.4z"/>
	<path fill="#FFFFFF" d="M35.8,19.6c-0.1,0.2-0.3,0.3-0.5,0.1c-0.1-0.1-0.1-0.1-0.1-0.3l0.3-0.5c0,0,0,0,0.1,0
		C35.8,19.1,35.9,19.3,35.8,19.6 M35.6,18.9c-0.1,0-0.1-0.1-0.2-0.1c0,0-0.1-0.1-0.2-0.1c0,0,0,0,0,0c0,0,0,0,0,0
		c0.1,0,0.1,0.1,0,0.1c0,0,0,0.1-0.1,0.2l-0.1,0.2c-0.2,0.3-0.2,0.3-0.2,0.3c0,0,0,0,0,0c0,0,0,0,0,0c0,0,0.1,0.1,0.1,0.1
		c0.1,0,0.1,0.1,0.2,0.2c0.3,0.2,0.6,0.2,0.7-0.1C36.1,19.3,35.9,19.1,35.6,18.9"/>
	<path fill="#FFFFFF" d="M37,19.5c0,0-0.3-0.1-0.3-0.1c0,0-0.1,0-0.2-0.1c0,0,0,0,0,0c0,0,0,0,0,0c0.1,0,0.1,0.1,0.1,0.1
		c0,0,0,0.1-0.1,0.2l-0.1,0.2c0,0.1,0,0.1-0.1,0.2c0,0.1-0.1,0.1-0.1,0.1c0,0,0,0,0,0c0,0,0,0,0,0c0,0,0.1,0,0.2,0.1
		c0.1,0,0.2,0.1,0.4,0.1c0,0,0,0,0.1,0c0,0,0.1-0.1,0.1-0.1c0,0,0,0,0,0c0,0,0,0,0,0c0,0,0,0.1-0.1,0.1c0,0-0.1,0-0.2,0
		c-0.1,0-0.1,0-0.1-0.1c0,0,0.1-0.1,0.1-0.3c0,0,0,0,0,0c0,0,0.1,0.1,0.2,0.1c0.1,0,0,0.1,0,0.1c0,0,0,0,0,0c0,0,0,0,0,0
		c0-0.1,0.1-0.1,0.1-0.2c0,0,0,0,0,0c0,0,0,0,0,0c0,0,0,0-0.1,0c0,0-0.1,0-0.1,0c0,0,0,0,0,0l0.1-0.3c0,0,0,0,0,0
		c0.2,0.1,0.2,0.1,0.2,0.2c0,0,0,0,0,0c0,0,0,0,0,0C37,19.6,37,19.6,37,19.5C37.1,19.5,37.1,19.5,37,19.5C37,19.5,37,19.5,37,19.5"
		/>
	<path fill="#FFFFFF" d="M38.7,19.9c-0.1,0-0.2-0.1-0.3-0.1c-0.3,0-0.6,0.1-0.6,0.4c0,0.4,0.2,0.5,0.5,0.6c0.1,0,0.2,0,0.2,0
		c0,0,0,0,0,0c0,0,0-0.1,0-0.2c0,0,0,0,0,0c0,0,0,0,0,0c0,0.1-0.1,0.1-0.3,0.1c-0.2,0-0.4-0.2-0.3-0.5c0-0.2,0.2-0.4,0.4-0.4
		c0.1,0,0.3,0.1,0.3,0.2c0,0,0,0,0,0c0,0,0,0,0,0C38.7,20.1,38.7,20,38.7,19.9C38.8,19.9,38.8,19.9,38.7,19.9
		C38.8,19.9,38.8,19.9,38.7,19.9"/>
	<path fill="#FFFFFF" d="M40.3,20.7c-0.1,0-0.1,0-0.1-0.1c0-0.1,0-0.2,0-0.3l0-0.2c0-0.2,0-0.2,0-0.3c0-0.1,0-0.1,0.1-0.1
		c0,0,0,0,0,0c0,0,0,0,0,0c-0.1,0-0.1,0-0.2,0c0,0-0.1,0-0.2,0c0,0,0,0,0,0c0,0,0,0,0,0c0.1,0,0.1,0,0.1,0.1c0,0,0,0.1,0,0.3l0,0.1
		c0,0,0,0,0,0l-0.5,0.1c0,0,0,0,0,0l0-0.1c0-0.2,0-0.2,0-0.3c0-0.1,0-0.1,0.1-0.1c0,0,0,0,0,0c0,0,0,0,0,0c0,0-0.1,0-0.2,0
		c0,0-0.1,0-0.2,0c0,0,0,0,0,0c0,0,0,0,0,0c0.1,0,0.1,0,0.1,0.1c0,0,0,0.1,0,0.3l0,0.2c0,0.1,0,0.2,0,0.3c0,0.1,0,0.1-0.1,0.1
		c0,0,0,0,0,0c0,0,0,0,0,0c0.1,0,0.1,0,0.2,0c0,0,0.1,0,0.2,0c0,0,0,0,0,0c0,0,0,0,0,0c-0.1,0-0.1,0-0.1-0.1c0-0.1,0-0.2,0-0.3
		l0-0.1c0,0,0,0,0,0l0.5-0.1c0,0,0,0,0,0l0,0.1c0,0.1,0,0.2,0,0.3c0,0.1,0,0.1-0.1,0.1c0,0,0,0,0,0c0,0,0,0,0,0c0.1,0,0.1,0,0.2,0
		C40.1,20.7,40.2,20.7,40.3,20.7C40.3,20.7,40.3,20.7,40.3,20.7C40.3,20.7,40.3,20.7,40.3,20.7"/>
	<path fill="#FFFFFF" d="M41.2,20.4c-0.1,0-0.1,0-0.1,0c0-0.1,0-0.1-0.1-0.3l-0.1-0.2c-0.1-0.2-0.1-0.2-0.1-0.3c0-0.1,0-0.1,0.1-0.1
		c0,0,0,0,0,0c0,0,0,0,0,0c0,0-0.1,0-0.1,0c0,0-0.1,0-0.2,0c0,0,0,0,0,0c0,0,0,0,0,0c0.1,0,0.1,0,0.1,0c0,0,0,0.1,0.1,0.3l0.1,0.2
		c0,0.1,0.1,0.2,0.1,0.3c0,0.1,0,0.1-0.1,0.1c0,0,0,0,0,0c0,0,0,0,0,0c0,0,0.1,0,0.2-0.1C41,20.5,41.1,20.5,41.2,20.4
		C41.2,20.4,41.2,20.4,41.2,20.4C41.2,20.4,41.2,20.4,41.2,20.4"/>
	<path fill="#FFFFFF" d="M42.2,19.8C42.2,19.8,42.2,19.8,42.2,19.8C42.2,19.8,42.2,19.8,42.2,19.8c0,0.1,0,0.1-0.1,0.2
		c-0.1,0.1-0.2,0.1-0.2-0.1l-0.2-0.4c-0.1-0.1-0.1-0.2,0-0.2c0,0,0,0,0,0c0,0,0,0,0,0c0,0-0.1,0.1-0.2,0.1c0,0-0.1,0-0.2,0.1
		c0,0,0,0,0,0c0,0,0,0,0,0c0.1,0,0.1,0,0.2,0.1l0.2,0.4c0.1,0.2,0.1,0.2,0,0.2c0,0,0,0,0,0c0,0,0,0,0,0c0,0,0.1-0.1,0.1-0.1
		c0.1,0,0.2-0.1,0.3-0.1c0.1,0,0.1,0,0.1-0.1C42.3,19.9,42.2,19.8,42.2,19.8"/>
	<path fill="#FFFFFF" d="M43.2,19.3C43.1,19.2,43.1,19.2,43.2,19.3C43.1,19.3,43.1,19.3,43.2,19.3c0,0.1,0,0.1,0,0.1
		c0,0-0.1,0.1-0.1,0.1c-0.1,0.1-0.1,0.1-0.1,0c0,0-0.1-0.1-0.2-0.2c0,0,0,0,0,0c0,0,0.1-0.1,0.1-0.1c0,0,0.1,0,0.1,0c0,0,0,0,0,0
		c0,0,0,0,0,0c0-0.1-0.1-0.1-0.1-0.2c0,0,0,0,0,0c0,0,0,0,0,0c0,0,0,0-0.1,0.1c0,0-0.1,0.1-0.1,0.1c0,0,0,0,0,0l-0.2-0.3
		c0,0,0,0,0,0c0.2-0.1,0.2-0.1,0.3-0.1c0,0,0,0,0,0c0,0,0,0,0,0c-0.1-0.1-0.1-0.1-0.1-0.1c0,0,0,0,0,0c0,0,0,0-0.1,0.1
		c0,0-0.2,0.2-0.3,0.2c0,0-0.1,0.1-0.2,0.1c0,0,0,0,0,0c0,0,0,0,0,0c0.1,0,0.1,0,0.1,0c0,0,0,0.1,0.1,0.2l0.1,0.2
		c0,0.1,0.1,0.1,0.1,0.2c0.1,0.1,0.1,0.1,0,0.2c0,0,0,0,0,0c0,0,0,0,0,0c0,0,0.1-0.1,0.1-0.1c0.1-0.1,0.2-0.1,0.3-0.2c0,0,0,0,0-0.1
		C43.2,19.4,43.2,19.3,43.2,19.3"/>
</g>
</svg>
