<!-- Generator: Adobe Illustrator 19.1.0, SVG Export Plug-In  -->
<svg version="1.1"
	 xmlns="http://www.w3.org/2000/svg" xmlns:xlink="http://www.w3.org/1999/xlink" xmlns:a="http://ns.adobe.com/AdobeSVGViewerExtensions/3.0/"
	 x="0px" y="0px" width="55px" height="32px" viewBox="0 0 55 32" enable-background="new 0 0 55 32" xml:space="preserve">
<defs>
</defs>
<g>
	<g>
		<path fill="#FFFFFF" d="M27.8,12.3c0-0.6,0-0.7,0-0.9c0-0.1,0-0.2-0.2-0.2c0,0-0.1,0-0.1,0c0,0,0,0,0,0c0,0,0,0,0.1,0
			c0.2,0,0.4,0,0.5,0c0.1,0,0.3,0,0.5,0c0.5,0,0.7,0.2,0.7,0.2c0.1,0.1,0.2,0.3,0.2,0.5c0,0.5-0.4,0.9-1,0.9c0,0-0.1,0-0.1,0
			c0,0,0,0,0,0c0,0,0,0,0.1,0c0.4,0,0.7-0.3,0.7-0.7c0-0.1,0-0.4-0.2-0.6s-0.5-0.2-0.6-0.2c-0.1,0-0.1,0-0.2,0c0,0,0,0,0,0.1V13
			c0,0.4,0,0.7,0,0.9c0,0.1,0,0.2,0.2,0.2c0.1,0,0.1,0,0.2,0c0,0,0,0,0,0c0,0,0,0-0.1,0c-0.2,0-0.5,0-0.5,0c0,0-0.3,0-0.4,0
			c0,0-0.1,0-0.1,0c0,0,0,0,0,0c0,0,0.1,0,0.1,0c0.1,0,0.1-0.1,0.1-0.2c0-0.2,0-0.5,0-0.9V12.3z"/>
		<path fill="#FFFFFF" d="M29.7,12.8c0-0.5,0.4-1.3,1.4-1.3c0.8,0,1.4,0.5,1.4,1.3c0,0.8-0.6,1.4-1.4,1.4
			C30.1,14.2,29.7,13.4,29.7,12.8z M32.2,12.9c0-0.8-0.5-1.3-1.1-1.3c-0.6,0-1,0.3-1,1.1c0,0.8,0.4,1.3,1.1,1.3
			C31.5,14,32.2,13.9,32.2,12.9z"/>
		<path fill="#FFFFFF" d="M33.2,11.7c0-0.1,0-0.2,0-0.2c0,0,0.1,0.1,0.1,0.1c0,0,0.6,0.6,1.2,1.2c0.3,0.3,0.7,0.7,0.8,0.8l0-1.7
			c0-0.2,0-0.3-0.1-0.3c-0.1,0-0.1,0-0.2,0c0,0,0,0,0,0c0,0,0,0,0.1,0c0.2,0,0.3,0,0.4,0c0,0,0.2,0,0.3,0c0,0,0.1,0,0.1,0
			c0,0,0,0,0,0c0,0-0.1,0-0.1,0c-0.1,0-0.1,0.1-0.1,0.3l0,2c0,0.2,0,0.2,0,0.2c0,0-0.1,0-0.3-0.2c0,0-0.6-0.6-0.9-0.9
			c-0.4-0.4-0.8-0.9-0.9-1l0.1,1.6c0,0.3,0,0.4,0.1,0.4c0.1,0,0.1,0,0.2,0c0,0,0,0,0,0c0,0,0,0-0.1,0c-0.2,0-0.4,0-0.4,0
			c0,0-0.2,0-0.4,0c0,0-0.1,0-0.1,0c0,0,0,0,0.1,0c0,0,0.1,0,0.1,0c0.1,0,0.1-0.1,0.1-0.4C33.2,11.7,33.2,12.3,33.2,11.7z"/>
		<path fill="#FFFFFF" d="M37.4,13.1c0,0.3,0,0.6,0,0.7c0,0.1,0,0.2,0.1,0.2c0,0,0.1,0,0.2,0c0,0,0,0,0,0c0,0,0,0-0.1,0
			c-0.2,0-0.4,0-0.5,0s-0.3,0-0.4,0c0,0-0.1,0-0.1,0c0,0,0,0,0,0c0,0,0.1,0,0.1,0c0.1,0,0.1-0.1,0.1-0.2c0-0.1,0-0.4,0-0.7v-1.4
			c-0.1,0-0.3,0-0.5,0c-0.3,0-0.3,0-0.4,0.1c0,0.1-0.1,0.1-0.1,0.1c0,0,0,0,0,0c0,0,0,0,0,0c0,0,0.1-0.3,0.1-0.4c0,0,0-0.1,0-0.1
			c0,0,0.1,0,0.2,0c0.1,0,0.3,0,0.3,0h1.3c0.1,0,0.2,0,0.3,0c0.1,0,0.1,0,0.1,0c0,0,0,0,0,0c0,0.1,0,0.4,0,0.4c0,0,0,0,0,0
			c0,0,0,0,0,0c0,0,0,0,0-0.1c0-0.2-0.1-0.2-0.5-0.2c-0.2,0-0.3,0-0.4,0V13.1z"/>
		<path fill="#FFFFFF" d="M38.9,12.5c0-0.5,0-0.6,0-0.7c0-0.1,0-0.2-0.1-0.2c0,0-0.1,0-0.1,0c0,0,0,0,0,0c0,0,0,0,0.1,0
			c0.1,0,0.4,0,0.4,0c0,0,0.2,0,0.4,0c0,0,0.1,0,0.1,0c0,0,0,0,0,0c0,0,0,0-0.1,0c-0.1,0-0.1,0.1-0.1,0.2c0,0.1,0,0.2,0,0.7v0.6
			c0,0.3,0,0.6,0,0.7c0,0.1,0,0.2,0.1,0.2c0.1,0,0.1,0,0.2,0c0,0,0,0,0,0c0,0,0,0-0.1,0c-0.2,0-0.4,0-0.5,0c0,0-0.2,0-0.4,0
			c0,0-0.1,0-0.1,0c0,0,0,0,0.1,0c0,0,0.1,0,0.1,0c0.1,0,0.1-0.1,0.1-0.2c0-0.1,0-0.4,0-0.7V12.5z"/>
		<path fill="#FFFFFF" d="M40.4,12.5c0-0.5,0-0.6,0-0.7c0-0.1,0-0.2-0.2-0.2c0,0-0.1,0-0.1,0c0,0-0.1,0-0.1,0c0,0,0,0,0.1,0
			c0.1,0,0.3,0,0.4,0c0.1,0,0.8,0,0.9,0c0.1,0,0.1,0,0.2,0c0,0,0,0,0,0c0,0,0,0,0,0c0,0,0,0.1,0,0.1c0,0.1,0,0.2,0,0.3
			c0,0,0,0.1,0,0.1c0,0,0,0,0,0c0,0,0-0.2-0.1-0.2c-0.1,0-0.1-0.1-0.2-0.1c-0.2,0-0.3,0-0.5,0c0,0,0,0,0,0v0.9c0,0,0,0,0,0
			c0.2,0,0.4,0,0.5,0c0.2,0,0.2,0,0.3-0.1c0,0,0,0,0,0c0,0,0,0,0,0c0,0,0,0.1,0,0.2c0,0.1,0,0.2,0,0.2c0,0,0,0.1,0,0.1
			c0,0,0,0,0-0.1c0-0.1,0-0.2-0.2-0.2c-0.1,0-0.4,0-0.5,0c0,0,0,0,0,0v0.3c0,0.3,0,0.5,0,0.7c0,0.2,0,0.2,0.1,0.2c0.1,0,0.1,0,0.1,0
			c0,0,0,0,0,0c0,0,0,0-0.1,0c-0.2,0-0.4,0-0.4,0h0c-0.1,0-0.2,0-0.3,0c0,0-0.1,0-0.1,0c0,0,0,0,0,0c0,0,0.1,0,0.1,0
			c0.1,0,0.1-0.1,0.1-0.2c0-0.1,0-0.4,0-0.7V12.5z"/>
		<path fill="#FFFFFF" d="M42.4,12.5c0-0.5,0-0.6,0-0.7c0-0.1,0-0.2-0.1-0.2c0,0-0.1,0-0.1,0c0,0,0,0,0,0c0,0,0,0,0.1,0
			c0.1,0,0.4,0,0.4,0c0,0,0.2,0,0.4,0c0,0,0.1,0,0.1,0c0,0,0,0,0,0c0,0,0,0-0.1,0c-0.1,0-0.1,0.1-0.1,0.2c0,0.1,0,0.2,0,0.7v0.6
			c0,0.3,0,0.6,0,0.7c0,0.1,0,0.2,0.1,0.2c0.1,0,0.1,0,0.2,0c0,0,0,0,0,0c0,0,0,0-0.1,0c-0.2,0-0.4,0-0.5,0c0,0-0.2,0-0.4,0
			c0,0-0.1,0-0.1,0c0,0,0,0,0.1,0c0,0,0.1,0,0.1,0c0.1,0,0.1-0.1,0.1-0.2c0-0.1,0-0.4,0-0.7V12.5z"/>
		<path fill="#FFFFFF" d="M43.8,13.8c-0.3-0.3-0.4-0.7-0.4-1c0-0.2,0.1-0.6,0.4-0.9c0.2-0.2,0.5-0.4,1.1-0.4c0.2,0,0.3,0,0.5,0
			c0.1,0,0.3,0,0.4,0c0,0,0,0,0,0c0,0,0,0.1,0,0.2c0,0.1,0,0.3,0,0.4c0,0.1,0,0.1,0,0.1c0,0,0,0,0-0.1c0-0.1-0.1-0.3-0.2-0.4
			c-0.1-0.1-0.4-0.2-0.7-0.2c-0.4,0-0.7,0.1-0.8,0.2c-0.3,0.2-0.3,0.5-0.3,0.9c0,0.7,0.5,1.3,1.3,1.3c0.3,0,0.5,0,0.6-0.2
			c0.1-0.1,0.1-0.2,0.1-0.3c0,0,0-0.1,0-0.1c0,0,0,0,0,0.1c0,0-0.1,0.4-0.1,0.4c0,0.1,0,0.1-0.1,0.1c-0.1,0.1-0.4,0.1-0.6,0.1
			C44.5,14.2,44.1,14.1,43.8,13.8z"/>
		<path fill="#FFFFFF" d="M46.5,12.5c0-0.5,0-0.6,0-0.7c0-0.1,0-0.2-0.1-0.2c0,0-0.1,0-0.1,0c0,0,0,0,0,0c0,0,0,0,0.1,0
			c0.1,0,0.4,0,0.4,0c0,0,0.2,0,0.4,0c0,0,0.1,0,0.1,0c0,0,0,0,0,0c0,0,0,0-0.1,0c-0.1,0-0.1,0.1-0.1,0.2c0,0.1,0,0.2,0,0.7v0.6
			c0,0.3,0,0.6,0,0.7c0,0.1,0,0.2,0.1,0.2c0.1,0,0.1,0,0.2,0c0,0,0,0,0,0c0,0,0,0-0.1,0c-0.2,0-0.4,0-0.5,0c0,0-0.2,0-0.4,0
			c0,0-0.1,0-0.1,0c0,0,0,0,0.1,0c0,0,0.1,0,0.1,0c0.1,0,0.1-0.1,0.1-0.2c0-0.1,0-0.4,0-0.7V12.5z"/>
		<path fill="#FFFFFF" d="M48.2,13.1C48.2,13.1,48.2,13.2,48.2,13.1L48,13.7c0,0.1-0.1,0.2-0.1,0.3c0,0.1,0,0.1,0.1,0.1c0,0,0,0,0,0
			c0,0,0,0,0,0c0,0,0,0-0.1,0c-0.1,0-0.3,0-0.3,0c0,0-0.2,0-0.4,0c0,0-0.1,0-0.1,0c0,0,0,0,0,0c0,0,0.1,0,0.1,0
			c0.2,0,0.2-0.1,0.3-0.3l0.8-2.1c0-0.1,0.1-0.1,0.1-0.1c0,0,0,0,0.1,0.1c0.1,0.1,0.6,1.5,0.8,2c0.1,0.3,0.2,0.4,0.3,0.4
			c0.1,0,0.1,0,0.1,0c0,0,0,0,0,0c0,0,0,0-0.1,0c0,0-0.3,0-0.6,0c-0.1,0-0.1,0-0.1,0c0,0,0,0,0,0c0,0,0,0,0-0.1l-0.3-0.8
			c0,0,0,0,0,0H48.2z M48.9,13C48.9,13,48.9,13,48.9,13l-0.3-0.9c0-0.1,0-0.1,0,0L48.2,13c0,0,0,0,0,0H48.9z"/>
		<path fill="#FFFFFF" d="M27.9,17.6c0,0.6,0.1,0.8,0.3,1c0.2,0.2,0.4,0.2,0.6,0.2c0.2,0,0.5-0.1,0.6-0.3c0.2-0.2,0.2-0.6,0.2-1
			v-0.5c0-0.6,0-0.7,0-0.9c0-0.1,0-0.2-0.2-0.2c0,0-0.1,0-0.1,0c0,0,0,0,0,0c0,0,0,0,0.1,0c0.2,0,0.4,0,0.4,0c0,0,0.2,0,0.3,0
			c0,0,0.1,0,0.1,0c0,0,0,0,0,0c0,0-0.1,0-0.1,0c-0.1,0-0.1,0.1-0.1,0.2c0,0.1,0,0.2,0,0.9v0.4c0,0.4,0,0.9-0.4,1.2
			C29.3,19,29,19,28.7,19c-0.1,0-0.5,0-0.8-0.3c-0.2-0.2-0.4-0.5-0.4-1.1v-0.6c0-0.6,0-0.7,0-0.9c0-0.1,0-0.2-0.2-0.2
			c0,0-0.1,0-0.1,0c0,0,0,0,0,0c0,0,0,0,0.1,0c0.2,0,0.4,0,0.5,0c0,0,0.3,0,0.4,0c0,0,0.1,0,0.1,0c0,0,0,0,0,0c0,0-0.1,0-0.1,0
			c-0.1,0-0.1,0.1-0.1,0.2c0,0.1,0,0.2,0,0.9V17.6z"/>
		<path fill="#FFFFFF" d="M30.9,16.5c0-0.1,0-0.2,0-0.2c0,0,0.1,0.1,0.1,0.1c0,0,0.6,0.6,1.2,1.2c0.3,0.3,0.7,0.7,0.8,0.8l0-1.7
			c0-0.2,0-0.3-0.1-0.3c-0.1,0-0.1,0-0.2,0c0,0,0,0,0,0c0,0,0,0,0.1,0c0.2,0,0.3,0,0.4,0c0,0,0.2,0,0.3,0c0,0,0.1,0,0.1,0
			c0,0,0,0,0,0c0,0-0.1,0-0.1,0c-0.1,0-0.1,0.1-0.1,0.3l0,2c0,0.2,0,0.2,0,0.2c0,0-0.1,0-0.3-0.2c0,0-0.6-0.6-0.9-0.9
			c-0.4-0.4-0.8-0.9-0.9-1l0.1,1.6c0,0.3,0,0.4,0.1,0.4c0.1,0,0.1,0,0.2,0c0,0,0,0,0,0c0,0,0,0-0.1,0c-0.2,0-0.4,0-0.4,0
			c0,0-0.2,0-0.4,0c0,0-0.1,0-0.1,0c0,0,0,0,0.1,0c0,0,0.1,0,0.1,0c0.1,0,0.1-0.1,0.1-0.4C30.9,16.5,30.9,17.2,30.9,16.5z"/>
		<path fill="#FFFFFF" d="M34.4,17.4c0-0.5,0-0.6,0-0.7c0-0.1,0-0.2-0.1-0.2c0,0-0.1,0-0.1,0c0,0,0,0,0,0c0,0,0,0,0.1,0
			c0.1,0,0.4,0,0.4,0c0,0,0.2,0,0.4,0c0,0,0.1,0,0.1,0c0,0,0,0,0,0c0,0,0,0-0.1,0c-0.1,0-0.1,0.1-0.1,0.2c0,0.1,0,0.2,0,0.7V18
			c0,0.3,0,0.6,0,0.7c0,0.1,0,0.2,0.1,0.2c0.1,0,0.1,0,0.2,0c0,0,0,0,0,0c0,0,0,0-0.1,0c-0.2,0-0.4,0-0.5,0c0,0-0.2,0-0.4,0
			c0,0-0.1,0-0.1,0c0,0,0,0,0.1,0c0,0,0.1,0,0.1,0c0.1,0,0.1-0.1,0.1-0.2c0-0.1,0-0.4,0-0.7V17.4z"/>
		<path fill="#FFFFFF" d="M35.6,16.7c-0.1-0.2-0.1-0.2-0.3-0.3c-0.1,0-0.1,0-0.1,0c0,0,0,0,0,0c0,0,0,0,0.1,0c0.2,0,0.4,0,0.5,0
			c0,0,0.2,0,0.4,0c0,0,0.1,0,0.1,0c0,0,0,0-0.1,0c-0.1,0-0.1,0-0.1,0c0,0,0,0,0,0.1c0,0,0,0.1,0.1,0.2l0.7,1.8
			c0.2-0.4,0.7-1.6,0.7-1.9c0-0.1,0-0.1,0-0.1c0,0,0-0.1,0-0.1c0,0-0.1,0-0.1,0c0,0-0.1,0-0.1,0c0,0,0,0,0.1,0c0.1,0,0.3,0,0.4,0
			c0,0,0.2,0,0.3,0c0,0,0.1,0,0.1,0c0,0,0,0,0,0c0,0-0.1,0-0.2,0c0,0-0.1,0.1-0.2,0.3c0,0-0.2,0.5-0.4,0.9c-0.2,0.5-0.4,0.9-0.4,1
			c-0.1,0.2-0.1,0.3-0.2,0.3c0,0-0.1,0-0.1-0.2L35.6,16.7z"/>
		<path fill="#FFFFFF" d="M38.5,17.4c0-0.5,0-0.6,0-0.7c0-0.1,0-0.2-0.2-0.2c0,0-0.1,0-0.1,0c0,0-0.1,0-0.1,0c0,0,0,0,0.1,0
			c0.1,0,0.2,0,0.4,0c0,0,0.7,0,0.8,0c0.1,0,0.1,0,0.2,0c0,0,0,0,0,0c0,0,0,0,0,0c0,0,0,0.1,0,0.2c0,0.1,0,0.1,0,0.2
			c0,0,0,0.1,0,0.1c0,0,0,0,0,0c0-0.1,0-0.1,0-0.1c0-0.1-0.1-0.1-0.3-0.1c-0.1,0-0.5,0-0.5,0c0,0,0,0,0,0v0.9c0,0,0,0,0,0
			c0,0,0.5,0,0.5,0c0.1,0,0.2,0,0.2-0.1c0,0,0,0,0,0c0,0,0,0,0,0c0,0,0,0.1,0,0.2c0,0.1,0,0.2,0,0.2c0,0,0,0,0,0c0,0,0,0,0-0.1
			c0,0,0-0.1,0-0.1c0-0.1,0-0.1-0.2-0.1c-0.1,0-0.4,0-0.5,0c0,0,0,0,0,0V18c0,0.1,0,0.5,0,0.5c0,0.1,0,0.2,0.1,0.3
			c0.1,0,0.2,0,0.3,0c0.1,0,0.2,0,0.3,0c0.1,0,0.1-0.1,0.2-0.3c0,0,0-0.1,0-0.1c0,0,0,0,0,0.1c0,0,0,0.3,0,0.4c0,0.1,0,0.1-0.2,0.1
			c-0.3,0-0.4,0-0.5,0c-0.1,0-0.3,0-0.5,0c-0.1,0-0.2,0-0.3,0c0,0-0.1,0-0.1,0c0,0,0,0,0,0c0,0,0.1,0,0.1,0c0.1,0,0.1-0.1,0.1-0.3
			c0-0.1,0-0.3,0-0.6V17.4z"/>
		<path fill="#FFFFFF" d="M40.6,17.4c0-0.5,0-0.6,0-0.7c0-0.1,0-0.2-0.2-0.2c0,0-0.1,0-0.1,0c0,0,0,0,0,0c0,0,0,0,0,0
			c0.2,0,0.4,0,0.4,0c0,0,0.3,0,0.4,0c0.2,0,0.5,0,0.7,0.2c0.1,0.1,0.2,0.2,0.2,0.5c0,0.2-0.1,0.5-0.4,0.8c0.3,0.4,0.5,0.7,0.7,0.9
			c0.2,0.2,0.3,0.2,0.4,0.2c0,0,0.1,0,0.1,0c0,0,0,0,0,0c0,0,0,0-0.1,0h-0.3c-0.2,0-0.3,0-0.4,0c-0.2-0.1-0.3-0.3-0.5-0.5
			c-0.2-0.2-0.3-0.4-0.4-0.5c0,0,0,0,0,0l-0.4,0c0,0,0,0,0,0v0.1c0,0.3,0,0.6,0,0.8c0,0.1,0,0.2,0.2,0.2c0,0,0.1,0,0.1,0
			c0,0,0.1,0,0.1,0c0,0,0,0-0.1,0c-0.2,0-0.4,0-0.5,0c-0.1,0-0.2,0-0.4,0c0,0-0.1,0-0.1,0c0,0,0,0,0,0c0,0,0.1,0,0.1,0
			c0.1,0,0.1-0.1,0.1-0.2c0-0.1,0-0.5,0-0.8V17.4z M40.9,17.6C40.9,17.7,40.9,17.7,40.9,17.6c0.1,0.1,0.2,0.1,0.4,0.1
			c0.1,0,0.2,0,0.3-0.1c0.1-0.1,0.2-0.3,0.2-0.5c0-0.4-0.2-0.7-0.6-0.7c-0.1,0-0.2,0-0.2,0c0,0,0,0,0,0V17.6z"/>
		<path fill="#FFFFFF" d="M43.2,18.9c-0.1,0-0.1,0-0.1-0.1c0-0.2,0-0.3,0-0.4c0,0,0-0.1,0-0.1c0,0,0,0,0,0c0,0,0,0.1,0,0.1
			c0.1,0.3,0.3,0.4,0.5,0.4c0.3,0,0.5-0.2,0.5-0.4c0-0.2-0.1-0.4-0.4-0.6l-0.2-0.1c-0.4-0.3-0.5-0.5-0.5-0.8c0-0.4,0.3-0.6,0.7-0.6
			c0.1,0,0.2,0,0.3,0c0.1,0,0.1,0,0.1,0c0,0,0,0,0,0c0,0,0,0.2,0,0.4c0,0.1,0,0.1,0,0.1c0,0,0,0,0,0c0,0,0-0.1,0-0.2
			c0,0-0.1-0.2-0.5-0.2c-0.2,0-0.4,0.1-0.4,0.4c0,0.2,0.1,0.3,0.4,0.6l0.1,0.1c0.4,0.3,0.5,0.5,0.5,0.8c0,0.1-0.1,0.4-0.3,0.6
			C44.1,19,43.9,19,43.7,19C43.5,19,43.4,19,43.2,18.9z"/>
		<path fill="#FFFFFF" d="M45.4,17.4c0-0.5,0-0.6,0-0.7c0-0.1,0-0.2-0.1-0.2c0,0-0.1,0-0.1,0c0,0,0,0,0,0c0,0,0,0,0.1,0
			c0.1,0,0.4,0,0.4,0c0,0,0.2,0,0.4,0c0,0,0.1,0,0.1,0c0,0,0,0,0,0c0,0,0,0-0.1,0c-0.1,0-0.1,0.1-0.1,0.2c0,0.1,0,0.2,0,0.7V18
			c0,0.3,0,0.6,0,0.7c0,0.1,0,0.2,0.1,0.2c0.1,0,0.1,0,0.2,0c0,0,0,0,0,0c0,0,0,0-0.1,0c-0.2,0-0.4,0-0.5,0c0,0-0.2,0-0.4,0
			c0,0-0.1,0-0.1,0c0,0,0,0,0.1,0c0,0,0.1,0,0.1,0c0.1,0,0.1-0.1,0.1-0.2c0-0.1,0-0.4,0-0.7V17.4z"/>
		<path fill="#FFFFFF" d="M46.9,17.4c0-0.5,0-0.6,0-0.7c0-0.1,0-0.2-0.2-0.2c0,0-0.1,0-0.1,0c0,0,0,0,0,0c0,0,0,0,0.1,0
			c0.2,0,0.4,0,0.4,0c0,0,0.2,0,0.5,0c0.4,0,1,0,1.4,0.4c0.2,0.2,0.3,0.5,0.3,0.9c0,0.4-0.2,0.8-0.4,1c-0.2,0.2-0.5,0.4-1.1,0.4
			c-0.2,0-0.4,0-0.5,0c-0.2,0-0.3,0-0.3,0c0,0-0.1,0-0.1,0c-0.1,0-0.2,0-0.2,0c0,0-0.1,0-0.1,0c0,0,0,0,0,0c0,0,0.1,0,0.1,0
			c0.1,0,0.1-0.1,0.1-0.2c0-0.1,0-0.4,0-0.7V17.4z M47.3,17.7c0,0.4,0,0.7,0,0.7c0,0.1,0,0.2,0,0.3c0,0.1,0.2,0.2,0.6,0.2
			c0.3,0,0.6-0.1,0.8-0.3c0.2-0.2,0.3-0.5,0.3-0.8c0-0.5-0.2-0.7-0.3-0.9c-0.3-0.3-0.7-0.4-1.1-0.4c-0.1,0-0.2,0-0.2,0
			c0,0,0,0,0,0.1c0,0.1,0,0.5,0,0.7V17.7z"/>
		<path fill="#FFFFFF" d="M50.3,18C50.3,18,50.3,18,50.3,18l-0.2,0.5c0,0.1-0.1,0.2-0.1,0.3c0,0.1,0,0.1,0.1,0.1c0,0,0,0,0,0
			c0,0,0,0,0,0c0,0,0,0-0.1,0c-0.1,0-0.3,0-0.3,0c0,0-0.2,0-0.4,0c0,0-0.1,0-0.1,0c0,0,0,0,0,0c0,0,0.1,0,0.1,0
			c0.2,0,0.2-0.1,0.3-0.3l0.8-2.1c0-0.1,0.1-0.1,0.1-0.1c0,0,0,0,0.1,0.1c0.1,0.1,0.6,1.5,0.8,2c0.1,0.3,0.2,0.4,0.3,0.4
			c0.1,0,0.1,0,0.1,0c0,0,0,0,0,0c0,0,0,0-0.1,0c0,0-0.3,0-0.6,0c-0.1,0-0.1,0-0.1,0c0,0,0,0,0,0c0,0,0,0,0-0.1L51.1,18c0,0,0,0,0,0
			H50.3z M51,17.8C51,17.8,51,17.8,51,17.8l-0.3-0.9c0-0.1,0-0.1,0,0l-0.3,0.9c0,0,0,0,0,0H51z"/>
		<path fill="#FFFFFF" d="M52.6,17.4c0-0.5,0-0.6,0-0.7c0-0.1,0-0.2-0.2-0.2c0,0-0.1,0-0.1,0c0,0,0,0,0,0c0,0,0,0,0.1,0
			c0.2,0,0.4,0,0.4,0c0,0,0.2,0,0.5,0c0.4,0,1,0,1.4,0.4c0.2,0.2,0.3,0.5,0.3,0.9c0,0.4-0.2,0.8-0.4,1c-0.2,0.2-0.5,0.4-1.1,0.4
			c-0.2,0-0.4,0-0.5,0c-0.2,0-0.3,0-0.3,0c0,0-0.1,0-0.1,0c-0.1,0-0.2,0-0.2,0c0,0-0.1,0-0.1,0c0,0,0,0,0,0c0,0,0.1,0,0.1,0
			c0.1,0,0.1-0.1,0.1-0.2c0-0.1,0-0.4,0-0.7V17.4z M53,17.7c0,0.4,0,0.7,0,0.7c0,0.1,0,0.2,0,0.3c0,0.1,0.2,0.2,0.6,0.2
			c0.3,0,0.6-0.1,0.8-0.3c0.2-0.2,0.3-0.5,0.3-0.8c0-0.5-0.2-0.7-0.3-0.9c-0.3-0.3-0.7-0.4-1.1-0.4c-0.1,0-0.2,0-0.2,0
			c0,0,0,0,0,0.1c0,0.1,0,0.5,0,0.7V17.7z"/>
		<path fill="#FFFFFF" d="M27.8,23.4c-0.4-0.4-0.5-0.8-0.5-1.2c0-0.3,0.1-0.7,0.5-1.1c0.2-0.2,0.6-0.4,1.2-0.4c0.2,0,0.4,0,0.6,0
			c0.2,0,0.3,0,0.4,0.1c0,0,0,0,0,0c0,0,0,0.1,0,0.2c0,0.1,0,0.4,0,0.4c0,0.1,0,0.1,0,0.1c0,0,0,0,0-0.1c0-0.2-0.1-0.3-0.2-0.4
			c-0.1-0.1-0.5-0.2-0.8-0.2c-0.5,0-0.8,0.2-0.9,0.3c-0.3,0.3-0.4,0.6-0.4,1.1c0,0.8,0.6,1.5,1.5,1.5c0.3,0,0.5,0,0.7-0.2
			c0.1-0.1,0.1-0.3,0.1-0.3c0,0,0-0.1,0-0.1c0,0,0,0,0,0.1c0,0,0,0.4-0.1,0.5c0,0.1,0,0.1-0.1,0.1c-0.2,0.1-0.5,0.1-0.7,0.1
			C28.5,23.9,28.1,23.7,27.8,23.4z"/>
		<path fill="#FFFFFF" d="M31.2,22.8C31.2,22.8,31.2,22.8,31.2,22.8L31,23.3c0,0.1-0.1,0.2-0.1,0.3c0,0.1,0,0.1,0.1,0.1c0,0,0,0,0,0
			c0,0,0,0,0,0c0,0,0,0-0.1,0c-0.1,0-0.3,0-0.3,0c0,0-0.2,0-0.4,0c0,0-0.1,0-0.1,0c0,0,0,0,0,0c0,0,0.1,0,0.1,0
			c0.2,0,0.2-0.1,0.3-0.3l0.8-2.1c0-0.1,0.1-0.1,0.1-0.1c0,0,0,0,0.1,0.1c0.1,0.1,0.6,1.5,0.8,2c0.1,0.3,0.2,0.4,0.3,0.4
			c0.1,0,0.1,0,0.1,0c0,0,0,0,0,0c0,0,0,0-0.1,0c0,0-0.3,0-0.6,0c-0.1,0-0.1,0-0.1,0c0,0,0,0,0,0c0,0,0,0,0-0.1L32,22.8c0,0,0,0,0,0
			H31.2z M31.9,22.7C31.9,22.7,31.9,22.7,31.9,22.7l-0.3-0.9c0-0.1,0-0.1,0,0l-0.3,0.9c0,0,0,0,0,0H31.9z"/>
		<path fill="#FFFFFF" d="M34,22.8c0,0.3,0,0.6,0,0.7c0,0.1,0,0.2,0.1,0.2c0,0,0.1,0,0.2,0c0,0,0,0,0,0c0,0,0,0-0.1,0
			c-0.2,0-0.4,0-0.5,0c0,0-0.3,0-0.4,0c0,0-0.1,0-0.1,0c0,0,0,0,0,0c0,0,0.1,0,0.1,0c0.1,0,0.1-0.1,0.1-0.2c0-0.1,0-0.4,0-0.7v-1.4
			c-0.1,0-0.3,0-0.5,0c-0.3,0-0.3,0-0.4,0.1c0,0.1-0.1,0.1-0.1,0.1c0,0,0,0,0,0c0,0,0,0,0,0c0,0,0.1-0.3,0.1-0.4c0,0,0-0.1,0-0.1
			c0,0,0.1,0,0.2,0c0.1,0,0.3,0,0.3,0h1.3c0.1,0,0.2,0,0.3,0c0.1,0,0.1,0,0.1,0c0,0,0,0,0,0c0,0.1,0,0.4,0,0.4c0,0,0,0,0,0
			c0,0,0,0,0,0c0,0,0,0,0-0.1c0-0.2-0.1-0.2-0.5-0.2c-0.2,0-0.3,0-0.4,0V22.8z"/>
		<path fill="#FFFFFF" d="M35.2,22.5c0-0.5,0.4-1.3,1.4-1.3c0.8,0,1.4,0.5,1.4,1.3c0,0.8-0.6,1.4-1.4,1.4
			C35.6,23.8,35.2,23.1,35.2,22.5z M37.6,22.5c0-0.8-0.5-1.3-1.1-1.3c-0.6,0-1,0.3-1,1.1c0,0.8,0.4,1.3,1.1,1.3
			C36.9,23.7,37.6,23.6,37.6,22.5z M37.1,20.5C37.2,20.6,37.1,20.6,37.1,20.5c0,0.1-0.1,0.1-0.2,0.1c-0.2,0.1-0.4,0.2-0.5,0.3
			c0,0-0.1,0.1-0.1,0c0,0,0,0,0,0c0.1-0.1,0.3-0.4,0.4-0.4c0,0,0.1-0.1,0.1-0.1c0,0,0,0,0.1,0C37,20.4,37.1,20.5,37.1,20.5z"/>
		<path fill="#FFFFFF" d="M39.1,22.8c0,0.5,0,0.7,0.1,0.8c0.1,0.1,0.1,0.1,0.4,0.1c0.2,0,0.3,0,0.4-0.1c0-0.1,0.1-0.1,0.1-0.2
			c0,0,0,0,0,0c0,0,0,0,0,0.1s0,0.3,0,0.4c0,0.1,0,0.1-0.2,0.1c-0.3,0-0.6,0-1,0c-0.1,0-0.2,0-0.4,0c0,0-0.1,0-0.1,0c0,0,0,0,0,0
			c0,0,0.1,0,0.1,0c0.1,0,0.1-0.1,0.1-0.2c0-0.2,0-0.4,0-0.7v-0.6c0-0.5,0-0.6,0-0.7c0-0.1,0-0.2-0.2-0.2c0,0-0.1,0-0.1,0
			c0,0,0,0,0,0c0,0,0,0,0.1,0c0.2,0,0.4,0,0.4,0c0.1,0,0.3,0,0.4,0c0,0,0.1,0,0.1,0c0,0,0,0,0,0c0,0-0.1,0-0.1,0
			c-0.1,0-0.1,0.1-0.1,0.2c0,0.1,0,0.2,0,0.7V22.8z"/>
		<path fill="#FFFFFF" d="M40.9,22.2c0-0.5,0-0.6,0-0.7c0-0.1,0-0.2-0.1-0.2c0,0-0.1,0-0.1,0c0,0,0,0,0,0c0,0,0,0,0.1,0
			c0.1,0,0.4,0,0.4,0c0,0,0.2,0,0.4,0c0,0,0.1,0,0.1,0c0,0,0,0,0,0c0,0,0,0-0.1,0c-0.1,0-0.1,0.1-0.1,0.2c0,0.1,0,0.2,0,0.7v0.6
			c0,0.3,0,0.6,0,0.7c0,0.1,0,0.2,0.1,0.2c0.1,0,0.1,0,0.2,0c0,0,0,0,0,0c0,0,0,0-0.1,0c-0.2,0-0.4,0-0.5,0c0,0-0.2,0-0.4,0
			c0,0-0.1,0-0.1,0c0,0,0,0,0.1,0c0,0,0.1,0,0.1,0c0.1,0,0.1-0.1,0.1-0.2c0-0.1,0-0.4,0-0.7V22.2z"/>
		<path fill="#FFFFFF" d="M42.4,23.5c-0.3-0.3-0.4-0.7-0.4-1c0-0.2,0.1-0.6,0.4-0.9c0.2-0.2,0.5-0.4,1.1-0.4c0.2,0,0.3,0,0.5,0
			c0.1,0,0.3,0,0.4,0c0,0,0,0,0,0c0,0,0,0.1,0,0.2c0,0.1,0,0.3,0,0.4c0,0.1,0,0.1,0,0.1c0,0,0,0,0-0.1c0-0.1-0.1-0.3-0.2-0.4
			c-0.1-0.1-0.4-0.2-0.7-0.2c-0.4,0-0.7,0.1-0.8,0.2c-0.3,0.2-0.3,0.5-0.3,0.9c0,0.7,0.5,1.3,1.3,1.3c0.3,0,0.5,0,0.6-0.2
			c0.1-0.1,0.1-0.2,0.1-0.3c0,0,0-0.1,0-0.1c0,0,0,0,0,0.1c0,0-0.1,0.4-0.1,0.4c0,0.1,0,0.1-0.1,0.1c-0.1,0.1-0.4,0.1-0.6,0.1
			C43.1,23.8,42.7,23.7,42.4,23.5z"/>
		<path fill="#FFFFFF" d="M45.6,22.8C45.6,22.8,45.6,22.8,45.6,22.8l-0.2,0.5c0,0.1-0.1,0.2-0.1,0.3c0,0.1,0,0.1,0.1,0.1
			c0,0,0,0,0,0c0,0,0,0,0,0c0,0,0,0-0.1,0c-0.1,0-0.3,0-0.3,0c0,0-0.2,0-0.4,0c0,0-0.1,0-0.1,0c0,0,0,0,0,0c0,0,0.1,0,0.1,0
			c0.2,0,0.2-0.1,0.3-0.3l0.8-2.1c0-0.1,0.1-0.1,0.1-0.1c0,0,0,0,0.1,0.1c0.1,0.1,0.6,1.5,0.8,2c0.1,0.3,0.2,0.4,0.3,0.4
			c0.1,0,0.1,0,0.1,0c0,0,0,0,0,0c0,0,0,0-0.1,0c0,0-0.3,0-0.6,0c-0.1,0-0.1,0-0.1,0c0,0,0,0,0,0c0,0,0,0,0-0.1l-0.3-0.8
			c0,0,0,0,0,0H45.6z M46.3,22.7C46.3,22.7,46.3,22.7,46.3,22.7L46,21.8c0-0.1,0-0.1,0,0l-0.3,0.9c0,0,0,0,0,0H46.3z"/>
		<path fill="#FFFFFF" d="M27.7,27c0-0.5,0-0.6,0-0.7c0-0.1,0-0.2-0.2-0.2c0,0-0.1,0-0.1,0c0,0,0,0,0,0c0,0,0,0,0.1,0
			c0.2,0,0.4,0,0.4,0c0,0,0.2,0,0.5,0c0.4,0,1,0,1.4,0.4c0.2,0.2,0.3,0.5,0.3,0.9c0,0.4-0.2,0.8-0.4,1c-0.2,0.2-0.5,0.4-1.1,0.4
			c-0.2,0-0.4,0-0.5,0c-0.2,0-0.3,0-0.3,0c0,0-0.1,0-0.1,0c-0.1,0-0.2,0-0.2,0c0,0-0.1,0-0.1,0c0,0,0,0,0,0c0,0,0.1,0,0.1,0
			c0.1,0,0.1-0.1,0.1-0.2c0-0.1,0-0.4,0-0.7V27z M28,27.4c0,0.4,0,0.7,0,0.7c0,0.1,0,0.2,0,0.3c0,0.1,0.2,0.2,0.6,0.2
			c0.3,0,0.6-0.1,0.8-0.3c0.2-0.2,0.3-0.5,0.3-0.8c0-0.5-0.2-0.7-0.3-0.9c-0.3-0.3-0.7-0.4-1.1-0.4c-0.1,0-0.2,0-0.2,0
			c0,0,0,0,0,0.1c0,0.1,0,0.5,0,0.7V27.4z"/>
		<path fill="#FFFFFF" d="M30.9,27c0-0.5,0-0.6,0-0.7c0-0.1,0-0.2-0.2-0.2c0,0-0.1,0-0.1,0c0,0-0.1,0-0.1,0c0,0,0,0,0.1,0
			c0.1,0,0.2,0,0.4,0c0,0,0.7,0,0.8,0c0.1,0,0.1,0,0.2,0c0,0,0,0,0,0c0,0,0,0,0,0c0,0,0,0.1,0,0.2c0,0.1,0,0.1,0,0.2
			c0,0,0,0.1,0,0.1c0,0,0,0,0,0c0-0.1,0-0.1,0-0.1c0-0.1-0.1-0.1-0.3-0.1c-0.1,0-0.5,0-0.5,0c0,0,0,0,0,0v0.9c0,0,0,0,0,0
			c0,0,0.5,0,0.5,0c0.1,0,0.2,0,0.2-0.1c0,0,0,0,0,0c0,0,0,0,0,0c0,0,0,0.1,0,0.2c0,0.1,0,0.2,0,0.2c0,0,0,0,0,0c0,0,0,0,0-0.1
			c0,0,0-0.1,0-0.1c0-0.1,0-0.1-0.2-0.1c-0.1,0-0.4,0-0.5,0c0,0,0,0,0,0v0.3c0,0.1,0,0.5,0,0.5c0,0.1,0,0.2,0.1,0.3
			c0.1,0,0.2,0,0.3,0c0.1,0,0.2,0,0.3,0c0.1,0,0.1-0.1,0.2-0.3c0,0,0-0.1,0-0.1c0,0,0,0,0,0.1c0,0,0,0.3,0,0.4c0,0.1,0,0.1-0.2,0.1
			c-0.3,0-0.4,0-0.5,0c-0.1,0-0.3,0-0.5,0c-0.1,0-0.2,0-0.3,0c0,0-0.1,0-0.1,0c0,0,0,0,0,0c0,0,0.1,0,0.1,0c0.1,0,0.1-0.1,0.1-0.3
			c0-0.1,0-0.3,0-0.6V27z"/>
		<path fill="#FFFFFF" d="M34.5,28.2c-0.4-0.4-0.5-0.8-0.5-1.2c0-0.3,0.1-0.7,0.5-1.1c0.2-0.2,0.6-0.4,1.2-0.4c0.2,0,0.4,0,0.6,0
			c0.2,0,0.3,0,0.4,0.1c0,0,0,0,0,0c0,0,0,0.1,0,0.2c0,0.1,0,0.4,0,0.4c0,0.1,0,0.1,0,0.1c0,0,0,0,0-0.1c0-0.2-0.1-0.3-0.2-0.4
			c-0.1-0.1-0.5-0.2-0.8-0.2c-0.5,0-0.8,0.2-0.9,0.3c-0.3,0.3-0.4,0.6-0.4,1.1c0,0.8,0.6,1.5,1.5,1.5c0.3,0,0.5,0,0.7-0.2
			c0.1-0.1,0.1-0.3,0.1-0.3c0,0,0-0.1,0-0.1c0,0,0,0,0,0.1c0,0,0,0.4-0.1,0.5c0,0.1,0,0.1-0.1,0.1c-0.2,0.1-0.5,0.1-0.7,0.1
			C35.2,28.7,34.8,28.5,34.5,28.2z"/>
		<path fill="#FFFFFF" d="M39.3,27.1C39.3,27.1,39.3,27.1,39.3,27.1L39.3,27.1c0-0.6,0-0.7,0-0.8c0-0.1,0-0.2-0.2-0.2
			c0,0-0.1,0-0.1,0c0,0,0,0,0,0c0,0,0,0,0.1,0c0.2,0,0.4,0,0.4,0s0.2,0,0.4,0c0,0,0.1,0,0.1,0c0,0,0,0,0,0c0,0-0.1,0-0.1,0
			c-0.1,0-0.1,0.1-0.1,0.2c0,0.1,0,0.2,0,0.7v0.6c0,0.3,0,0.6,0,0.7c0,0.1,0,0.2,0.1,0.2c0.1,0,0.1,0,0.1,0c0,0,0.1,0,0.1,0
			c0,0,0,0-0.1,0c-0.2,0-0.4,0-0.5,0c0,0-0.2,0-0.4,0c0,0-0.1,0-0.1,0c0,0,0,0,0,0c0,0,0.1,0,0.1,0c0.1,0,0.1-0.1,0.1-0.2
			c0-0.1,0-0.4,0-0.7v-0.4c0,0,0,0,0,0h-1.5c0,0,0,0,0,0v0.4c0,0.3,0,0.6,0,0.7c0,0.1,0,0.2,0.1,0.2c0.1,0,0.1,0,0.1,0c0,0,0,0,0,0
			c0,0,0,0-0.1,0c-0.2,0-0.4,0-0.5,0c0,0-0.3,0-0.4,0c0,0-0.1,0-0.1,0c0,0,0,0,0,0c0,0,0.1,0,0.1,0c0.1,0,0.1-0.1,0.1-0.2
			c0-0.1,0-0.4,0-0.7V27c0-0.5,0-0.6,0-0.7c0-0.1,0-0.2-0.2-0.2c0,0-0.1,0-0.1,0c0,0,0,0,0,0c0,0,0,0,0.1,0c0.2,0,0.4,0,0.4,0
			c0,0,0.2,0,0.4,0c0,0,0.1,0,0.1,0c0,0,0,0,0,0c0,0,0,0-0.1,0c-0.1,0-0.1,0.1-0.1,0.2c0,0.1,0,0.2,0,0.7v0.1c0,0,0,0,0,0H39.3z"/>
		<path fill="#FFFFFF" d="M40.9,27c0-0.5,0-0.6,0-0.7c0-0.1,0-0.2-0.1-0.2c0,0-0.1,0-0.1,0c0,0,0,0,0,0c0,0,0,0,0.1,0
			c0.1,0,0.4,0,0.4,0c0,0,0.2,0,0.4,0c0,0,0.1,0,0.1,0c0,0,0,0,0,0c0,0,0,0-0.1,0c-0.1,0-0.1,0.1-0.1,0.2c0,0.1,0,0.2,0,0.7v0.6
			c0,0.3,0,0.6,0,0.7c0,0.1,0,0.2,0.1,0.2c0.1,0,0.1,0,0.2,0c0,0,0,0,0,0c0,0,0,0-0.1,0c-0.2,0-0.4,0-0.5,0c0,0-0.2,0-0.4,0
			c0,0-0.1,0-0.1,0c0,0,0,0,0.1,0c0,0,0.1,0,0.1,0c0.1,0,0.1-0.1,0.1-0.2c0-0.1,0-0.4,0-0.7V27z"/>
		<path fill="#FFFFFF" d="M42.8,27.6c0,0.5,0,0.7,0.1,0.8c0.1,0.1,0.1,0.1,0.4,0.1c0.2,0,0.3,0,0.4-0.1c0-0.1,0.1-0.1,0.1-0.2
			c0,0,0,0,0,0c0,0,0,0,0,0.1s0,0.3,0,0.4c0,0.1,0,0.1-0.2,0.1c-0.3,0-0.6,0-1,0c-0.1,0-0.2,0-0.4,0c0,0-0.1,0-0.1,0c0,0,0,0,0,0
			c0,0,0.1,0,0.1,0c0.1,0,0.1-0.1,0.1-0.2c0-0.2,0-0.4,0-0.7V27c0-0.5,0-0.6,0-0.7c0-0.1,0-0.2-0.2-0.2c0,0-0.1,0-0.1,0c0,0,0,0,0,0
			c0,0,0,0,0.1,0c0.2,0,0.4,0,0.4,0c0.1,0,0.3,0,0.4,0c0,0,0.1,0,0.1,0c0,0,0,0,0,0c0,0-0.1,0-0.1,0c-0.1,0-0.1,0.1-0.1,0.2
			c0,0.1,0,0.2,0,0.7V27.6z"/>
		<path fill="#FFFFFF" d="M44.5,27c0-0.5,0-0.6,0-0.7c0-0.1,0-0.2-0.2-0.2c0,0-0.1,0-0.1,0c0,0-0.1,0-0.1,0c0,0,0,0,0.1,0
			c0.1,0,0.2,0,0.4,0c0,0,0.7,0,0.8,0c0.1,0,0.1,0,0.2,0c0,0,0,0,0,0c0,0,0,0,0,0c0,0,0,0.1,0,0.2c0,0.1,0,0.1,0,0.2
			c0,0,0,0.1,0,0.1c0,0,0,0,0,0c0-0.1,0-0.1,0-0.1c0-0.1-0.1-0.1-0.3-0.1c-0.1,0-0.5,0-0.5,0c0,0,0,0,0,0v0.9c0,0,0,0,0,0
			c0,0,0.5,0,0.5,0c0.1,0,0.2,0,0.2-0.1c0,0,0,0,0,0c0,0,0,0,0,0c0,0,0,0.1,0,0.2c0,0.1,0,0.2,0,0.2c0,0,0,0,0,0c0,0,0,0,0-0.1
			c0,0,0-0.1,0-0.1c0-0.1,0-0.1-0.2-0.1c-0.1,0-0.4,0-0.5,0c0,0,0,0,0,0v0.3c0,0.1,0,0.5,0,0.5c0,0.1,0,0.2,0.1,0.3
			c0.1,0,0.2,0,0.3,0c0.1,0,0.2,0,0.3,0c0.1,0,0.1-0.1,0.2-0.3c0,0,0-0.1,0-0.1c0,0,0,0,0,0.1c0,0,0,0.3,0,0.4c0,0.1,0,0.1-0.2,0.1
			c-0.3,0-0.4,0-0.5,0c-0.1,0-0.3,0-0.5,0c-0.1,0-0.2,0-0.3,0c0,0-0.1,0-0.1,0c0,0,0,0,0,0c0,0,0.1,0,0.1,0c0.1,0,0.1-0.1,0.1-0.3
			c0-0.1,0-0.3,0-0.6V27z"/>
	</g>
	<path fill="#FFFFFF" d="M16.2,14.3c-0.1,0-0.3-0.1-0.3-0.2c0-0.1,0.1-0.2,0.3-0.2c0.1,0,0.3,0.1,0.3,0.2
		C16.5,14.2,16.4,14.3,16.2,14.3 M8.2,23.8C8.2,23.8,8.1,23.9,8.2,23.8c-0.1,0.1,0,0.1,0,0.1C8.2,24,8.3,24,8.2,23.8
		C8.3,23.9,8.2,23.8,8.2,23.8 M11.4,24C11.4,24,11.4,24,11.4,24c0.1-0.1,0-0.1,0-0.1C11.3,23.8,11.3,23.9,11.4,24
		C11.3,24,11.3,24,11.4,24 M6.1,22.6c-0.2-0.1-0.5-0.1-0.5-0.1s0.1,0.3,0.3,0.4C6.1,23.1,6.3,23,6.3,23S6.3,22.8,6.1,22.6 M5.8,21.4
		c0,0,0,0.3,0.1,0.4C6,22,6.3,22.1,6.3,22.1s0-0.3-0.1-0.4C6,21.5,5.8,21.4,5.8,21.4 M6.1,22.1C5.9,22,5.7,22,5.7,22s0,0.3,0.2,0.4
		c0.2,0.2,0.5,0.1,0.5,0.1S6.3,22.3,6.1,22.1 M6.1,20.9c-0.9,0-1.5,0.6-1.5,1.3c0,0.7,0.4,1.2,1.2,1.3c0.3,0.1,0.4,0.1,0.4,0.2h0.3
		v-0.1c0-0.1-0.1-0.3-0.4-0.4c-0.6-0.1-0.9-0.5-0.9-1c0-0.6,0.5-1.1,1.2-1.1c0.3,0,0.6,0.1,0.8,0.2l0.1-0.1
		C7,21.1,6.6,20.9,6.1,20.9 M6.6,21.6c-0.1,0.2-0.1,0.4-0.1,0.4s0.3,0,0.4-0.2C7,21.7,7,21.4,7,21.4S6.7,21.5,6.6,21.6 M6.7,22.1
		c-0.2,0.2-0.2,0.4-0.2,0.4s0.3,0,0.5-0.1C7.1,22.3,7.1,22,7.1,22S6.8,22,6.7,22.1 M6.9,23c0.2-0.1,0.3-0.4,0.3-0.4
		s-0.3-0.1-0.5,0.1C6.5,22.8,6.4,23,6.4,23S6.7,23.1,6.9,23 M6.6,24.1H6.2L6,25.3c0,0.2,0.2,0.3,0.4,0.3c0.2,0,0.4-0.1,0.4-0.3
		L6.6,24.1z M8.1,22.4c0,0.1,0,0.1,0,0.2h0.6v0.1H8.2C8.3,22.9,8.4,23,8.7,23h0.2c0,0,0,0.1,0,0.2H8.7l-0.1,0H8.4v0.3h2.8v-0.3h-0.1
		l-0.1,0h-0.2c0,0,0-0.1,0-0.2h0.2c0.2,0,0.4-0.1,0.5-0.3H11v-0.1h0.6c0-0.1,0-0.1,0-0.2v0h-0.9c-0.1,0-0.2,0.1-0.2,0.2v0.2
		c0,0-0.2,0-0.2,0v-0.2c0-0.1,0.1-0.2,0.2-0.3l0.1,0l0,0c-0.2-0.2-0.5-0.2-0.7-0.2c-0.2,0-0.5,0.1-0.7,0.2l-0.1,0l0.1,0
		c0.1,0,0.2,0.2,0.2,0.3v0.2c0,0-0.2,0-0.2,0v-0.2c0-0.1-0.1-0.2-0.2-0.2L8.1,22.4L8.1,22.4z M10.3,24.1c0,0,0.1-0.2,0.2-0.3h-0.2
		C10.3,23.8,10.3,24.1,10.3,24.1 M9.6,24.6C9.6,24.6,9.6,24.6,9.6,24.6c0.2-0.1,0.3-0.1,0.4-0.2l0-0.7H9.5L9.6,24.6z M11.8,23.9
		c-0.1,0-0.3-0.2-0.5-0.2c-0.3,0-0.6,0.1-0.9,0.7c0,0.1-0.1,0.1-0.2,0.2c0,0,0,0,0,0c-0.1,0.1-0.2,0.1-0.4,0.2
		c-0.1,0.1-0.3,0.1-0.5,0.2C9.1,25.1,9,25.2,9,25.5c0,0.2,0.1,0.3,0.3,0.4c0.1-0.1,0.2-0.1,0.3-0.2c-0.1-0.1-0.2-0.2-0.2-0.3
		c0-0.1,0.1-0.2,0.3-0.3v0c0.1,0,0.2-0.1,0.3-0.1c0.1-0.1,0.3-0.1,0.4-0.2c0.1-0.1,0.2-0.2,0.3-0.3c0.1-0.2,0.2-0.3,0.3-0.4
		c0.1-0.1,0.2,0,0.4,0C11.6,24.1,11.7,24,11.8,23.9C11.7,24,11.8,23.9,11.8,23.9 M9.7,25.4c0,0.1,0.1,0.1,0.1,0.1
		c0.1,0,0.1-0.1,0.1-0.1c0-0.1-0.1-0.1-0.1-0.1C9.7,25.3,9.7,25.4,9.7,25.4 M10.1,26c0.2-0.1,0.5-0.3,0.5-0.5c0-0.2-0.1-0.3-0.2-0.4
		c-0.1,0-0.2,0.1-0.3,0.1c0.1,0.1,0.2,0.1,0.2,0.3c0,0.1-0.1,0.2-0.3,0.3c0,0-0.1,0-0.1,0.1c-0.1,0.1-0.3,0.2-0.4,0.2c0,0,0,0,0,0
		c-0.1,0.1-0.2,0.2-0.2,0.4c0,0.2,0.1,0.3,0.2,0.4c0.1-0.1,0.1-0.1,0.2-0.2c-0.1,0-0.1-0.1-0.1-0.2c0-0.1,0-0.1,0.1-0.1c0,0,0,0,0,0
		c0,0,0,0,0,0c0,0,0,0,0,0c0.1-0.1,0.2-0.1,0.4-0.2C10,26,10.1,26,10.1,26L10.1,26 M10.1,26.9c0.2-0.1,0.3-0.2,0.3-0.5
		c0-0.1,0-0.2-0.1-0.3c-0.1,0-0.1,0.1-0.2,0.1c0,0,0,0-0.1,0c0.1,0,0.1,0.1,0.1,0.1c0,0.1,0,0.1-0.1,0.1c0,0,0,0,0,0c0,0,0,0,0,0
		c0,0,0,0,0,0c0,0,0,0,0,0c0,0,0,0,0,0c-0.3,0.2-0.4,0.3-0.5,0.4c0,0.1-0.1,0.1-0.1,0.2c0,0.1,0.1,0.3,0.3,0.3l0,0.2
		c0,0.1,0,0.1,0.1,0.1c0.1,0,0.1,0,0.1-0.1l0-0.2c0.2,0,0.3-0.2,0.3-0.3c0,0,0-0.1,0-0.1c-0.1,0-0.1,0.1-0.2,0.1c-0.1,0-0.1,0-0.2,0
		c0,0,0-0.1,0-0.2C9.9,27,10,27,10.1,26.9 M9.1,23.8C9.2,23.8,9.3,24,9.3,24s0-0.2,0-0.3H9.1 M8.9,24.5c0.1,0.1,0.1,0.2,0.2,0.3
		c0.1-0.1,0.2-0.1,0.3-0.1c-0.1-0.1-0.2-0.1-0.3-0.2c-0.3-0.6-0.6-0.7-0.9-0.7c-0.2,0-0.4,0.2-0.5,0.2c0,0,0,0.1,0,0.1
		c0,0,0.2,0.1,0.4,0.1c0.2,0,0.3-0.1,0.4,0C8.7,24.2,8.9,24.4,8.9,24.5 M3.8,21.7C3.7,21.7,3.7,21.6,3.8,21.7c0-0.1,0-0.1,0.1-0.1
		l0.6,0.3c0.1-0.2,0.1-0.4,0.3-0.6L4.3,21c0,0,0-0.1,0-0.1c0,0,0.1,0,0.1,0l0.4,0.3C4.9,21.1,5,21,5.2,20.9l-0.3-0.4
		c0,0,0-0.1,0-0.1c0,0,0.1,0,0.1,0l0.3,0.4c0.2-0.1,0.5-0.2,0.8-0.2c0.4,0,0.8,0.1,1.2,0.3l0.5-0.6c0,0,0.1,0,0.1,0c0,0,0,0.1,0,0.1
		l-0.5,0.6c0,0,0.1,0,0.1,0.1l0.1,0.1l-0.4,0.4c0,0,0,0.1,0,0.1l0,0l1.1-0.9c0,0,0.1,0,0.1,0c0,0,0,0.1,0,0.1l-1.1,0.9l0,0.2
		c0,0,0,0.2-0.1,0.3l0.1,0l1.5-0.9c0,0,0.1,0,0.1,0c0,0,0,0.1,0,0.1l-0.8,0.5h0.6c0.3-0.3,0.7-0.5,1.1-0.5c0.4,0,0.8,0.2,1.1,0.5
		h0.7h0.3v0.3c0,0.3-0.1,0.5-0.3,0.7v0.4c0.2,0.1,0.4,0.2,0.4,0.3l0.1,0.1l0,0.2c0,0,0,0.1,0,0.1c-0.1,0.2-0.4,0.3-0.7,0.3
		c-0.1,0-0.2,0-0.3,0l0,0c0,0.1-0.1,0.2-0.2,0.3c-0.1,0.1-0.1,0.2-0.2,0.3c0.1,0.1,0.2,0.3,0.2,0.5c0,0.3-0.1,0.5-0.3,0.6
		c0.1,0.1,0.1,0.2,0.1,0.4c0,0.2-0.1,0.4-0.3,0.6c0,0.1,0,0.1,0,0.2c0,0.2-0.1,0.4-0.3,0.5c0,0.2-0.2,0.4-0.4,0.4
		c-0.2,0-0.4-0.2-0.4-0.4c-0.2-0.1-0.3-0.3-0.3-0.5c0-0.1,0-0.1,0-0.2c-0.2-0.2-0.3-0.3-0.3-0.6c0-0.2,0.1-0.3,0.1-0.4
		c-0.2-0.1-0.3-0.3-0.3-0.6c0-0.2,0.1-0.4,0.2-0.5c-0.1-0.1-0.2-0.2-0.2-0.3c-0.1-0.1-0.1-0.2-0.2-0.3l0,0c-0.1,0-0.2,0-0.3,0
		c-0.3,0-0.6-0.2-0.7-0.3c0,0,0-0.1,0-0.1l0-0.2l0.1-0.1c0.1-0.1,0.3-0.2,0.5-0.3v-0.1V23c-0.2-0.2-0.3-0.4-0.3-0.6v-0.1l-0.4,0.2
		l0,0.2c0,0-0.1,0.3-0.4,0.5c-0.1,0.1-0.3,0.1-0.4,0.1c0.1,0.1,0.2,0.3,0.2,0.4v0.1h0L7,25.3v0c0,0.3-0.3,0.5-0.6,0.5
		c-0.3,0-0.6-0.2-0.6-0.5v0l0.2-1.5c0,0-0.1,0-0.2,0c-0.9-0.2-1.4-0.8-1.4-1.6c0-0.1,0-0.2,0-0.2L3.8,21.7 M18.8,24.2
		c0.4,0,0.7-0.3,0.7-0.6h-1.3C18.1,23.9,18.4,24.2,18.8,24.2 M17.4,26.2c0,0,0.7-1.5,0.8-1.8c-0.1,0-0.3,0-0.4-0.1
		c-0.2,0-0.4-0.1-0.5-0.2c-0.1-0.1-0.2-0.1-0.4-0.2c0,0-0.1,0-0.1,0l-0.2,2c0.2,0.1,0.4,0.2,0.5,0.3C17.2,26.2,17.4,26.2,17.4,26.2
		 M16.6,22h2.3h0c0.1,0,0.3-0.1,0.3-0.3c0-0.1-0.1-0.3-0.3-0.3c-0.1,0-0.3,0.1-0.3,0.3c0,0,0,0,0,0c-0.5,0-1.5,0.1-2.2-0.4
		c0.1-0.1,0.1-0.2,0.1-0.3c0-0.2-0.2-0.4-0.4-0.4c-0.2,0-0.4,0.2-0.4,0.4c0,0.1,0,0.2,0.1,0.3c-0.7,0.5-1.7,0.5-2.2,0.4c0,0,0,0,0,0
		c0-0.1-0.1-0.3-0.3-0.3c-0.1,0-0.3,0.1-0.3,0.3c0,0.1,0.1,0.3,0.3,0.3h0h2.3l0.4,4.8c0,0.1,0,0.1,0.1,0.1c0.1,0,0.1,0,0.1-0.1
		L16.6,22z M15.6,25.7c0,0,0.1-0.1,0.2-0.1l-0.1-1.9c-0.1,0-0.2,0-0.4,0c-0.1,0-0.3-0.1-0.3-0.1c-0.1,0.2-1,1.5-1.1,1.6
		c0.1,0,0.2,0.1,0.3,0.1c0.2,0.1,0.4,0,0.6,0c0.2,0,0.4,0,0.5,0C15.4,25.4,15.5,25.6,15.6,25.7 M13.6,24.2c0.4,0,0.7-0.3,0.7-0.6
		h-1.3C12.9,23.9,13.2,24.2,13.6,24.2 M14.5,23.3v0.3c0,0.1,0,0.1,0,0.2l0.2-0.4l0.1-0.1l0.1,0.1c0,0,0.1,0.1,0.4,0.1
		c0.1,0,0.2,0,0.3,0l-0.1-1.3l-1.7,0l0.5,1.1H14.5z M13.1,23.3h0.9l-0.5-1L13.1,23.3z M18,24.1c-0.1-0.1-0.2-0.3-0.2-0.5v-0.3h0.2
		l0.5-1.1h-1.7l-0.1,1.4c0.1,0,0.1,0,0.1,0c0.2,0,0.3,0.1,0.4,0.2c0.1,0.1,0.2,0.2,0.4,0.2C17.9,24.1,17.9,24.1,18,24.1 M18.8,22.3
		l-0.5,1h0.9L18.8,22.3z M19.7,23.3v0.3c0,0.5-0.4,0.9-0.9,0.9c-0.1,0-0.2,0-0.3-0.1l0,0.1l-0.9,2.1l-1-0.3l0,0.5v0v0
		c0,0.2-0.2,0.3-0.4,0.3c-0.2,0-0.4-0.2-0.4-0.4l0,0l0-0.7c-0.1,0-0.2,0-0.3,0c-0.1,0-0.3-0.1-0.3-0.2l-1.8-0.3l0.1-0.4l0,0l0,0l0,0
		h0l0.5-0.8c-0.1,0.1-0.3,0.1-0.5,0.1c-0.5,0-0.9-0.4-0.9-0.9v-0.3h0.2l0.5-1.1c-0.3,0-0.5-0.2-0.5-0.5c0-0.3,0.2-0.5,0.5-0.5
		c0.2,0,0.4,0.1,0.5,0.3c0.7,0,1.2-0.1,1.6-0.3c0-0.1,0-0.1,0-0.2c0-0.3,0.3-0.6,0.7-0.6c0.4,0,0.7,0.3,0.7,0.6c0,0.1,0,0.1,0,0.2
		c0.4,0.2,0.9,0.3,1.6,0.3c0.1-0.2,0.3-0.3,0.5-0.3c0.3,0,0.5,0.2,0.5,0.5c0,0.3-0.2,0.5-0.5,0.5l0.5,1.1H19.7z M6.3,15.4
		c-0.5,0-1,0.4-1,1.1c0,0.8,0.7,1.2,1.2,1.4c0.1-0.1,0.1-0.1,0.2-0.1l0,0c-0.1-0.1-0.3-0.2-0.6-0.4c-0.3-0.2-0.5-0.4-0.5-0.9
		c0-0.5,0.4-0.8,0.7-0.8c0.2,0,0.4,0,0.5,0.1C7,15.9,7.1,16,7.4,16c0.4,0,0.5-0.1,0.5-0.1l0-0.1c0,0-0.3-0.3-0.5-0.3
		c-0.2,0-0.5,0-0.5,0C6.7,15.4,6.5,15.4,6.3,15.4 M5.9,16.2v0.3c0,0.4,0.3,0.6,0.6,0.8c0.2,0.1,0.4,0.2,0.5,0.4l0.6-0.2
		c0,0,0.2-0.1,0.3-0.2c0.3-0.2,0.6-0.4,0.6-0.8v-0.3H5.9z M7.7,18.6c0.1,0,0.1-0.1,0.1-0.2c0-0.1-0.1-0.1-0.2-0.1l-0.9,0.2
		c-0.1,0-0.1,0.1-0.1,0.2c0,0.1,0.1,0.1,0.2,0.1L7.7,18.6 M6.7,18c-0.1,0-0.1,0.1-0.1,0.2c0,0.1,0.1,0.1,0.2,0.1L7.7,18
		c0.1,0,0.1-0.1,0.1-0.2c0-0.1-0.1-0.1-0.2-0.1L6.7,18 M8,19.5c0-0.2-0.6-0.4-0.6-0.6L7,19c-0.2,0.2-0.5,0.3-0.5,0.5v0L8,19.5
		L8,19.5 M8,15h1.4v4.5h0.8V15h1.4v-0.8h-1.4v-1.6H9.4v1.6H8V15z M4.9,16.5c0-0.9,0.7-1.4,1.3-1.4c0.3,0,0.6,0.1,0.6,0.1
		s0.2,0,0.4,0c0.1,0,0.2,0,0.3,0.1V14h1.4v-1.6h1.4V14h1.4v1.3h-1.4v4.4H9.1v-4.4H7.8c0.1,0.1,0.3,0.2,0.3,0.3c0.1,0,0.2,0,0.2,0
		c0.1,0,0.2,0.1,0.3,0.1c0.1,0,0.1,0,0.1,0c0,0,0,0.1-0.1,0.1c-0.1,0-0.2-0.1-0.3-0.1c-0.1,0-0.2,0-0.2,0.1l0,0.2h0.7v0.6
		c0,0.5-0.4,0.8-0.7,1c0,0-0.1,0.1-0.2,0.1c0,0,0.1,0.1,0.1,0.1c0,0.1,0,0.2,0,0.3c0,0-0.1,0.1-0.1,0.1c0.1,0,0.2,0.2,0.2,0.3
		c0,0.3-0.4,0.4-0.4,0.4v0c0,0,0.1,0.1,0.1,0.1c0.2,0.1,0.5,0.3,0.5,0.6v0.2H6.1v-0.2c0-0.3,0.3-0.4,0.4-0.6c-0.1,0-0.1-0.1-0.1-0.2
		c0-0.1,0-0.2,0-0.3c0,0,0.1-0.1,0.1-0.1c-0.1,0-0.2-0.2-0.2-0.2C5.7,18,4.9,17.5,4.9,16.5 M18.3,16.9c0,0.3,0.2,0.5,0.5,0.5
		c0.4,0,0.7-0.3,0.7-0.7c0-0.5-0.4-0.8-0.9-0.8h-0.8l0.3,0.7c0.1-0.2,0.3-0.4,0.6-0.4c0.3,0,0.5,0.2,0.5,0.5c0,0.3-0.2,0.4-0.5,0.4
		c-0.1,0-0.1-0.1-0.1-0.1s0.1-0.1,0.1-0.1c0.1,0,0.2,0,0.2-0.2c0-0.1-0.1-0.2-0.2-0.2C18.4,16.4,18.3,16.6,18.3,16.9 M19,19.6
		c0,0-1.4-3.4-2-4.9c-0.2,0.2-0.5,0.3-0.7,0.3c0,0,0,0-0.1,0L19,19.6L19,19.6 M18.1,18.8L17.6,18v1.2h0.5V18.8z M17.3,17.5L17,17
		h-1.6l-0.3,0.5v1.7h0.5v-1.8c0-0.1,0.1-0.2,0.2-0.2c0.1,0,0.2,0.1,0.2,0.2v1.8h0.5v-1.8c0-0.1,0.1-0.2,0.2-0.2
		c0.1,0,0.2,0.1,0.2,0.2v1.8h0.5V17.5z M14.9,18l-0.5,0.8v0.3h0.5V18z M15.6,16.7h1.2l-0.5-0.8h-0.2L15.6,16.7z M16.1,15.4l-0.3-0.4
		c-0.1-0.1-0.2-0.1-0.3-0.2c-0.6,1.5-2,4.9-2,4.9l0.1,0L16.1,15.4z M13.7,17.4c0.3,0,0.5-0.2,0.5-0.5c0-0.3-0.1-0.4-0.4-0.4
		c-0.1,0-0.2,0.1-0.2,0.2c0,0.1,0.1,0.2,0.2,0.2c0.1,0,0.1,0.1,0.1,0.1s-0.1,0.1-0.1,0.1c-0.3,0-0.5-0.2-0.5-0.4
		c0-0.3,0.2-0.5,0.5-0.5c0.3,0,0.5,0.2,0.6,0.4l0.3-0.7h-0.8c-0.6,0-0.9,0.3-0.9,0.8C13,17,13.3,17.4,13.7,17.4 M16.2,13.4
		c-0.4,0-0.7,0.3-0.7,0.7c0,0.4,0.3,0.7,0.7,0.7c0.4,0,0.7-0.3,0.7-0.7C17,13.7,16.6,13.4,16.2,13.4 M19.8,16.7c0,0.5-0.5,1-1,1
		c-0.1,0-0.2,0-0.3-0.1l0.4,1l0.4,0.9c0.1,0.2-0.1,0.3-0.1,0.3L19,19.9c-0.1,0.1-0.2,0-0.3-0.1l-0.2-0.4v0.1h-0.3h-3.8h-0.3v-0.1
		l-0.2,0.4c-0.1,0.1-0.2,0.2-0.3,0.1l-0.2-0.1c0,0-0.2-0.1-0.1-0.3l0.4-0.9l0.4-1c-0.1,0-0.2,0.1-0.3,0.1c-0.6,0-1-0.4-1-1
		c0-0.7,0.5-1.1,1.2-1.1h0.9l0.5-1.1c-0.1-0.1-0.1-0.2-0.1-0.4c0-0.5,0.5-1,1-1c0.6,0,1,0.4,1,1c0,0.1,0,0.3-0.1,0.4l0.5,1.1h0.9
		C19.3,15.5,19.8,16,19.8,16.7 M7.4,15.7C7.4,15.7,7.5,15.7,7.4,15.7c0.1-0.1,0-0.1,0-0.1C7.4,15.6,7.3,15.6,7.4,15.7
		C7.3,15.7,7.4,15.7,7.4,15.7 M16.1,6.9L16.1,6.9c0,0.1,0,0.2,0,0.2v0c0,0,0,0.1,0,0.1l0,0l0,0.1l0-0.1c0.1-0.3,0.3-0.5,0.5-0.7l0,0
		l0,0c0,0,0-0.1,0-0.1l0,0l-0.1,0l0,0C16.5,6.6,16.4,6.8,16.1,6.9L16.1,6.9z M16,7.3c0-0.1,0-0.3-0.1-0.4c0,0,0.3-0.2,0.6-0.6
		l0.3-0.1c0.1,0,0.1,0,0.1,0.1l0.1,0.3c0,0,0,0.1,0,0.1s-0.5,0.3-0.5,0.8c0,0,0,0.1,0,0.1l0,0c0,0-0.2-0.1-0.3-0.1
		C16.1,7.6,16,7.4,16,7.3 M17.1,6.1c0,0.1,0,0.5,0,0.5c0,0,0.2-0.2,0.2-0.3c0-0.2-0.1-0.5-0.1-0.5c0,0-0.2-0.2-0.3-0.2
		c0,0-0.1,0.1-0.1,0.2c0,0.1-0.1,0.2-0.2,0.3v0C16.8,6,17,6,17.1,6.1 M5.5,8.4l0.2,0.3C5.9,8.6,6,8.5,6.2,8.4c0,0,0,0,0-0.1
		c0,0,0-0.1,0-0.1C6.2,8.1,6.3,8,6.4,8c0.1,0,0.1,0,0.2,0c0.1,0,0.2,0,0.3,0.1C7,8,7.2,8,7.3,8L7.2,7.6C6.9,7.7,6.6,7.8,6.3,7.9
		C6.1,8,5.8,8.2,5.5,8.4 M5,7.7L5.2,8c0.2-0.1,0.4-0.3,0.6-0.4c0,0,0,0,0,0c0-0.1,0.1-0.3,0.2-0.3c0.1,0,0.1,0,0.2,0
		c0.1,0,0.2,0,0.3,0.1c0.2-0.1,0.4-0.1,0.6-0.2c0,0-0.1-0.4-0.1-0.4C6.7,6.8,6.3,6.9,6,7.1C5.6,7.2,5.3,7.5,5,7.7 M5.4,6.8
		C5.4,6.8,5.4,6.7,5.4,6.8c0-0.2,0.1-0.3,0.2-0.4c0.1,0,0.1,0,0.2,0c0.1,0,0.2,0,0.3,0.1c0.3-0.1,0.5-0.2,0.8-0.2
		C6.9,6.1,6.9,6,6.8,6c0,0,0,0-0.1,0C6.7,5.9,6.5,6,6.4,6L6.3,6C6.2,6,6.1,6.1,5.9,6.1C5.7,6.1,5.6,6,5.5,5.9
		C5.4,5.8,5.4,5.8,5.4,5.8c0,0,0,0,0,0c0,0,0,0,0,0.1c0,0,0,0,0,0.1c0,0,0,0.1,0,0.1c0,0.3-0.3,0.5-0.5,0.6l0,0C4.6,6.9,4.5,7,4.5,7
		c0,0,0.1,0.1,0.2,0.2C4.9,7.1,5.1,6.9,5.4,6.8 M14.1,6.1c-0.1,0-0.2,0.1-0.3,0.1c0,0.2,0,0.3,0,0.5c0,0.1,0,0.1,0,0.2
		c0.1,0,0.1,0,0.2,0c0.1-0.4,0.3-0.5,0.3-0.5C14.3,6.3,14.2,6.2,14.1,6.1 M13.7,7c0-0.1,0-0.2,0-0.3c0-0.3,0-0.5-0.1-0.6
		c0.1,0,0.3-0.1,0.5-0.2c0.2,0.3,0.4,0.5,0.5,0.6c-0.1,0.1-0.4,0.3-0.5,0.7C14.2,7.1,13.9,7,13.7,7 M10.6,6.2
		c-0.1,0-0.2-0.1-0.3-0.1c-0.1,0.1-0.2,0.3-0.3,0.4c0,0,0.2,0.1,0.3,0.5c0.1,0,0.1,0,0.2,0c0-0.1,0-0.1,0-0.2
		C10.5,6.5,10.5,6.3,10.6,6.2 M9.8,6.4c0.1-0.1,0.3-0.3,0.5-0.6C10.5,5.9,10.7,6,10.8,6c0,0.1-0.1,0.3-0.1,0.6c0,0.1,0,0.3,0,0.3
		c-0.2,0-0.4,0.1-0.5,0.1C10.2,6.7,9.9,6.5,9.8,6.4 M10.5,7.6c0,0.2,0,0.3-0.1,0.5c0.3-0.1,0.5-0.1,0.6-0.2
		c-0.1-0.1-0.2-0.2-0.2-0.3C10.7,7.5,10.6,7.5,10.5,7.6 M10,8.3c0.1-0.1,0.3-0.4,0.3-0.8c0.3-0.1,0.4-0.1,0.5-0.1
		c0.1,0.3,0.3,0.5,0.4,0.6C11.1,8,10.7,8.1,10,8.3 M12.2,7.7c0,0-0.1,0.1-0.1,0.1c0,0,0.1,0.1,0.1,0.1c0,0,0.1,0,0.1-0.1
		C12.3,7.8,12.3,7.8,12.2,7.7 M11.8,7.9c0.1-0.1,0.3-0.2,0.4-0.5c0.1,0.2,0.3,0.4,0.4,0.5c-0.1,0.1-0.2,0.2-0.4,0.2
		C12.1,8.1,11.9,8,11.8,7.9 M10.1,4.6c-0.1,0-0.2,0.1-0.2,0.3c0,0.1,0,0.2,0.1,0.3c0.1-0.2,0.1-0.3,0.1-0.4
		C10.2,4.7,10.2,4.6,10.1,4.6 M10.1,5.4C10,5.4,9.8,5.2,9.8,4.9c0-0.2,0.2-0.5,0.3-0.5c0.2,0,0.3,0.2,0.3,0.3
		C10.4,5,10.2,5.3,10.1,5.4 M13.7,7.5c-0.1,0.1-0.1,0.2-0.2,0.3c0.2,0.1,0.3,0.1,0.6,0.2C14,7.9,14,7.7,14,7.6
		C13.9,7.5,13.8,7.5,13.7,7.5 M14.4,8.3c-0.6-0.1-1.1-0.3-1.2-0.4c0.1-0.1,0.3-0.3,0.4-0.6c0.1,0,0.2,0.1,0.5,0.1
		C14.1,7.8,14.3,8.1,14.4,8.3 M11.2,6.4c0,0.1,0,0.2,0,0.3c0,0,0,0,0,0c0,0,0.1,0,0.1,0c0.1-0.2,0.3-0.2,0.3-0.2S11.4,6.4,11.2,6.4
		 M11.9,6.9c0,0,0,0.3-0.5,0.4c0,0.1,0.1,0.1,0.2,0.2C11.9,7.2,11.9,6.9,11.9,6.9 M11,6.9c0-0.1,0-0.2,0-0.2c0-0.2,0-0.4,0.1-0.5
		c0.5,0.2,1,0.4,1,0.8c0,0.3-0.2,0.6-0.5,0.8c-0.2-0.2-0.3-0.3-0.4-0.5l0.3-0.1c0.2-0.1,0.3-0.2,0.3-0.4c0-0.1-0.1-0.1-0.2-0.1
		c0,0,0,0,0,0c-0.1,0-0.1,0.1-0.1,0.2c0,0,0,0,0,0c0,0,0,0-0.1,0L11,6.9z M14.3,4.6c0,0-0.1,0.1-0.1,0.2c0,0.1,0,0.2,0.1,0.4
		c0.1-0.1,0.1-0.2,0.1-0.3C14.5,4.8,14.4,4.6,14.3,4.6 M14.7,4.9c0,0.3-0.2,0.5-0.3,0.5c-0.1-0.1-0.2-0.4-0.2-0.7
		c0-0.1,0.1-0.3,0.3-0.3C14.5,4.5,14.7,4.7,14.7,4.9 M12.6,6.9c0,0,0,0.3,0.3,0.6C12.9,7.4,13,7.4,13,7.3
		C12.6,7.2,12.6,6.9,12.6,6.9 M13.2,6.4c-0.2,0.1-0.4,0.1-0.4,0.1s0.2,0,0.3,0.2c0,0,0,0,0.1,0c0,0,0,0,0,0
		C13.3,6.6,13.3,6.5,13.2,6.4 M12.9,7.7c-0.3-0.2-0.5-0.5-0.5-0.8c0-0.4,0.5-0.6,1-0.8c0,0.2,0.1,0.3,0.1,0.5c0,0.1,0,0.2,0,0.2
		l-0.3-0.1c0,0,0,0,0,0c0,0,0,0,0,0c0-0.1-0.1-0.1-0.1-0.2c0,0,0,0,0,0c-0.1,0-0.1,0-0.2,0.1c0,0.1,0.1,0.3,0.3,0.4l0.3,0.1
		C13.2,7.4,13.1,7.5,12.9,7.7 M18.5,8.1l0.1-0.5l0.5-0.1l-0.5-0.2l0.1-0.5l-0.4,0.4l-0.5-0.2l0,0l0.2,0.4l-0.4,0.4l0.5-0.1L18.5,8.1
		z M17.7,6.7c-0.2,0.3-0.5,0.4-0.6,0.7c-0.1,0.2,0,0.5,0.2,0.6c0,0,0.2,0.2,0.2,0.2c0.2,0.1,0.3,0.2,0.4,0.3l0,0
		c0.2,0,0.4,0.1,0.5,0.1l0.3,0.1c0,0,0.1,0,0.1,0c0.1,0,0.3,0,0.4-0.3c0.1-0.2-0.1-0.6,0.1-1C19.5,7.1,19.7,7,19.7,7l0,0
		c-0.1,0-0.2-0.1-0.3-0.1C19.3,6.8,19,6.6,19,6.3c0,0,0,0,0-0.1c0,0,0,0,0-0.1c0,0,0,0,0,0c-0.1,0.1-0.3,0.2-0.4,0.2
		c-0.1,0-0.3,0-0.4-0.1c-0.1,0-0.2-0.1-0.3-0.2l0,0C17.8,6.1,17.9,6.5,17.7,6.7 M16.9,7.3C16.9,7.2,17,7.1,17.2,7
		c0.1-0.1,0.2-0.2,0.3-0.3c0,0,0,0,0-0.1l0-0.1c0-0.1,0-0.1,0-0.2c0-0.1,0-0.2,0-0.2l0-0.1l0.1,0c0,0,0.1-0.1,0.1-0.1l0.1,0l0.1,0.1
		C18,6,18.1,6.1,18.2,6.1c0.1,0,0.2,0.1,0.3,0.1c0.1,0,0.2,0,0.3-0.1c0-0.1,0.1-0.1,0.2-0.1c0,0,0.1,0,0.1,0c0,0,0.1,0.1,0.1,0.2
		c0,0,0,0,0,0.1c0,0,0,0,0,0c0,0.2,0.3,0.4,0.4,0.5c0,0,0.2,0.1,0.3,0.1l0.1,0l0,0.3l-0.1,0.1c-0.1,0.1-0.3,0.2-0.4,0.3l0,0.1h0
		c0,0,0,0,0,0.1c0,0.1,0,0.2,0,0.3l0,0.2c0,0.1,0,0.2-0.1,0.3c0,0.1-0.1,0.1-0.2,0.2c-0.1,0.1-0.3,0.2-0.4,0.2c-0.1,0-0.1,0-0.2,0
		l-0.3-0.1c-0.1,0-0.3-0.1-0.5-0.1l-0.1,0l0,0c-0.1-0.1-0.2-0.2-0.4-0.3c0,0-0.2-0.2-0.2-0.2c-0.2-0.1-0.3-0.3-0.3-0.5
		C16.8,7.5,16.8,7.4,16.9,7.3 M9,7.8c0.1,0,0.1-0.2,0.2-0.2c0.1-0.1,0.2,0,0.2-0.2c0-0.1-0.2-0.1-0.2-0.2C9.1,7.2,9.2,7.1,9,7.1
		c-0.1,0-0.1,0.1-0.1,0.2v0.4C8.9,7.8,8.9,7.8,9,7.8 M4.2,9.3C4.1,9.3,4,9.3,4,9.3C3.9,9.4,4,9.5,4,9.6c0,0.1-0.1,0.2,0,0.3
		c0.1,0.1,0.2,0,0.3,0c0.1,0,0.2,0.1,0.3,0c0.1-0.1,0-0.2,0-0.2L4.2,9.3z M12.3,31.7c6.6,0,11.9-5.3,11.9-11.6
		c0-2.5-0.9-4.8-2.3-6.7c-0.1,0-0.4-0.2-0.5-0.6c-2.2-2.6-5.5-4.2-9.3-4.2c-3.7,0-7,1.7-9.1,4.2c0,0.2-0.1,0.4-0.2,0.4
		c-0.1,0.1-0.2,0.1-0.2,0.1c-1.4,1.9-2.3,4.3-2.3,6.8C0.3,26.6,5.7,31.8,12.3,31.7 M3.3,12.1c0,0-0.4,0.1-0.5,0.2
		c-0.1,0-0.1,0.1-0.1,0.1c0.1,0,0.1,0,0.2,0.1c0,0,0,0,0,0.1C3.1,12.3,3.1,12.3,3.3,12.1 M3.4,9.7L3.4,9.7L3.4,9.7z M1.8,12.6
		c0,0.3,0.3,0.6,0.5,0.6c0.3,0,0.5-0.2,0.5-0.5c0-0.1-0.1-0.2-0.2-0.2c0,0-0.1,0-0.1,0c0,0,0,0.1,0,0.1c0,0.1,0,0.2-0.2,0.2
		c-0.1,0-0.2-0.1-0.2-0.2c0-0.2,0.1-0.3,0.3-0.4c0.1-0.1,0.1-0.1,0.3-0.1l0.5-0.2v0c0,0,0.2-0.1,0.6-0.3c0.4-0.2,0.7-0.5,1-0.8
		c0,0,0,0,0.1-0.1c0.5-0.4,0.8-0.8,1.1-1.2C6,9.5,5.7,9.3,5.6,9.4C5.6,9.5,5.2,9.9,5,10.2l0,0c-0.2,0.2-0.4,0.4-0.7,0.4
		c-0.3,0-0.6-0.2-0.6-0.2c-0.2-0.2-0.3-0.4-0.4-0.6c0-0.3,0.1-0.5,0.2-0.6c0.4-0.5,0.9-0.5,0.9-0.5c0.1,0,0.2-0.1,0.2-0.2
		c0-0.1-0.1-0.2-0.2-0.2c0,0-0.7,0-1.2,0.6C3,9.1,2.9,9.4,2.9,9.7c0,0.3,0.2,0.6,0.5,0.9c0.2,0.2,0.5,0.3,0.7,0.3
		c-0.3,0.2-0.6,0.3-1.1,0.3c-0.1,0-0.6,0-0.7-0.1c0,0,0-0.1,0-0.1c0-0.1-0.1-0.2-0.2-0.2C2.1,10.8,2,10.9,2,11
		c0,0.4,0.3,0.6,1.1,0.6l0.1,0L3,11.6l-0.5,0.2c-0.1,0-0.2,0.1-0.3,0.1C1.9,12.1,1.8,12.4,1.8,12.6 M3.5,8.2V7.9H3.3V7.7h0.9
		c0-0.2,0-0.3-0.3-0.4H2.3v0.4h0.1l0,0.3H2.3v0.3h0.5V7.9H2.7V7.7h0.4v0.3H3v0.3L3.5,8.2z M4.5,8.1C4.4,8,4.4,7.9,4.3,7.9H3.7v0.4
		C4,8.1,4.4,8.1,4.4,8.1C4.4,8.1,4.5,8.1,4.5,8.1 M4.8,9.4C4.8,9.4,4.8,9.4,4.8,9.4l0.4-0.5c0,0,0-0.2-0.1-0.2
		C5,8.5,4.9,8.5,4.9,8.5L4.4,9.1c0,0,0,0,0,0C4.3,9,4.2,8.9,4.1,8.9c0,0,0,0,0,0C3.9,8.9,3.8,9,3.7,9.1C3.6,9.2,3.6,9.3,3.6,9.4
		c0,0.1,0.1,0.2,0.1,0.2c0,0,0,0.1,0,0.2c0,0.2,0.2,0.5,0.5,0.5c0.1,0,0.2,0,0.2-0.1c0,0,0.1,0,0.2,0C4.8,10.2,5,10,5,9.7
		C5,9.6,4.9,9.5,4.8,9.4 M5.1,9.4c0,0.1,0.1,0.2,0.1,0.3v0c0.1-0.1,0.2-0.3,0.3-0.4C5.4,9.3,5.4,9.2,5.3,9.1
		C5.2,9.3,5.1,9.4,5.1,9.4 M4.6,6.4C4.1,6.7,3.9,7,4.1,7.2c0.5,0.7,1.7,2.1,1.7,2.2c0,0,0.4-0.4,0.9-0.6c0.6-0.2,1.1-0.3,1.1-0.3
		c0,0-0.3-1.8-0.6-2.7C7.2,5.6,7,5.5,6.8,5.5c-0.4,0-0.7,0.1-0.8,0.1c-0.1,0-0.1,0-0.1-0.1C5.7,5.5,5.5,5.3,5.2,5.5
		C4.9,5.6,4.9,5.9,4.9,6C4.9,6.1,4.7,6.3,4.6,6.4L4.6,6.4 M7.3,5.7c0,0.2,0,0.3,0.2,0.4c0,0,0,0,0,0l0.6-0.6l0.2,0.2L8.2,5.8L8.4,6
		l0.3-0.4L8.5,5.4L8.5,5.5L8.2,5.3l0.2-0.3l0.2,0.2L8.6,5.3l0.2,0.2l0.3-0.4L8.9,4.9L8.9,5L8.6,4.9l0.1-0.1L8.4,4.5L7.3,5.7z
		 M8.6,6.1C8.8,6.1,8.9,6,9.1,6c0.1,0,0.2,0,0.4,0.1C9.5,6,9.6,5.9,9.7,5.7C9.4,5.6,9.3,5.3,9.3,5.3L8.6,6.1z M8.5,8.2
		C8.5,8.2,8.5,8.2,8.5,8.2C8.4,8.1,8.4,8,8.3,7.9H8c0,0.1,0,0.2,0,0.3C8.1,8.2,8.3,8.2,8.5,8.2 M7.7,6.7c0-0.1,0.3-0.4,0.7-0.5
		C8.2,6.1,8,5.9,8,5.9C8,6,7.8,6.2,7.6,6.4L7.7,6.7 M7.7,7.2c-0.1,0.2,0,0.3,0.1,0.4c0,0,0,0,0,0l0,0h0.6c0,0,0,0,0,0
		C8.5,8,8.7,8.2,9,8.2c0.3,0,0.4-0.3,0.5-0.3c0.1,0,0.3-0.1,0.3-0.4C9.8,7.2,9.5,7,9.4,7C9.4,7,9.3,6.7,9,6.7
		c-0.3,0-0.5,0.2-0.5,0.5c0,0,0,0,0,0L7.7,7.2L7.7,7.2 M7.3,9.1c0,0.1-0.1,0.2-0.2,0.3c0.5-0.2,1-0.4,1.5-0.6c-0.3,0-0.5,0-0.7,0
		c-0.2,0-0.5,0-0.5,0C7.3,8.9,7.3,9,7.3,9.1C7.3,9.1,7.3,9.1,7.3,9.1 M7.1,9.4c-0.1,0-0.3,0-0.4-0.1c0,0-0.2-0.1-0.2-0.1
		c-0.1,0-0.2,0.3-0.3,0.4C6,9.8,5.8,10,5.6,10.2C6.1,9.9,6.6,9.7,7.1,9.4 M7,9.1c0,0,0-0.2,0.1-0.4C6.9,8.8,6.7,8.9,6.5,9
		c0.2,0,0.3,0.2,0.3,0.2c0,0,0.1,0,0.1,0C7,9.2,7.1,9.2,7,9.1 M10.1,4.1c-0.4,0-0.7,0.4-0.7,0.8c0,0.5,0.4,0.7,0.5,0.8
		C9.9,5.8,9.7,6.1,9.5,6.3c-0.1,0-0.2-0.1-0.4-0.1c-0.8,0-1.2,0.5-1.2,0.5c0,0,0,0.1,0,0.1c0,0,0,0.1,0.1,0.1c0,0,0.1,0,0.1,0
		c0,0,0.1,0,0.1-0.1c0,0,0.3-0.4,1-0.4c0.2,0,0.4,0.1,0.6,0.3C9.9,7,10,7.2,10,7.5c0,0.4-0.3,0.9-1,0.9l-0.1,0c-0.3,0-0.8,0-0.9,0
		c-0.1,0-0.1,0.3,0,0.3c0.2,0,0.5,0,0.8,0c1.6,0,2.6-0.5,2.8-0.6c0.1,0.1,0.5,0.4,0.7,0.4c0.1,0,0.5-0.3,0.7-0.4
		c0.1,0.1,0.8,0.4,2.2,0.5l0.1,0l-0.1-0.1l-0.1-0.1c0,0-0.1-0.1-0.1-0.1l0-0.1l0,0c-0.5-0.2-0.5-0.7-0.5-0.8c0-0.2,0-0.3,0.1-0.4
		l0,0l0,0c0,0,0,0,0,0c0-0.1,0.1-0.3,0.2-0.3h0c0,0,0-0.2,0.3-0.3l0.2-0.2c0,0-0.3,0.1-0.3,0.1c-0.1-0.1-0.3-0.3-0.5-0.6
		C14.8,5.5,15,5.3,15,4.9c0-0.4-0.3-0.8-0.7-0.8c-0.3,0-0.6,0.3-0.6,0.6c0,0.3,0.2,0.7,0.3,0.8c-0.1,0-0.3,0.1-0.4,0.2
		c0-0.1-0.1-0.4-0.3-0.7l0,0l0,0c-0.1,0.1-0.1,0.1-0.2,0.1l0,0l0,0c0.1,0.2,0.2,0.4,0.3,0.6c-0.4,0.1-0.8,0.3-1.1,0.6
		C12,6.2,11.6,6,11.2,5.8c0-0.1,0.1-0.3,0.3-0.6l0,0l0,0c-0.1,0-0.1-0.1-0.2-0.1l0,0l0,0.1c-0.2,0.3-0.3,0.5-0.3,0.7
		c-0.1,0-0.3-0.1-0.4-0.2c0.1-0.1,0.3-0.5,0.3-0.8C10.7,4.5,10.5,4.1,10.1,4.1 M11,5c0-0.1-0.1-0.1-0.1-0.2c0,0.2-0.1,0.4-0.2,0.6
		c0,0,0.1,0,0.1,0C10.8,5.4,10.9,5.2,11,5 M13,5.5c-0.2,0.2-0.5,0.3-0.7,0.3c-0.2,0-0.5-0.1-0.7-0.3c-0.1,0.1-0.1,0.2-0.1,0.3
		C11.7,5.9,12,6,12.2,6.2c0.2-0.2,0.5-0.4,0.9-0.5C13.1,5.7,13,5.6,13,5.5 M13.8,5.5c-0.1-0.2-0.2-0.4-0.2-0.6
		c0,0.1-0.1,0.1-0.1,0.2C13.6,5.2,13.6,5.4,13.8,5.5C13.7,5.5,13.8,5.5,13.8,5.5 M12.2,5.4c0.5,0,1.1-0.6,1.5-1.3h-0.4
		c-0.3,0.5-0.7,0.9-1,0.9c-0.3,0-0.8-0.4-1-0.9h-0.4C11.1,4.8,11.8,5.4,12.2,5.4 M10.1,3.9h4.2V3.6h-4.2V3.9z M11.6,2.3
		c-0.6,0-1,0.4-1,1.1v0H11c0-0.4,0.2-0.7,0.7-0.7c0.3,0,0.5,0.2,0.6,0.3c0.1-0.1,0.3-0.3,0.6-0.3c0.5,0,0.7,0.4,0.7,0.7h0.4
		c0,0,0,0,0,0c0-0.6-0.4-1.1-1-1.1c-0.2,0-0.3,0-0.4,0.1V1.2h0.6V0.8h-0.6V0.3h-0.4v0.6h-0.6v0.4h0.6v1.2
		C11.9,2.3,11.8,2.3,11.6,2.3 M15.5,5.4c-0.2,0-0.3-0.2-0.3-0.2s-0.1,0.3-0.4,0.5C14.8,5.9,14.9,6,15,6.1c0.1,0,0.2-0.1,0.3-0.1
		c0.1-0.1,0.3-0.3,0.4-0.3c0,0,0,0,0,0C15.6,5.6,15.5,5.5,15.5,5.4 M14.9,8c0-0.1-0.1-0.2-0.1-0.2l0-0.2c0,0,0.1-0.1,0.2-0.2
		c0,0-0.1-0.1-0.1-0.1c-0.1,0-0.1,0-0.2-0.1c0,0.1,0,0.1,0,0.2v0C14.6,7.6,14.7,7.8,14.9,8 M16.6,8.8c-0.2,0-0.5,0-0.7,0
		c0.5,0.2,1,0.3,1.5,0.6c-0.1-0.1-0.2-0.2-0.2-0.3c0-0.1,0-0.2,0-0.2c0,0-0.1-0.1-0.1-0.1C16.9,8.8,16.7,8.8,16.6,8.8 M15.6,8.2
		c0.3,0,0.6,0,0.8,0c0,0-0.1-0.1-0.1-0.1c0,0,0,0,0,0c-0.1,0-0.2,0-0.2,0l-0.2-0.2c0,0-0.1,0-0.1,0c0,0-0.1,0-0.1,0
		s-0.1-0.1-0.1-0.1l0-0.1c0,0-0.1,0.1-0.1,0.2c0,0.1,0,0.1,0,0.1C15.5,7.9,15.5,8,15.6,8.2C15.5,8.2,15.6,8.2,15.6,8.2 M15.6,8.7
		l1,0c0.2,0,0.1-0.3-0.1-0.3c-0.2,0-0.9,0-0.9,0v0.1v0l0,0c0,0,0,0.1,0,0.1C15.7,8.6,15.7,8.6,15.6,8.7L15.6,8.7z M19,9.4
		c0.1,0.2,0.3,0.3,0.4,0.5c0-0.1,0.1-0.1,0.1-0.1l-0.2-0.1c-0.1-0.1-0.1-0.2-0.1-0.3c0,0,0,0,0-0.1C19.2,9.4,19.1,9.4,19,9.4
		 M18.8,10.2c-0.2-0.2-0.3-0.4-0.5-0.6c-0.1-0.1-0.2-0.3-0.3-0.4c-0.1,0-0.1,0-0.1,0c0,0-0.1,0-0.1,0.1c-0.1,0.1-0.2,0.1-0.4,0.1
		C17.9,9.7,18.4,9.9,18.8,10.2 M18.5,9.5c0.1,0.2,0.3,0.4,0.6,0.7l0,0l0,0c0,0,0.1-0.1,0.2-0.1h0.1L19.4,10
		c-0.2-0.2-0.4-0.5-0.6-0.7C18.7,9.3,18.3,9.3,18.5,9.5 M15.5,5l-0.2,0c0,0.1,0.3,0.2,0.4,0.2c0,0,0,0,0,0.1c0,0.1,0.2,0.2,0.3,0.3
		l0,0.2c0,0-0.1,0.2-0.3,0.4c-0.1,0-0.1,0.1-0.2,0.1c-0.1,0.1-0.2,0.2-0.2,0.2c0,0-0.2,0.1-0.2,0.2c0,0.1-0.1,0.2-0.1,0.3
		c0,0-0.1,0-0.1,0c0,0,0,0,0,0c0-0.1-0.1-0.1-0.1,0c0,0,0,0.1,0,0.1c0,0.1,0.1,0.1,0.2,0.1c0,0.1,0.1,0.1,0.1,0.1
		c0,0,0.1,0.1,0.1,0.1c0,0.1-0.1,0.3-0.2,0.4l0,0.1c0,0,0,0.1,0.1,0.2c0,0.1,0.1,0.3,0.1,0.4l0.1,0.1l0,0.1l0,0c0,0,0.1,0.1,0.2,0
		c0,0,0-0.1,0-0.1c0,0-0.1-0.1-0.2-0.2c0,0-0.1-0.1-0.1-0.1c0-0.2,0-0.3-0.1-0.5c0,0,0.2-0.1,0.2-0.3c0.1-0.1,0.2-0.2,0.2-0.3
		c0,0,0.1,0,0.1,0.1c0,0.1,0,0.2,0,0.2l0.1,0.1c0.2,0,0.3,0.3,0.3,0.3l0.2,0l0.1,0.1l0,0c0.1,0.2,0.2,0.3,0.3,0.5l0,0l0.3,0.2
		c0.1,0.1,0.2,0.1,0.2,0.2c0.1,0.1,0,0.3,0,0.3c0,0,0,0.1,0.1,0.1c0,0,0.1,0,0.1,0c0,0,0.2-0.2,0.3-0.2c0.1,0,0.2,0,0.3,0.1l0.4,0.1
		h0c0.2,0,0.3,0,0.5,0c0,0,0,0,0,0l0,0c0.1,0,0.2,0,0.3,0l0.1,0.2c0,0,0,0.2,0,0.2c0.1,0,0.3-0.1,0.3-0.1c0,0,0,0,0,0.1
		c0,0.1-0.1,0.1-0.1,0.3l-0.2,0.4c-0.1,0-0.2-0.1-0.3-0.1c0,0-0.1,0-0.1,0l0,0c0,0,0.1,0,0.1,0c0,0,0,0,0.1,0
		c-0.1,0-0.2,0.1-0.2,0.1l0,0c0,0,0.1-0.1,0.2-0.1c0,0,0.1,0,0.1,0c0,0.1-0.1,0.1-0.1,0.1l0,0c0,0,0.1-0.1,0.2-0.1
		c0.1,0,0.2,0.1,0.2,0.1l0.1,0c0-0.1-0.1-0.2-0.1-0.2l0.2-0.4c0,0,0.1,0,0.1,0c0,0.1,0.1,0.1,0.1,0.1l0.1-0.3l-0.1,0.4
		c0,0,0.1,0.1,0.1,0.1h0l0.2,0c0,0,0,0,0,0c0,0,0.1-0.4,0.1-0.5c0,0,0-0.2,0-0.2c0,0,0,0,0.1,0c0.1,0,0.3-0.2,0.4-0.2
		c0,0.1-0.1,0.2-0.1,0.3c0,0.1,0,0.2,0,0.2c0,0.1-0.1,0.2-0.1,0.3c0,0,0,0,0,0C20.9,10,21,9.9,21,9.7l0-0.1c0-0.2-0.1-0.4-0.1-0.4
		c-0.1-0.1-0.1-0.2-0.1-0.3c0-0.1,0-0.2,0.1-0.2c0.1-0.1,0.1-0.1,0.2-0.1c0.1,0,0.2,0,0.3,0.1c0.2,0.2,0.3,0.5,0.3,0.9l0,0.1
		c0,0.1,0,0.2,0,0.2c0.2-0.3,0.3-0.5,0.3-0.8c0.1-0.5,0-0.7,0-1c0-0.2,0-0.4-0.3-0.4c-0.2,0-0.2,0.6-0.6,0.6c0,0-0.1,0-0.1-0.1
		l0-0.2c0.1,0,0.2-0.1,0.2-0.2c0,0,0-0.1,0-0.1c0.2-0.1,0.2-0.2,0.2-0.3l0.2-0.1l-0.1-0.1l0-0.1l-0.1,0l0-0.1l-0.1,0l0-0.1l-0.1,0.2
		c-0.1,0-0.1,0-0.2,0c0,0-0.1,0-0.2,0.1l0,0.1c0.1,0,0.2,0,0.2,0.1C21,7.5,21,7.5,21,7.6l0,0.1c0,0-0.2-0.1-0.2-0.1
		c-0.1,0-0.2,0.1-0.2,0.1c0,0-0.1,0-0.1,0l0,0c0,0-0.1-0.1-0.1-0.1c0-0.1,0.2-0.2,0.3-0.3c-0.1,0-0.3,0.2-0.3,0.2
		C20,7.6,20,7.7,20,8.1c0,0.4-0.1,0.6-0.1,0.6s0,0.3,0,0.4c0,0.1-0.3,0.3-0.3,0.3l-0.2-0.3c0,0,0,0,0-0.1c0,0,0,0,0,0
		c0.1-0.1,0.2-0.2,0.2-0.3c0.1-0.2,0.1-0.4,0.1-0.6c0-0.6,0-0.6,0.6-0.9l-0.1-0.7l-0.1,0c-0.1,0-0.2,0-0.4-0.1
		c-0.1,0-0.3-0.2-0.3-0.3c0-0.3,0-0.4-0.3-0.5c-0.2-0.1-0.4-0.1-0.6,0.2c0,0-0.1,0-0.2,0c-0.5,0-0.6-0.4-0.6-0.4l-0.5,0.3
		c0,0-0.1-0.1-0.2-0.2c-0.1,0-0.2-0.2-0.3-0.1c0,0-0.2,0.2-0.2,0.2c0,0-0.1,0.1-0.1,0.2c0-0.1-0.2-0.2-0.3-0.3
		c-0.1,0-0.1-0.1-0.1-0.1c0,0,0.3-0.1,0.2-0.2C16.3,5,16.1,5,16.1,5c-0.1,0-0.1-0.1-0.2-0.1l-0.1-0.2l0,0.1l-0.1-0.1l0,0.2l-0.1-0.1
		L15.5,5l-0.1-0.1L15.5,5z M21.5,12.5c0,0,0.1-0.1,0.2-0.1c0,0,0,0-0.1-0.1L21.1,12C21.3,12.2,21.4,12.3,21.5,12.5 M21.5,9.7
		c0,0,0-0.1,0-0.1c0-0.3-0.1-0.6-0.3-0.8c-0.1-0.1-0.1-0.1-0.2-0.1c0,0-0.1,0-0.1,0c0,0,0,0.1,0,0.1C20.9,9,21,9,21,9.1
		c0.1,0.1,0.2,0.3,0.2,0.6c0,0,0,0.1,0,0.1c0,0.2-0.1,0.5-0.4,0.6c-0.1,0.1-0.3,0.2-0.7,0.2c0,0,0,0-0.1,0c0,0,0,0,0,0l-0.1,0
		c0,0,0,0.2,0,0.3c-0.1,0.1-0.3,0-0.3,0l0,0l0.1,0.1c0.3,0.3,0.6,0.5,0.9,0.7l0,0c0.1,0,0.6,0.3,0.6,0.3l0.5,0.2
		c0.1,0,0.2,0.1,0.3,0.1c0.2,0.1,0.3,0.3,0.3,0.4c0,0.2-0.1,0.3-0.2,0.3c-0.1,0-0.2,0-0.2-0.2c0-0.1-0.1-0.2-0.2-0.2
		c-0.1,0-0.2,0.1-0.2,0.2c0,0.3,0.2,0.5,0.5,0.5c0.3,0,0.5-0.3,0.5-0.6c0-0.3-0.2-0.5-0.5-0.7c-0.1-0.1-0.2-0.1-0.3-0.1
		c0,0,0,0-0.5-0.2c0,0-0.1-0.1-0.2-0.1l0.1,0c0.3,0,1.1,0,1.1-0.6c0-0.1-0.1-0.2-0.2-0.2c0,0-0.1,0-0.1,0c0,0,0,0.1,0,0.1
		c0,0.1-0.1,0.2-0.7,0.2c-0.4,0-0.8-0.2-1.1-0.3c0.3,0,0.5-0.1,0.7-0.3C21.3,10.4,21.5,10.1,21.5,9.7 M22.3,13.4
		c1.4,1.9,2.2,4.2,2.2,6.7C24.5,26.6,19,32,12.3,32C5.6,32,0,26.8,0,20.2c0-2.5,0.8-4.9,2.2-6.8c-0.3-0.1-0.6-0.4-0.6-0.8
		c0-0.6,0.7-0.9,0.8-1c-0.1,0-0.5-0.2-0.5-0.7c0-0.2,0.2-0.4,0.4-0.4c0.2,0,0.4,0.2,0.4,0.4c0,0,0.2,0,0.5,0c0.1,0,0.3,0,0.4-0.1
		c-0.1,0-0.8-0.5-0.8-1.3c0-0.7,0.5-1.1,0.5-1.1H2V7h1.7c0-0.3,0.2-0.5,0.6-0.8c0,0,0.1,0,0.1,0C4.5,6.1,4.6,6,4.6,6
		c0,0,0-0.1,0-0.1c0-0.4,0.3-0.6,0.5-0.7C5.2,5.1,5.6,5,6,5.4c0.1,0,0.4-0.1,0.8-0.1c0.2,0,0.4,0,0.5,0.1l1.1-1.3l0.1,0
		c0,0,0.5,0.4,0.5,0.4l0.3,0.2c0-0.4,0.3-0.7,0.7-0.8V3.4h0.4c0-0.8,0.5-1.4,1.3-1.4c0.1,0,0.1,0,0.2,0V1.5h-0.6V0.6h0.6V0h1v0.6
		h0.6v0.9h-0.6V2c0,0,0.1,0,0.1,0c0.8,0,1.3,0.6,1.3,1.4v0h0.3V4c0.3,0.1,0.6,0.3,0.7,0.7c0,0,0.6-0.5,0.6-0.5c0,0,0.1,0,0.1,0
		c0,0,0.1,0.3,0.2,0.4c0,0,0.1,0,0.1,0c0.2,0,0.4,0.2,0.4,0.4c0,0,0,0.1,0,0.1c0.1-0.1,0.1-0.1,0.2-0.2c0.2-0.1,0.3,0,0.7,0.3
		L17.9,5l0.2,0.4c0,0,0.1,0.1,0.2,0.1c0.1,0,0.1,0,0.1,0c0.3-0.3,0.7-0.3,0.9-0.2c0.3,0.1,0.4,0.4,0.4,0.7c0,0,0,0.1,0,0.1
		c0,0,0.1,0.1,0.1,0.1c0.1,0,0.2,0.1,0.2,0.1c0,0,0.4-0.1,0.4-0.1l0.1,0l0.1,0.6c0,0,0,0,0.1,0c0,0,0,0,0.1,0.1
		c0.1,0,0.2-0.1,0.2-0.1c0,0,0.2-0.3,0.2-0.3c0,0,0.1,0,0.1,0c0,0,0.6,0.9,0.6,0.9c0.3,0.1,0.4,0.5,0.4,0.6l0,0.2c0,0.1,0,0.2,0,0.4
		c0,0.2,0,0.4-0.1,0.6c-0.1,0.4-0.2,0.6-0.5,1.1c-0.1,0.2-0.3,0.2-0.4,0.3c-0.1,0.1-0.3,0.3-0.4,0.3c0.1,0,0.3,0.1,0.4,0.1
		c0.3,0,0.5,0,0.5,0c0-0.1,0.1-0.2,0.1-0.2c0.1-0.1,0.2-0.1,0.3-0.1c0.2,0,0.4,0.2,0.4,0.4c0,0.3-0.2,0.6-0.5,0.7
		c0.1,0,0.1,0.1,0.2,0.1c0.5,0.3,0.6,0.6,0.6,0.9C22.9,13,22.6,13.4,22.3,13.4 M12.4,28.6c4.7-0.1,8.5-3.8,8.6-8.4h-8.6V28.6
		 M12.4,20H21c-0.1-4.5-3.9-8.2-8.6-8.3V20z M12.1,11.7c-4.7,0.1-8.5,3.8-8.6,8.3h8.6V11.7z M12.1,20.3H3.5c0.1,4.6,3.9,8.3,8.6,8.4
		V20.3z M21.3,20.2c0,4.8-4.1,8.8-9,8.8c-5,0-9-3.9-9-8.8c0-4.8,4.1-8.8,9-8.8C17.2,11.4,21.3,15.3,21.3,20.2 M5,26.5
		c0,0-0.1-0.1-0.2-0.2c0,0,0,0-0.1,0c0,0,0,0,0,0c0.1,0.1,0.1,0.1-0.1,0.3l-0.7,0.6c0,0,0,0-0.1,0c-0.1-0.1-0.1-0.3,0.1-0.4
		c0.1-0.1,0.3-0.1,0.4,0c0,0,0.1,0,0.1,0c0,0,0-0.1,0-0.1c-0.2-0.2-0.5-0.2-0.7-0.1c-0.2,0.2-0.1,0.4,0,0.6c0.1,0.1,0.1,0.1,0.2,0.2
		c0,0,0.1,0.1,0.2,0.2c0,0,0,0,0.1,0c0,0,0,0,0,0c-0.1-0.1-0.1-0.1,0-0.2l0.7-0.6c0.2-0.2,0.2-0.2,0.3-0.1c0,0,0,0,0,0
		c0,0,0,0,0-0.1C5.1,26.6,5.1,26.5,5,26.5 M2.7,25.8c0.1,0.2,0.4,0.3,0.8,0.1C3.8,25.7,4,25.3,3.8,25C3.7,24.9,3.5,24.7,3,25
		C2.7,25.2,2.6,25.5,2.7,25.8 M3.9,25.1c0.3,0.5,0.1,0.9-0.2,1c-0.3,0.2-0.8,0.2-1.1-0.3c-0.3-0.4-0.2-0.8,0.2-1
		C3.2,24.6,3.7,24.6,3.9,25.1 M3.3,24.1C3.3,24.1,3.3,24.1,3.3,24.1C3.3,24.1,3.3,24.1,3.3,24.1c0-0.1,0-0.2,0-0.2
		c0,0,0-0.1-0.1-0.2c0,0,0,0,0,0c0,0,0,0,0,0c0,0.1,0,0.2-0.1,0.2l-0.7,0.3l0.6-1.3c0,0,0-0.1,0-0.1c0,0,0,0-0.1,0l-1.2,0.4
		c-0.1,0-0.2,0-0.2-0.1c0,0,0,0,0,0c0,0,0,0,0,0.1c0,0.1,0.1,0.2,0.1,0.2c0,0,0,0.1,0.1,0.2c0,0,0,0.1,0,0c0,0,0,0,0,0
		c0-0.1,0-0.2,0.1-0.2L2.5,23l-0.7,1.3c0,0,0,0.1,0,0.1c0,0,0,0,0.1,0L3,24C3.2,24,3.2,24,3.3,24.1 M1.5,22.6
		C1.6,22.6,1.6,22.6,1.5,22.6C1.6,22.6,1.6,22.6,1.5,22.6c-0.1-0.1-0.1-0.1-0.2-0.2l-0.1-0.3l1-0.2c0.3-0.1,0.3,0,0.3,0.1
		c0,0,0,0,0,0c0,0,0,0,0,0c0-0.1,0-0.2,0-0.2c0-0.1,0-0.2,0-0.3c0,0,0,0,0,0c0,0,0,0,0,0c0,0.1,0,0.2-0.3,0.2l-0.9,0.2l0-0.2
		c0-0.2,0-0.2,0.1-0.2c0,0,0,0,0,0c0,0,0,0,0,0c-0.1,0-0.2,0-0.2,0c0,0-0.1,0,0,0c0,0,0,0.1,0.1,0.2l0.1,0.8c0,0.1,0,0.2,0,0.2
		c0,0,0,0,0.1,0C1.3,22.6,1.5,22.6,1.5,22.6 M1.1,21c0-0.1,0-0.1,0.1-0.1c0.1,0,0.1,0,0.4,0l0.3,0c0.2,0,0.3,0,0.4,0
		c0.1,0,0.1,0,0.1,0.1c0,0,0,0,0,0c0,0,0,0,0,0c0-0.1,0-0.2,0-0.2c0-0.1,0-0.2,0-0.3c0,0,0,0,0,0c0,0,0,0,0,0c0,0.1,0,0.2-0.1,0.2
		c-0.1,0-0.2,0-0.4,0l-0.3,0c-0.3,0-0.3,0-0.4,0c-0.1,0-0.1,0-0.1-0.1c0,0,0,0,0,0c0,0,0,0,0,0.1c0,0.1,0,0.2,0,0.2
		C1,20.8,1,20.9,1.1,21C1.1,21,1.1,21,1.1,21C1.1,21,1.1,21,1.1,21 M1,19.9C1.1,19.9,1.1,19.8,1,19.9c0-0.2,0.1-0.2,0.3-0.2l0.9,0.1
		c0.3,0,0.3,0,0.3,0.1c0,0,0,0,0,0c0,0,0,0,0,0c0-0.1,0-0.2,0-0.2c0,0,0-0.2,0-0.3c0,0,0-0.1,0-0.1c0,0,0,0,0,0c0,0.1,0,0.2-0.3,0.2
		l-0.3,0c0,0,0,0,0,0c0,0,0-0.2,0-0.3c0-0.1,0.1-0.1,0.1-0.1c0,0,0,0,0,0c0,0,0,0,0,0c-0.1,0-0.2,0-0.3,0c0,0,0,0,0,0
		c0,0,0.1,0,0,0.1l0,0.3c0,0,0,0,0,0l-0.6,0c0,0,0,0,0,0l0-0.3c0-0.1,0-0.1,0.1-0.1c0,0,0,0,0.1,0c0,0,0,0,0,0c0,0,0,0,0,0
		c0,0-0.1,0-0.2,0c0,0,0,0-0.1,0c0,0,0,0,0,0c0,0,0,0,0,0c0,0,0,0,0,0l0,0c0,0,0,0.1,0,0.1c0,0,0,0.4,0,0.5C1,19.6,1,19.7,1,19.9
		C1,19.8,1,19.9,1,19.9 M1.2,18.4c0-0.1,0.1-0.1,0.1-0.1c0.1,0,0.1,0,0.4,0.1l0.3,0.1c0.2,0,0.3,0.1,0.4,0.1c0.1,0,0.1,0.1,0.1,0.1
		c0,0,0,0,0,0c0,0,0,0,0,0c0-0.1,0-0.2,0-0.2c0,0,0-0.2,0.1-0.3c0,0,0-0.1,0-0.1c0,0,0,0,0,0c0,0.1,0,0.2-0.1,0.1
		c-0.1,0-0.2,0-0.4-0.1l-0.3-0.1c-0.3-0.1-0.3-0.1-0.4-0.1c-0.1,0-0.1-0.1-0.1-0.1c0,0,0,0,0,0c0,0,0,0,0,0c0,0.1,0,0.2,0,0.2
		C1.2,18.2,1.2,18.3,1.2,18.4C1.2,18.4,1.2,18.4,1.2,18.4C1.2,18.4,1.2,18.4,1.2,18.4 M2.1,17.5c0.5,0.2,0.9-0.1,1.1-0.6
		c0-0.1,0.1-0.3,0.1-0.3c0,0,0-0.1,0-0.1c-0.1,0-0.2-0.1-0.2-0.1c0,0,0,0,0,0c0,0,0,0,0,0c0.1,0.1,0.2,0.2,0.1,0.5
		c-0.1,0.3-0.4,0.5-0.8,0.3c-0.3-0.1-0.5-0.3-0.4-0.7c0.1-0.2,0.2-0.4,0.4-0.3c0,0,0.1,0,0.1,0c0,0,0,0,0,0c0,0-0.1,0-0.2-0.1
		c-0.1,0-0.1,0-0.1,0c0,0,0,0,0,0c0,0.1-0.1,0.2-0.2,0.4C1.5,16.9,1.6,17.3,2.1,17.5 M2.2,15.5c0-0.1,0.1-0.1,0.1-0.1
		c0.1,0,0.1,0,0.4,0.2L3,15.8c0.2,0.1,0.3,0.1,0.4,0.2c0.1,0,0.1,0.1,0,0.1c0,0,0,0,0,0c0,0,0,0,0.1,0c0-0.1,0.1-0.2,0.1-0.2
		c0,0,0.1-0.1,0.1-0.3c0,0,0,0,0-0.1c0,0,0,0,0,0c0,0.1-0.1,0.1-0.2,0.1c-0.1,0-0.2-0.1-0.4-0.2l-0.3-0.1c-0.3-0.1-0.3-0.2-0.4-0.2
		c-0.1,0-0.1-0.1,0-0.2c0,0,0,0,0,0c0,0,0,0,0,0c0,0.1-0.1,0.2-0.1,0.2C2.2,15.3,2.2,15.4,2.2,15.5C2.1,15.5,2.1,15.5,2.2,15.5
		C2.1,15.5,2.2,15.5,2.2,15.5 M3.3,14.2L3.3,14.2C3.3,14.2,3.3,14.2,3.3,14.2l0.3,0.5l0.2-0.3L3.3,14.2z M3,14C3,14,3,14,3,14
		c0-0.1,0-0.1,0.1-0.1c0.1,0,0.9,0.2,1.3,0.3c0.1,0,0.2,0,0.3,0c0,0,0,0,0,0c0,0,0,0,0,0.1c0,0-0.1,0.1-0.1,0.1c0,0-0.1,0.1-0.1,0.2
		c0,0-0.1,0.1-0.1,0c0,0,0,0,0,0c0,0,0.1-0.1,0-0.1L4,14.4c0,0,0,0,0,0l-0.3,0.4c0,0,0,0,0,0L3.8,15c0,0,0.1,0.1,0.1,0.1
		c0,0,0,0,0.1,0c0,0,0,0,0.1,0c0,0,0,0,0,0c0,0-0.1,0.1-0.1,0.2c0,0-0.1,0.1-0.1,0.2c0,0,0,0,0,0c0,0,0,0,0,0c0.1-0.1,0.1-0.2,0-0.3
		L3,14z M4.5,12.3c0.1-0.1,0.1-0.1,0.3,0.1l0.4,0.4c0.3,0.3,0.6,0.4,0.9,0.1c0.3-0.3,0.3-0.6,0-0.9l-0.3-0.4
		c-0.1-0.1-0.1-0.2-0.1-0.2c0,0,0,0,0-0.1c0,0,0,0-0.1,0c-0.1,0-0.1,0.1-0.2,0.1c0,0-0.1,0.1-0.2,0.1c0,0,0,0,0,0.1c0,0,0,0,0.1,0
		c0.1-0.1,0.1-0.1,0.3,0.1l0.3,0.4c0.2,0.3,0.3,0.5,0.1,0.7c-0.2,0.2-0.5,0.1-0.6-0.2L5,12.2c-0.1-0.1-0.1-0.2,0-0.2c0,0,0,0,0,0
		c0,0,0,0-0.1,0c-0.1,0-0.1,0.1-0.2,0.2C4.6,12.2,4.6,12.2,4.5,12.3C4.4,12.3,4.4,12.3,4.5,12.3C4.5,12.4,4.5,12.4,4.5,12.3 M6.9,12
		c0.1,0.2,0.1,0.2,0,0.2c0,0,0,0,0,0c0,0,0,0,0.1,0c0.1,0,0.2-0.1,0.2-0.1c0,0,0.1,0,0.2-0.1c0,0,0,0,0-0.1c0,0,0,0,0,0
		C7.2,12,7.1,12,7,11.9l-0.4-0.7L8,11.6c0,0,0.1,0,0.1,0c0,0,0,0,0-0.1l-0.6-1c-0.1-0.1-0.1-0.1,0-0.2c0,0,0,0,0,0c0,0,0,0-0.1,0
		c-0.1,0-0.1,0.1-0.2,0.1c0,0-0.1,0.1-0.2,0.1c0,0,0,0,0,0.1c0,0,0,0,0,0c0.1-0.1,0.2,0,0.2,0.1l0.4,0.7l-1.4-0.4c0,0-0.1,0-0.1,0
		c0,0,0,0,0,0.1L6.9,12z M8.2,10.1c0.1,0,0.1,0,0.2,0.1c0,0.1,0,0.1,0.1,0.4l0.1,0.3c0.1,0.2,0.1,0.3,0.1,0.4c0,0.1,0,0.1-0.1,0.1
		c0,0,0,0,0,0c0,0,0,0,0.1,0c0.1,0,0.2-0.1,0.2-0.1c0,0,0.2-0.1,0.3-0.1c0,0,0,0,0,0c0,0,0,0,0,0c-0.1,0-0.2,0-0.2,0
		c0-0.1-0.1-0.2-0.2-0.4l-0.1-0.3c-0.1-0.3-0.1-0.3-0.1-0.4c0-0.1,0-0.1,0.1-0.1c0,0,0,0,0,0c0,0,0,0-0.1,0c-0.1,0-0.2,0.1-0.2,0.1
		C8.3,10,8.2,10,8.2,10.1C8.1,10,8.1,10.1,8.2,10.1C8.1,10.1,8.1,10.1,8.2,10.1 M9.1,9.8c0.1,0,0.2,0,0.2,0.1l0.8,1.1
		c0,0,0.1,0.1,0.1,0.1c0,0,0,0,0.1-0.1l0.3-1.2c0-0.2,0.1-0.2,0.1-0.2c0,0,0,0,0,0c0,0,0,0-0.1,0c-0.1,0-0.1,0-0.2,0
		c-0.1,0-0.1,0-0.2,0c0,0-0.1,0-0.1,0c0,0,0,0,0,0c0.1,0,0.1,0,0.1,0c0,0,0,0,0,0.1l-0.2,1L9.6,9.8c0-0.1-0.1-0.1-0.1-0.1
		c0,0,0-0.1,0.1-0.1c0,0,0,0,0,0c0,0,0,0-0.1,0c-0.1,0-0.2,0-0.2,0.1C9.3,9.7,9.2,9.7,9.1,9.8C9.1,9.7,9,9.7,9.1,9.8
		C9,9.8,9.1,9.8,9.1,9.8 M11.1,9.4c0.1,0,0.2,0,0.2,0.1c0,0.1,0,0.1,0,0.4l0,0.3c0,0.1,0,0.2,0,0.3c0,0.2,0,0.2-0.1,0.2c0,0,0,0,0,0
		c0,0,0,0,0.1,0c0.1,0,0.2,0,0.2,0c0.2,0,0.4,0,0.6,0c0,0,0.1,0,0.1-0.1c0,0,0-0.2,0-0.2c0,0,0,0,0,0c0,0,0,0,0,0
		c0,0.1,0,0.1-0.1,0.1c0,0-0.2,0-0.2,0c-0.1,0-0.2,0-0.2-0.1c0-0.1,0-0.2,0-0.4c0,0,0,0,0,0c0,0,0.2,0,0.3,0c0.1,0,0.1,0.1,0.1,0.1
		c0,0,0,0,0,0c0,0,0,0,0,0c0-0.1,0-0.2,0-0.3c0,0,0,0,0,0c0,0,0,0,0,0c0,0-0.1,0-0.2,0c-0.1,0-0.2,0-0.2,0c0,0,0,0,0,0l0-0.5
		c0,0,0,0,0,0c0.4,0,0.4,0,0.4,0.1c0,0,0,0,0,0c0,0,0,0,0,0c0-0.2,0-0.2,0-0.2c0,0,0,0,0,0c0,0,0,0-0.1,0c0,0-0.4,0-0.5,0
		C11.3,9.3,11.2,9.3,11.1,9.4C11,9.3,11,9.4,11.1,9.4C11,9.4,11,9.4,11.1,9.4 M13,10c0,0,0,0,0.2,0.1c0.2,0,0.3-0.1,0.3-0.3
		c0-0.2-0.1-0.3-0.3-0.4c-0.1,0-0.1,0-0.1,0L13,10z M12.6,10.7C12.5,10.7,12.5,10.7,12.6,10.7C12.5,10.7,12.5,10.7,12.6,10.7
		c0.1,0,0.1-0.1,0.1-0.3l0.1-0.9c0-0.2,0-0.2-0.1-0.2c0,0,0,0,0,0c0,0,0,0,0.1,0c0.1,0,0.2,0,0.3,0c0.1,0,0.2,0,0.3,0
		c0.3,0,0.5,0.1,0.5,0.4c0,0.1-0.1,0.3-0.3,0.4c0.3,0.6,0.5,0.7,0.6,0.7c0,0,0,0,0,0c0,0,0,0,0,0l-0.2,0c-0.2,0-0.3-0.1-0.5-0.4
		c-0.1-0.1-0.1-0.2-0.2-0.3c0,0,0,0,0,0l-0.2,0c0,0,0,0,0,0l0,0.3c0,0.2,0,0.2,0.1,0.3c0,0,0,0,0,0c0,0,0,0,0,0c-0.1,0-0.3,0-0.3,0
		C12.8,10.7,12.6,10.7,12.6,10.7 M14.5,11c0.3,0.1,0.5,0,0.6-0.3c0.1-0.4-0.4-0.6-0.4-0.9c0-0.1,0.1-0.2,0.3-0.1
		c0.1,0,0.2,0.2,0.2,0.3c0,0,0,0,0,0c0,0,0,0,0-0.1c0-0.1,0.1-0.2,0.1-0.2c0,0,0,0,0,0c0,0-0.1-0.1-0.3-0.1c-0.3-0.1-0.5,0-0.5,0.3
		c-0.1,0.4,0.4,0.6,0.4,0.9C14.8,10.9,14.7,10.9,14.5,11c-0.1-0.1-0.2-0.3-0.2-0.4c0,0,0,0,0,0c0,0,0,0,0,0l-0.1,0.3
		C14.2,10.9,14.3,11,14.5,11 M15.4,11.2c0.1,0,0.2,0.1,0.2,0.1c0.1,0,0.2,0.1,0.3,0.1c0,0,0.1,0,0.1,0c0,0,0,0,0,0
		c-0.1,0-0.2-0.1-0.1-0.1c0-0.1,0.1-0.2,0.1-0.4l0.1-0.3c0.1-0.3,0.1-0.3,0.1-0.4c0-0.1,0.1-0.1,0.2-0.1c0,0,0,0,0.1,0c0,0,0,0,0,0
		c-0.1,0-0.2-0.1-0.2-0.1c-0.1,0-0.2-0.1-0.2-0.1c0,0-0.1,0-0.1,0c0,0,0,0,0,0C16,10,16,10,16,10.1c0,0.1,0,0.1-0.1,0.4l-0.1,0.3
		c-0.1,0.2-0.1,0.3-0.2,0.4C15.5,11.2,15.5,11.2,15.4,11.2C15.4,11.2,15.4,11.2,15.4,11.2C15.4,11.2,15.4,11.2,15.4,11.2 M16.9,11.4
		c-0.1,0.2-0.1,0.3,0.1,0.4c0.4,0.2,0.6,0.1,0.8-0.2c0.2-0.4,0.1-0.7-0.3-0.9c-0.1-0.1-0.1-0.1-0.2,0L16.9,11.4 M16.3,11.5
		C16.4,11.5,16.4,11.5,16.3,11.5c0.1,0.1,0.2,0,0.4-0.4l0.2-0.3c0.1-0.2,0.2-0.3,0.2-0.3c0-0.1,0-0.1-0.1-0.2c0,0,0,0,0,0
		c0,0,0,0,0.1,0c0.1,0,0.2,0.1,0.2,0.1c0.1,0,0.2,0.1,0.3,0.1c0.5,0.3,0.8,0.6,0.5,1.1c-0.3,0.4-0.7,0.5-1.1,0.2
		c-0.1-0.1-0.3-0.2-0.3-0.2C16.6,11.7,16.4,11.6,16.3,11.5C16.3,11.6,16.3,11.5,16.3,11.5 M18.6,12.3l0.3,0.3l0.2-0.5l0,0
		c0,0,0,0,0,0L18.6,12.3z M17.9,12.4c0.1,0.1,0.1,0.1,0.3,0l1.2-0.6c0.1,0,0.1,0,0.1,0c0,0,0,0,0,0.1c0,0.1-0.3,0.9-0.4,1.2
		c0,0.1-0.1,0.2,0,0.3c0,0,0,0,0,0c0,0,0,0-0.1,0c0,0-0.1-0.1-0.1-0.1c0,0-0.1-0.1-0.2-0.1c0,0,0-0.1,0-0.1c0,0,0,0,0,0
		c0,0,0.1,0.1,0.1,0l0.1-0.3c0,0,0,0,0,0l-0.4-0.3c0,0,0,0,0,0l-0.2,0.1c0,0-0.1,0.1-0.1,0.1c0,0,0,0,0,0.1c0,0,0,0,0,0.1
		c0,0,0,0-0.1,0c0,0-0.1-0.1-0.2-0.1C18.1,12.6,18,12.5,17.9,12.4C17.9,12.4,17.9,12.4,17.9,12.4C17.9,12.4,17.9,12.4,17.9,12.4
		 M19.9,13.6c-0.2,0.2-0.2,0.2-0.1,0.4c0.3,0.3,0.5,0.3,0.9,0.1c0.3-0.3,0.3-0.6,0-1c-0.1-0.1-0.1-0.1-0.1-0.1L19.9,13.6 M19.4,13.6
		c0.1,0.1,0.1,0.1,0.5-0.2l0.3-0.2c0.2-0.2,0.3-0.2,0.3-0.3c0.1,0,0.1-0.1,0-0.2c0,0,0,0,0-0.1c0,0,0,0,0.1,0
		c0.1,0.1,0.1,0.2,0.2,0.2c0,0,0.1,0.1,0.2,0.2c0.4,0.4,0.5,0.9,0.1,1.2c-0.4,0.3-0.8,0.2-1.2-0.2c-0.1-0.1-0.2-0.3-0.2-0.3
		C19.4,13.8,19.4,13.7,19.4,13.6C19.3,13.6,19.3,13.6,19.4,13.6C19.3,13.5,19.3,13.6,19.4,13.6 M21.4,16.9
		C21.5,16.9,21.5,16.9,21.4,16.9c0.2,0,0.3,0,0.3,0c0,0,0,0,0,0c0,0,0,0-0.1,0c-0.2,0-0.3,0-0.4-0.3c-0.1-0.3,0-0.6,0.4-0.8
		c0.3-0.1,0.6-0.1,0.8,0.2c0.1,0.2,0.1,0.4-0.1,0.5c0,0,0,0,0,0c0,0,0,0,0.1,0c0,0,0.1-0.1,0.2-0.1c0.1,0,0.1,0,0.1,0c0,0,0,0,0,0
		c0-0.1,0-0.2-0.1-0.4c-0.2-0.4-0.6-0.7-1-0.5c-0.5,0.2-0.6,0.7-0.4,1.1C21.3,16.7,21.4,16.8,21.4,16.9 M22.2,17.5l0.1,0.4l0.5-0.3
		l0,0l0,0c0,0,0,0,0,0L22.2,17.5z M21.6,17.1c0,0.1,0.1,0.1,0.2,0.2l1.3,0.2c0.1,0,0.1,0,0.1,0c0,0,0,0-0.1,0.1
		c-0.1,0.1-0.8,0.5-1,0.7c-0.1,0.1-0.2,0.1-0.2,0.2c0,0,0,0,0,0c0,0,0,0-0.1-0.1c0,0,0-0.1,0-0.2c0-0.1,0-0.2-0.1-0.2
		c0,0,0-0.1,0-0.1c0,0,0,0,0,0c0,0,0,0.1,0.1,0.1l0.3-0.2c0,0,0,0,0,0l-0.1-0.4c0,0,0,0,0,0l-0.2,0c-0.1,0-0.1,0-0.1,0
		c0,0,0,0,0,0.1c0,0,0,0.1,0,0.1c0,0,0,0,0,0c0-0.1,0-0.1,0-0.2C21.6,17.4,21.6,17.3,21.6,17.1C21.5,17.1,21.5,17.1,21.6,17.1
		C21.6,17.1,21.6,17.1,21.6,17.1 M23.1,18.6C23.1,18.6,23.1,18.6,23.1,18.6C23.1,18.7,23.1,18.7,23.1,18.6c0.1,0.1,0.1,0.1,0.1,0.3
		l0,0.3l-1,0.1c-0.3,0-0.3,0-0.3-0.1c0,0,0,0,0,0c0,0,0,0,0,0c0,0.1,0,0.2,0,0.2c0,0.1,0,0.2,0,0.3c0,0,0,0,0,0c0,0,0,0,0,0
		c0-0.2,0-0.2,0.3-0.2l1-0.1l0,0.2c0,0.2,0,0.2-0.1,0.2c0,0,0,0,0,0c0,0,0,0,0,0c0.1,0,0.2,0,0.2,0c0,0,0.1,0,0,0c0,0,0-0.1,0-0.2
		l-0.1-0.8c0-0.1,0-0.2,0-0.2c0,0,0,0,0,0C23.4,18.6,23.2,18.6,23.1,18.6 M23.4,21.1c0-0.2-0.1-0.5-0.6-0.5c-0.4,0-0.7,0.2-0.8,0.5
		c0,0.1,0,0.4,0.6,0.5C23.1,21.6,23.3,21.4,23.4,21.1 M23.7,21.4C23.7,21.4,23.7,21.5,23.7,21.4c0,0.1,0,0.1-0.1,0.1
		c0,0-0.1,0-0.1,0c0,0-0.1-0.2-0.1-0.3c-0.1,0.5-0.4,0.7-0.8,0.7c-0.4,0-0.8-0.4-0.7-0.9c0-0.5,0.5-0.7,0.8-0.7
		c0.3,0,0.7,0.2,0.7,0.7C23.5,21.1,23.7,21.4,23.7,21.4 M23.2,22.5c0,0.1-0.1,0.1-0.3,0.1l-0.7-0.2c-0.3-0.1-0.3-0.1-0.3-0.2
		c0,0,0,0,0,0c0,0,0,0,0,0c0,0.1,0,0.2-0.1,0.2c0,0.1-0.1,0.3-0.2,0.5c0,0.1,0,0.1,0,0.1c0.1,0,0.2,0.1,0.2,0.1c0,0,0,0,0.1,0
		c0,0,0,0,0,0c-0.1-0.1-0.2-0.1-0.1-0.3c0.1-0.2,0.1-0.2,0.3-0.2l0.7,0.2c0.2,0.1,0.2,0.1,0.2,0.2c0,0,0,0,0,0c0,0,0,0,0,0
		c0-0.1,0.1-0.2,0.1-0.3C23.2,22.7,23.2,22.6,23.2,22.5C23.2,22.5,23.2,22.5,23.2,22.5C23.2,22.4,23.2,22.5,23.2,22.5 M22.7,24
		c0,0.1-0.1,0.1-0.1,0.1c-0.1,0-0.1,0-0.4-0.1l-0.3-0.1c-0.2-0.1-0.3-0.1-0.4-0.2c-0.1,0-0.1-0.1,0-0.1c0,0,0,0,0,0c0,0,0,0,0,0
		c0,0.1-0.1,0.2-0.1,0.2c0,0-0.1,0.2-0.1,0.3c0,0,0,0,0,0.1c0,0,0,0,0,0c0-0.1,0.1-0.1,0.1-0.1c0.1,0,0.2,0.1,0.4,0.1l0.3,0.1
		c0.3,0.1,0.3,0.1,0.4,0.2c0.1,0,0.1,0.1,0.1,0.1c0,0,0,0,0,0c0,0,0,0,0,0c0-0.1,0.1-0.2,0.1-0.2C22.7,24.2,22.7,24.1,22.7,24
		C22.8,24,22.8,24,22.7,24C22.7,23.9,22.7,24,22.7,24 M21.7,24.7c-0.5-0.3-0.9,0-1.2,0.4c-0.1,0.1-0.1,0.2-0.1,0.3c0,0,0,0.1,0,0.1
		c0,0.1,0.2,0.2,0.2,0.2c0,0,0,0,0,0c0,0,0,0,0-0.1c-0.1-0.1-0.1-0.2,0-0.5c0.2-0.3,0.5-0.4,0.9-0.2c0.3,0.2,0.4,0.4,0.3,0.8
		c-0.1,0.2-0.3,0.3-0.5,0.2c0,0-0.1,0-0.1,0c0,0,0,0,0,0.1c0,0,0.1,0.1,0.2,0.1c0.1,0,0.1,0.1,0.1,0.1c0,0,0,0,0,0
		c0.1-0.1,0.2-0.2,0.3-0.4C22.1,25.4,22.1,24.9,21.7,24.7 M20.6,26.9C20.6,26.9,20.6,26.9,20.6,26.9l-0.3-0.5L20,26.7L20.6,26.9
		L20.6,26.9L20.6,26.9z M20.9,27.1c0,0.1,0,0.1,0,0.1c0,0,0,0-0.1,0c-0.1,0-0.9-0.3-1.2-0.4c-0.1,0-0.2-0.1-0.3,0c0,0,0,0,0,0
		c0,0,0,0,0-0.1c0,0,0.1-0.1,0.1-0.1c0,0,0.1-0.1,0.1-0.2c0,0,0.1,0,0.1,0c0,0,0,0,0,0c0,0-0.1,0.1,0,0.1l0.3,0.1c0,0,0,0,0,0
		l0.3-0.3c0,0,0,0,0,0l-0.1-0.2c0,0-0.1-0.1-0.1-0.1c0,0-0.1,0-0.1,0c0,0,0,0-0.1,0c0,0,0,0,0,0c0,0,0.1-0.1,0.1-0.2
		c0,0,0.1-0.1,0.1-0.2c0,0,0,0,0.1,0c0,0,0,0,0,0c-0.1,0.1-0.1,0.1,0,0.3L20.9,27.1z M7.3,29.2c0.2-0.4,0.1-0.7-0.3-0.9
		c-0.1-0.1-0.1-0.1-0.2,0L6.4,29c-0.1,0.2-0.1,0.3,0.1,0.4C6.8,29.6,7.1,29.6,7.3,29.2 M7.1,28.2c0.5,0.3,0.7,0.7,0.5,1.1
		c-0.3,0.4-0.7,0.5-1.2,0.2c-0.1-0.1-0.3-0.2-0.3-0.2c0,0-0.1-0.1-0.2-0.1c0,0,0,0,0,0c0,0,0,0,0.1,0c0.1,0,0.1,0,0.3-0.4l0.2-0.3
		c0.2-0.2,0.2-0.3,0.2-0.3c0-0.1,0-0.1-0.1-0.2c0,0,0,0,0,0c0,0,0,0,0.1,0c0.1,0,0.2,0.1,0.2,0.1C6.9,28.1,7,28.2,7.1,28.2
		 M9.2,29.2c0,0-0.4-0.1-0.5-0.2c-0.1,0-0.2-0.1-0.3-0.1c0,0-0.1,0-0.1,0c0,0,0,0,0,0c0.1,0,0.1,0.1,0.1,0.1c0,0.1,0,0.1-0.1,0.4
		l-0.1,0.3c0,0.1-0.1,0.2-0.1,0.3c-0.1,0.2-0.1,0.2-0.2,0.2c0,0,0,0,0,0c0,0,0,0,0,0c0.1,0,0.2,0.1,0.2,0.1c0.2,0.1,0.4,0.1,0.6,0.2
		c0,0,0.1,0,0.1,0c0,0,0.1-0.1,0.1-0.2c0,0,0,0,0,0c0,0,0,0,0,0c0,0.1-0.1,0.1-0.1,0.1c-0.1,0-0.2,0-0.2-0.1c-0.1,0-0.1-0.1-0.1-0.2
		c0-0.1,0.1-0.2,0.2-0.4c0,0,0,0,0,0c0,0,0.2,0.1,0.2,0.1c0.1,0,0.1,0.1,0.1,0.2c0,0,0,0,0,0c0,0,0,0,0,0c0-0.1,0.1-0.2,0.1-0.2
		c0,0,0,0,0,0c0,0,0,0-0.1,0c0,0-0.1,0-0.2,0c-0.1,0-0.2-0.1-0.2-0.1c0,0,0,0,0,0l0.2-0.5c0,0,0,0,0,0c0.4,0.1,0.4,0.1,0.3,0.3
		c0,0,0,0,0,0c0,0,0,0,0,0c0.1-0.1,0.1-0.2,0.1-0.2c0,0,0,0,0,0C9.3,29.2,9.2,29.2,9.2,29.2 M11.9,29.7c-0.1,0-0.2-0.1-0.5-0.1
		c-0.5,0-0.9,0.2-0.9,0.6c-0.1,0.5,0.4,0.8,0.8,0.9c0.1,0,0.3,0,0.4,0c0,0,0.1,0,0.1-0.1c0-0.1,0.1-0.2,0.1-0.2c0,0,0,0,0,0
		c0,0,0,0,0,0c-0.1,0.2-0.2,0.2-0.4,0.2c-0.3,0-0.6-0.3-0.5-0.7c0.1-0.3,0.2-0.6,0.6-0.5c0.2,0,0.5,0.1,0.4,0.3c0,0,0,0.1,0,0.1
		c0,0,0,0,0,0c0,0,0-0.1,0-0.2C12,29.8,12,29.7,11.9,29.7C12,29.7,12,29.7,11.9,29.7 M14.3,30.9c-0.1,0-0.2,0-0.2-0.1
		c0-0.1,0-0.2-0.1-0.4l0-0.3c0-0.3,0-0.3,0-0.4c0-0.1,0-0.1,0.1-0.1c0,0,0,0,0,0c0,0,0,0-0.1,0c-0.1,0-0.2,0-0.2,0
		c-0.1,0-0.2,0-0.3,0c0,0-0.1,0,0,0c0,0,0,0,0,0c0.1,0,0.1,0,0.2,0.1c0,0.1,0,0.1,0,0.4l0,0.1c0,0,0,0,0,0L13,30.3c0,0,0,0,0,0
		l0-0.1c0-0.3,0-0.3,0-0.4c0-0.1,0-0.1,0.1-0.1c0,0,0,0,0,0c0,0,0,0-0.1,0c-0.1,0-0.2,0-0.2,0c-0.1,0-0.2,0-0.3,0c0,0,0,0,0,0
		c0,0,0,0,0,0c0.1,0,0.1,0,0.2,0.1c0,0.1,0,0.1,0,0.4l0,0.3c0,0.2,0,0.3,0,0.4c0,0.1,0,0.1-0.1,0.1c0,0,0,0,0,0c0,0,0,0,0.1,0
		c0.1,0,0.2,0,0.2,0c0.1,0,0.2,0,0.3,0c0,0,0,0,0,0c0,0,0,0,0,0c-0.1,0-0.2,0-0.2-0.1c0-0.1,0-0.2-0.1-0.4l0-0.1c0,0,0,0,0,0
		l0.7-0.1c0,0,0,0,0,0l0,0.1c0,0.2,0,0.3,0,0.4c0,0.1,0,0.1-0.1,0.1c0,0,0,0,0,0c0,0,0,0,0.1,0c0.1,0,0.2,0,0.2,0
		C14,30.9,14.2,30.9,14.3,30.9C14.3,30.9,14.3,30.9,14.3,30.9C14.3,30.9,14.3,30.9,14.3,30.9 M15.7,30.5c-0.1,0-0.2,0-0.2,0
		c0-0.1-0.1-0.2-0.1-0.4l-0.1-0.3c-0.1-0.3-0.1-0.3-0.1-0.4c0-0.1,0-0.1,0.1-0.1c0,0,0,0,0,0c0,0,0,0-0.1,0c-0.1,0-0.2,0.1-0.2,0.1
		c-0.1,0-0.2,0-0.2,0.1c0,0-0.1,0,0,0c0,0,0,0,0,0c0.1,0,0.1,0,0.2,0.1c0,0.1,0,0.1,0.1,0.4l0.1,0.3c0.1,0.2,0.1,0.3,0.1,0.4
		c0,0.1,0,0.1-0.1,0.1c0,0,0,0,0,0c0,0,0,0,0.1,0c0.1,0,0.2-0.1,0.2-0.1C15.5,30.6,15.6,30.6,15.7,30.5
		C15.7,30.5,15.8,30.5,15.7,30.5C15.7,30.5,15.7,30.5,15.7,30.5 M17.3,29.6C17.3,29.6,17.3,29.6,17.3,29.6
		C17.3,29.6,17.3,29.6,17.3,29.6c0,0.1,0,0.2-0.2,0.3c-0.2,0.1-0.3,0.1-0.4-0.1l-0.3-0.7c-0.1-0.2-0.1-0.2,0-0.3c0,0,0,0,0,0
		c0,0,0,0-0.1,0c-0.1,0-0.2,0.1-0.2,0.1c0,0-0.2,0.1-0.2,0.1c0,0,0,0,0,0c0,0,0,0,0.1,0c0.1-0.1,0.1,0,0.2,0.2l0.3,0.7
		c0.1,0.3,0.1,0.3,0,0.4c0,0,0,0,0,0c0,0,0,0,0.1,0c0.1,0,0.2-0.1,0.2-0.1c0.1-0.1,0.3-0.1,0.5-0.2c0.1,0,0.1-0.1,0.1-0.1
		C17.4,29.8,17.3,29.6,17.3,29.6 M18.7,28.8C18.7,28.8,18.7,28.7,18.7,28.8C18.7,28.8,18.7,28.8,18.7,28.8c0,0.1,0,0.1,0,0.2
		c0,0-0.2,0.1-0.2,0.2c-0.1,0.1-0.1,0.1-0.2,0c0,0-0.1-0.2-0.2-0.4c0,0,0,0,0,0c0,0,0.2-0.1,0.2-0.1c0.1,0,0.1,0,0.2,0.1
		c0,0,0,0,0,0c0,0,0,0,0-0.1c-0.1-0.1-0.1-0.2-0.1-0.2c0,0,0,0,0,0c0,0,0,0,0,0.1c0,0,0,0.1-0.1,0.1c-0.1,0-0.2,0.1-0.2,0.1
		c0,0,0,0,0,0l-0.3-0.4c0,0,0,0,0,0C18,28,18,28,18.1,28.1c0,0,0,0,0,0c0,0,0,0,0,0c-0.1-0.1-0.1-0.2-0.1-0.2c0,0,0,0,0,0
		c0,0,0,0-0.1,0.1c0,0-0.4,0.2-0.4,0.3c0,0-0.2,0.1-0.2,0.1c0,0,0,0,0,0c0,0,0,0,0,0c0.1-0.1,0.1-0.1,0.2,0c0,0.1,0.1,0.1,0.2,0.3
		l0.2,0.3c0.1,0.1,0.1,0.2,0.1,0.2c0.1,0.2,0.1,0.2,0,0.3c0,0,0,0,0,0c0,0,0,0,0.1,0c0.1,0,0.2-0.1,0.2-0.1c0.2-0.1,0.3-0.2,0.5-0.3
		c0,0,0,0,0-0.1C18.8,28.9,18.8,28.8,18.7,28.8"/>
</g>
</svg>
