<!-- Generator: Adobe Illustrator 19.1.0, SVG Export Plug-In  -->
<svg version="1.1"
	 xmlns="http://www.w3.org/2000/svg" xmlns:xlink="http://www.w3.org/1999/xlink" xmlns:a="http://ns.adobe.com/AdobeSVGViewerExtensions/3.0/"
	 x="0px" y="0px" width="101.6px" height="32px" viewBox="0 0 101.6 32" enable-background="new 0 0 101.6 32" xml:space="preserve"
	>
<defs>
</defs>
<g>
	<path fill="#FFFFFF" d="M28.1,29.1V30h0.2c0.1,0,0.2-0.1,0.2-0.2v-0.4c0-0.2-0.1-0.2-0.2-0.2H28.1z M28.9,29.4v0.3
		c0,0.4-0.2,0.6-0.6,0.6h-0.2v0.9h-0.4v-2.5h0.6C28.7,28.7,28.9,29,28.9,29.4"/>
	<path fill="#FFFFFF" d="M30.1,30.7c0,0.2,0.1,0.2,0.2,0.2c0.1,0,0.2-0.1,0.2-0.2v-1.4c0-0.2-0.1-0.2-0.2-0.2
		c-0.1,0-0.2,0.1-0.2,0.2V30.7z M29.7,29.4c0-0.4,0.2-0.6,0.6-0.6c0.4,0,0.6,0.2,0.6,0.6v1.3c0,0.4-0.2,0.6-0.6,0.6
		c-0.4,0-0.6-0.2-0.6-0.6V29.4z"/>
	<polygon fill="#FFFFFF" points="32.2,29.4 32.2,31.3 31.8,31.3 31.8,28.7 32.3,28.7 32.7,30.3 32.7,28.7 33.1,28.7 33.1,31.3 
		32.7,31.3 	"/>
	<polygon fill="#FFFFFF" points="33.9,28.7 35.2,28.7 35.2,29.1 34.8,29.1 34.8,31.3 34.4,31.3 34.4,29.1 33.9,29.1 	"/>
	<rect x="36" y="28.7" fill="#FFFFFF" width="0.4" height="2.5"/>
	<polygon fill="#FFFFFF" points="37.8,29.9 38.3,29.9 38.3,30.2 37.8,30.2 37.8,31.3 37.4,31.3 37.4,28.7 38.4,28.7 38.4,29.1 
		37.8,29.1 	"/>
	<rect x="39.3" y="28.7" fill="#FFFFFF" width="0.4" height="2.5"/>
	<path fill="#FFFFFF" d="M41.8,30.3v0.3c0,0.4-0.2,0.6-0.6,0.6c-0.4,0-0.6-0.2-0.6-0.6v-1.3c0-0.4,0.2-0.6,0.6-0.6
		c0.4,0,0.6,0.2,0.6,0.6v0.2h-0.4v-0.3c0-0.2-0.1-0.2-0.2-0.2c-0.1,0-0.2,0.1-0.2,0.2v1.4c0,0.2,0.1,0.2,0.2,0.2
		c0.1,0,0.2-0.1,0.2-0.2v-0.4H41.8z"/>
	<rect x="42.7" y="28.7" fill="#FFFFFF" width="0.4" height="2.5"/>
	<path fill="#FFFFFF" d="M44.4,30.5h0.4l-0.2-1.3L44.4,30.5z M45.3,31.3h-0.4l-0.1-0.5h-0.5l-0.1,0.5H44l0.4-2.5h0.6L45.3,31.3z"/>
	<path fill="#FFFFFF" d="M47.8,28.7v1.9c0,0.2,0.1,0.2,0.2,0.2s0.2-0.1,0.2-0.2v-1.9h0.4v1.9c0,0.4-0.2,0.6-0.6,0.6
		c-0.4,0-0.6-0.2-0.6-0.6v-1.9H47.8z"/>
	<polygon fill="#FFFFFF" points="49.9,29.4 49.9,31.3 49.5,31.3 49.5,28.7 50,28.7 50.4,30.3 50.4,28.7 50.8,28.7 50.8,31.3 
		50.4,31.3 	"/>
	<rect x="51.7" y="28.7" fill="#FFFFFF" width="0.4" height="2.5"/>
	<polygon fill="#FFFFFF" points="53.7,30.8 54,28.7 54.4,28.7 54,31.3 53.4,31.3 53,28.7 53.4,28.7 	"/>
	<polygon fill="#FFFFFF" points="55.6,29.8 56.2,29.8 56.2,30.2 55.6,30.2 55.6,30.9 56.3,30.9 56.3,31.3 55.2,31.3 55.2,28.7 
		56.3,28.7 56.3,29.1 55.6,29.1 	"/>
	<path fill="#FFFFFF" d="M57.6,29.1v0.8h0.2c0.1,0,0.2-0.1,0.2-0.3v-0.2c0-0.2-0.1-0.3-0.2-0.3H57.6z M58,31.3c0-0.1,0-0.1,0-0.3
		v-0.4c0-0.2-0.1-0.3-0.3-0.3h-0.1v1h-0.4v-2.5h0.6c0.4,0,0.6,0.2,0.6,0.6v0.2c0,0.3-0.1,0.4-0.3,0.5c0.2,0.1,0.3,0.3,0.3,0.5V31
		c0,0.1,0,0.2,0,0.3H58z"/>
	<path fill="#FFFFFF" d="M59.9,28.7c0.4,0,0.6,0.2,0.6,0.6v0.1h-0.4v-0.1c0-0.2-0.1-0.2-0.2-0.2c-0.1,0-0.2,0.1-0.2,0.2
		c0,0.5,0.8,0.6,0.8,1.3c0,0.4-0.2,0.6-0.6,0.6c-0.4,0-0.6-0.2-0.6-0.6v-0.2h0.4v0.2c0,0.2,0.1,0.2,0.2,0.2c0.1,0,0.2-0.1,0.2-0.2
		c0-0.5-0.8-0.6-0.8-1.3C59.3,28.9,59.5,28.7,59.9,28.7"/>
	<rect x="61.4" y="28.7" fill="#FFFFFF" width="0.4" height="2.5"/>
	<path fill="#FFFFFF" d="M63.1,29.1v1.8h0.2c0.1,0,0.2-0.1,0.2-0.2v-1.3c0-0.2-0.1-0.2-0.2-0.2H63.1z M62.7,28.7h0.6
		c0.4,0,0.6,0.2,0.6,0.6v1.3c0,0.4-0.2,0.6-0.6,0.6h-0.6V28.7z"/>
	<path fill="#FFFFFF" d="M65.2,30.5h0.4l-0.2-1.3L65.2,30.5z M66.1,31.3h-0.4l-0.1-0.5h-0.5l-0.1,0.5h-0.4l0.4-2.5h0.6L66.1,31.3z"
		/>
	<path fill="#FFFFFF" d="M67.4,29.1v1.8h0.2c0.1,0,0.2-0.1,0.2-0.2v-1.3c0-0.2-0.1-0.2-0.2-0.2H67.4z M67,28.7h0.6
		c0.4,0,0.6,0.2,0.6,0.6v1.3c0,0.4-0.2,0.6-0.6,0.6H67V28.7z"/>
	<path fill="#FFFFFF" d="M71.5,30.3v0.3c0,0.4-0.2,0.6-0.6,0.6c-0.4,0-0.6-0.2-0.6-0.6v-1.3c0-0.4,0.2-0.6,0.6-0.6
		c0.4,0,0.6,0.2,0.6,0.6v0.2h-0.4v-0.3c0-0.2-0.1-0.2-0.2-0.2c-0.1,0-0.2,0.1-0.2,0.2v1.4c0,0.2,0.1,0.2,0.2,0.2
		c0.1,0,0.2-0.1,0.2-0.2v-0.4H71.5z"/>
	<path fill="#FFFFFF" d="M72.8,30.5h0.4L73,29.2L72.8,30.5z M73.7,31.3h-0.4l-0.1-0.5h-0.5l-0.1,0.5h-0.4l0.4-2.5h0.6L73.7,31.3z"/>
	<polygon fill="#FFFFFF" points="74.3,28.7 75.5,28.7 75.5,29.1 75.1,29.1 75.1,31.3 74.7,31.3 74.7,29.1 74.3,29.1 	"/>
	<path fill="#FFFFFF" d="M76.7,30.7c0,0.2,0.1,0.2,0.2,0.2c0.1,0,0.2-0.1,0.2-0.2v-1.4c0-0.2-0.1-0.2-0.2-0.2
		c-0.1,0-0.2,0.1-0.2,0.2V30.7z M77.4,28.2L77,28.6h-0.3l0.2-0.4H77.4z M76.3,29.4c0-0.4,0.2-0.6,0.6-0.6c0.4,0,0.6,0.2,0.6,0.6v1.3
		c0,0.4-0.2,0.6-0.6,0.6c-0.4,0-0.6-0.2-0.6-0.6V29.4z"/>
	<polygon fill="#FFFFFF" points="78.5,28.7 78.9,28.7 78.9,30.9 79.5,30.9 79.5,31.3 78.5,31.3 	"/>
	<rect x="80.4" y="28.7" fill="#FFFFFF" width="0.4" height="2.5"/>
	<path fill="#FFFFFF" d="M82.9,30.3v0.3c0,0.4-0.2,0.6-0.6,0.6c-0.4,0-0.6-0.2-0.6-0.6v-1.3c0-0.4,0.2-0.6,0.6-0.6
		c0.4,0,0.6,0.2,0.6,0.6v0.2h-0.4v-0.3c0-0.2-0.1-0.2-0.2-0.2c-0.1,0-0.2,0.1-0.2,0.2v1.4c0,0.2,0.1,0.2,0.2,0.2
		c0.1,0,0.2-0.1,0.2-0.2v-0.4H82.9z"/>
	<path fill="#FFFFFF" d="M84.2,30.5h0.4l-0.2-1.3L84.2,30.5z M85.1,31.3h-0.4l-0.1-0.5h-0.5L84,31.3h-0.4l0.4-2.5h0.6L85.1,31.3z"/>
	<path fill="#FFFFFF" d="M87.6,29.1v1.8h0.2c0.1,0,0.2-0.1,0.2-0.2v-1.3c0-0.2-0.1-0.2-0.2-0.2H87.6z M87.2,28.7h0.6
		c0.4,0,0.6,0.2,0.6,0.6v1.3c0,0.4-0.2,0.6-0.6,0.6h-0.6V28.7z"/>
	<polygon fill="#FFFFFF" points="89.7,29.8 90.2,29.8 90.2,30.2 89.7,30.2 89.7,30.9 90.4,30.9 90.4,31.3 89.3,31.3 89.3,28.7 
		90.4,28.7 90.4,29.1 89.7,29.1 	"/>
	<path fill="#FFFFFF" d="M93.7,30.3v0.3c0,0.4-0.2,0.6-0.6,0.6c-0.4,0-0.6-0.2-0.6-0.6v-1.3c0-0.4,0.2-0.6,0.6-0.6
		c0.4,0,0.6,0.2,0.6,0.6v0.2h-0.4v-0.3c0-0.2-0.1-0.2-0.2-0.2c-0.1,0-0.2,0.1-0.2,0.2v1.4c0,0.2,0.1,0.2,0.2,0.2
		c0.1,0,0.2-0.1,0.2-0.2v-0.4H93.7z"/>
	<polygon fill="#FFFFFF" points="95,31.3 94.6,31.3 94.6,28.7 95,28.7 95,29.8 95.4,29.8 95.4,28.7 95.8,28.7 95.8,31.3 95.4,31.3 
		95.4,30.2 95,30.2 	"/>
	<rect x="96.8" y="28.7" fill="#FFFFFF" width="0.4" height="2.5"/>
	<polygon fill="#FFFFFF" points="98.2,28.7 98.6,28.7 98.6,30.9 99.2,30.9 99.2,31.3 98.2,31.3 	"/>
	<polygon fill="#FFFFFF" points="100.4,29.8 101,29.8 101,30.2 100.4,30.2 100.4,30.9 101.1,30.9 101.1,31.3 100.1,31.3 100.1,28.7 
		101.1,28.7 101.1,29.1 100.4,29.1 	"/>
	<polygon fill="#FFFFFF" points="29.3,10.7 31.2,10.7 31.2,11.9 29.3,11.9 29.3,14.5 31.6,14.5 31.6,15.7 27.9,15.7 27.9,7 31.6,7 
		31.6,8.2 29.3,8.2 	"/>
	<path fill="#FFFFFF" d="M34.3,6.9c1.3,0,2,0.8,2,2.2v0.3h-1.3V9c0-0.6-0.2-0.9-0.7-0.9c-0.4,0-0.7,0.2-0.7,0.9
		c0,1.8,2.7,2.1,2.7,4.6c0,1.4-0.7,2.2-2,2.2c-1.3,0-2-0.8-2-2.2V13h1.3v0.7c0,0.6,0.3,0.8,0.7,0.8s0.7-0.2,0.7-0.8
		c0-1.8-2.7-2.1-2.7-4.6C32.3,7.7,33,6.9,34.3,6.9"/>
	<path fill="#FFFFFF" d="M41.1,12.5v1.2c0,1.4-0.7,2.2-2,2.2c-1.3,0-2-0.8-2-2.2V9.1c0-1.4,0.7-2.2,2-2.2c1.3,0,2,0.8,2,2.2v0.8
		h-1.3V9c0-0.6-0.3-0.9-0.7-0.9S38.4,8.4,38.4,9v4.7c0,0.6,0.3,0.8,0.7,0.8s0.7-0.2,0.7-0.8v-1.2H41.1z"/>
	<path fill="#FFFFFF" d="M43.3,7v6.7c0,0.6,0.3,0.8,0.7,0.8c0.4,0,0.7-0.2,0.7-0.8V7H46v6.6c0,1.4-0.7,2.2-2,2.2s-2-0.8-2-2.2V7
		H43.3z"/>
	<polygon fill="#FFFFFF" points="48.3,10.7 50.2,10.7 50.2,11.9 48.3,11.9 48.3,14.5 50.7,14.5 50.7,15.7 46.9,15.7 46.9,7 50.7,7 
		50.7,8.2 48.3,8.2 	"/>
	<polygon fill="#FFFFFF" points="51.5,7 52.9,7 52.9,14.5 55.1,14.5 55.1,15.7 51.5,15.7 	"/>
	<path fill="#FFFFFF" d="M57.1,12.9h1.3l-0.7-4.4L57.1,12.9z M60.2,15.7h-1.4l-0.2-1.6h-1.7l-0.2,1.6h-1.3L56.8,7h2L60.2,15.7z"/>
	<path fill="#FFFFFF" d="M29.2,23.1h1.3l-0.7-4.4L29.2,23.1z M32.3,25.9H31l-0.2-1.6H29l-0.2,1.6h-1.3l1.4-8.7h2L32.3,25.9z"/>
	<path fill="#FFFFFF" d="M34.4,18.4v6.2h0.8c0.4,0,0.7-0.2,0.7-0.8v-4.5c0-0.6-0.3-0.8-0.7-0.8H34.4z M33,17.2h2.2
		c1.4,0,2,0.8,2,2.2v4.4c0,1.4-0.7,2.2-2,2.2H33V17.2z"/>
	<polygon fill="#FFFFFF" points="41,23.4 41.9,17.2 43.8,17.2 43.8,25.9 42.5,25.9 42.5,19.6 41.6,25.9 40.3,25.9 39.2,19.7 
		39.2,25.9 38.1,25.9 38.1,17.2 40,17.2 	"/>
	<rect x="44.8" y="17.2" fill="#FFFFFF" width="1.4" height="8.7"/>
	<polygon fill="#FFFFFF" points="48.4,19.6 48.4,25.9 47.2,25.9 47.2,17.2 48.9,17.2 50.3,22.4 50.3,17.2 51.5,17.2 51.5,25.9 
		50.1,25.9 	"/>
	<rect x="52.5" y="17.2" fill="#FFFFFF" width="1.4" height="8.7"/>
	<path fill="#FFFFFF" d="M56.7,17.1c1.3,0,2,0.8,2,2.2v0.3h-1.3v-0.4c0-0.6-0.3-0.9-0.7-0.9c-0.4,0-0.7,0.2-0.7,0.9
		c0,1.8,2.7,2.1,2.7,4.6c0,1.4-0.7,2.2-2,2.2c-1.3,0-2-0.8-2-2.2v-0.6h1.3v0.7c0,0.6,0.3,0.8,0.7,0.8c0.4,0,0.7-0.2,0.7-0.8
		c0-1.8-2.7-2.1-2.7-4.6C54.7,17.9,55.4,17.1,56.7,17.1"/>
	<polygon fill="#FFFFFF" points="58.9,17.2 63.1,17.2 63.1,18.4 61.7,18.4 61.7,25.9 60.3,25.9 60.3,18.4 58.9,18.4 	"/>
	<path fill="#FFFFFF" d="M64.9,18.4v2.7h0.5c0.5,0,0.8-0.2,0.8-0.9v-0.9c0-0.6-0.2-0.9-0.7-0.9H64.9z M66.4,25.9
		c-0.1-0.2-0.1-0.4-0.1-1.1v-1.4c0-0.8-0.3-1.1-0.9-1.1h-0.5v3.6h-1.4v-8.7h2.1c1.4,0,2,0.7,2,2v0.7c0,0.9-0.3,1.5-0.9,1.8
		c0.7,0.3,0.9,0.9,0.9,1.9v1.3c0,0.4,0,0.7,0.1,1.1H66.4z"/>
	<path fill="#FFFFFF" d="M69.8,23.1h1.3l-0.7-4.4L69.8,23.1z M73,25.9h-1.4l-0.2-1.6h-1.7l-0.2,1.6h-1.3l1.4-8.7h2L73,25.9z"/>
	<path fill="#FFFFFF" d="M77.3,22.6v1.2c0,1.4-0.7,2.2-2,2.2c-1.3,0-2-0.8-2-2.2v-4.5c0-1.4,0.7-2.2,2-2.2c1.3,0,2,0.8,2,2.2v0.8H76
		v-0.9c0-0.6-0.3-0.9-0.7-0.9c-0.4,0-0.7,0.2-0.7,0.9v4.7c0,0.6,0.3,0.8,0.7,0.8c0.4,0,0.7-0.2,0.7-0.8v-1.2H77.3z"/>
	<rect x="78.1" y="17.2" fill="#FFFFFF" width="1.4" height="8.7"/>
	<path fill="#FFFFFF" d="M81.8,23.9c0,0.6,0.3,0.9,0.7,0.9c0.4,0,0.7-0.2,0.7-0.9v-4.7c0-0.6-0.3-0.9-0.7-0.9
		c-0.4,0-0.7,0.2-0.7,0.9V23.9z M80.4,19.3c0-1.4,0.7-2.2,2.1-2.2c1.3,0,2.1,0.8,2.1,2.2v4.5c0,1.4-0.7,2.2-2.1,2.2
		c-1.3,0-2.1-0.8-2.1-2.2V19.3z"/>
	<polygon fill="#FFFFFF" points="86.7,19.6 86.7,25.9 85.4,25.9 85.4,17.2 87.1,17.2 88.6,22.4 88.6,17.2 89.8,17.2 89.8,25.9 
		88.4,25.9 	"/>
	<path fill="#FFFFFF" d="M94,17.2v6.7c0,0.6,0.3,0.8,0.7,0.8c0.4,0,0.7-0.2,0.7-0.8v-6.7h1.3v6.6c0,1.4-0.7,2.2-2,2.2
		c-1.3,0-2-0.8-2-2.2v-6.6H94z"/>
	<path fill="#FFFFFF" d="M101.6,22.6v1.2c0,1.4-0.7,2.2-2,2.2c-1.3,0-2-0.8-2-2.2v-4.5c0-1.4,0.7-2.2,2-2.2c1.3,0,2,0.8,2,2.2v0.8
		h-1.3v-0.9c0-0.6-0.3-0.9-0.7-0.9c-0.4,0-0.7,0.2-0.7,0.9v4.7c0,0.6,0.3,0.8,0.7,0.8c0.4,0,0.7-0.2,0.7-0.8v-1.2H101.6z"/>
	<polygon fill="#FFFFFF" points="84.2,15.2 82.9,16.6 81.9,16.6 82.8,15.2 	"/>
	<path fill="#FFFFFF" d="M15.7,14.3c0.1,0,0.2-0.1,0.2-0.2c0-0.1-0.1-0.2-0.2-0.2c-0.1,0-0.2,0.1-0.2,0.2
		C15.5,14.2,15.6,14.3,15.7,14.3"/>
	<path fill="#FFFFFF" d="M7.9,23.8C7.9,23.8,7.9,23.9,7.9,23.8c-0.1,0.1,0,0.1,0,0.1C8,24,8,24,7.9,23.8C8,23.9,8,23.8,7.9,23.8"/>
	<path fill="#FFFFFF" d="M11,24C11,24,11.1,24,11,24c0.1-0.1,0-0.1,0-0.1C11,23.8,10.9,23.9,11,24C10.9,24,11,24,11,24"/>
	<path fill="#FFFFFF" d="M5.9,22.6C6.1,22.8,6.1,23,6.1,23s-0.3,0.1-0.5,0c-0.2-0.1-0.3-0.4-0.3-0.4S5.7,22.5,5.9,22.6 M5.6,21.4
		c0,0,0.3,0,0.4,0.2c0.1,0.2,0.1,0.4,0.1,0.4s-0.3,0-0.4-0.2C5.6,21.7,5.6,21.4,5.6,21.4 M5.9,22.1c0.2,0.2,0.2,0.4,0.2,0.4
		s-0.3,0-0.5-0.1C5.5,22.3,5.5,22,5.5,22S5.7,22,5.9,22.1 M5.9,20.9c0.4,0,0.8,0.2,1.1,0.4L7,21.4c-0.2-0.1-0.5-0.2-0.7-0.2
		c-0.7,0-1.2,0.5-1.2,1.1c0,0.5,0.3,0.9,0.9,1c0.3,0.1,0.4,0.3,0.4,0.4v0.1H6c0-0.1-0.1-0.2-0.4-0.2c-0.7-0.2-1.1-0.6-1.1-1.3
		C4.5,21.5,5.1,20.9,5.9,20.9 M6.4,21.6c0.1-0.2,0.4-0.2,0.4-0.2s0,0.3-0.1,0.4c-0.1,0.2-0.4,0.2-0.4,0.2S6.3,21.8,6.4,21.6
		 M6.4,22.1C6.6,22,6.9,22,6.9,22s0,0.3-0.2,0.4c-0.2,0.2-0.5,0.1-0.5,0.1S6.3,22.3,6.4,22.1 M6.7,23c-0.2,0.1-0.5,0-0.5,0
		s0.1-0.3,0.3-0.4c0.2-0.1,0.5,0,0.5,0S6.9,22.9,6.7,23 M6.5,25.3c0,0.2-0.2,0.3-0.3,0.3c-0.2,0-0.3-0.1-0.3-0.3L6,24.1h0.4
		L6.5,25.3z M7.9,22.4h0.9c0.1,0,0.2,0.1,0.2,0.2v0.2c0,0,0.1,0,0.2,0v-0.2c0-0.1-0.1-0.3-0.2-0.3l-0.1,0l0.1,0
		C9,22,9.3,21.9,9.5,21.9c0.3,0,0.5,0.1,0.7,0.2l0,0l-0.1,0c-0.1,0.1-0.2,0.2-0.2,0.3v0.2c0,0,0.1,0,0.2,0v-0.2
		c0-0.1,0.1-0.2,0.2-0.2h0.9v0c0,0.1,0,0.1,0,0.2h-0.6v0.1h0.5c-0.1,0.2-0.2,0.3-0.5,0.3h-0.2c0,0,0,0.1,0,0.2h0.2l0.1,0h0.1v0.3
		H8.1v-0.3h0.2l0.1,0h0.2c0,0,0-0.1,0-0.2H8.4c-0.2,0-0.4-0.1-0.5-0.3h0.5v-0.1H7.9C7.9,22.5,7.9,22.5,7.9,22.4L7.9,22.4z M9.9,24.1
		c0,0,0-0.2,0-0.3h0.2C10.1,23.8,9.9,24.1,9.9,24.1 M9.2,23.8h0.5l0,0.7c-0.1,0-0.2,0.1-0.3,0.1c0,0-0.1,0-0.1,0L9.2,23.8z
		 M11.4,23.9C11.4,23.9,11.4,24,11.4,23.9c0,0.1-0.2,0.2-0.4,0.2c-0.2,0-0.3-0.1-0.4,0c-0.1,0.1-0.2,0.2-0.3,0.4
		c-0.1,0.1-0.2,0.2-0.3,0.3C9.9,24.9,9.7,25,9.6,25c-0.1,0-0.2,0.1-0.3,0.1v0C9.1,25.2,9,25.3,9,25.5c0,0.1,0.1,0.2,0.2,0.3
		c-0.1,0.1-0.2,0.1-0.3,0.2c-0.1-0.1-0.3-0.2-0.3-0.4c0-0.2,0.1-0.4,0.3-0.5c0.1-0.1,0.3-0.1,0.4-0.2c0.2-0.1,0.3-0.1,0.4-0.2
		c0,0,0,0,0,0c0.1-0.1,0.1-0.1,0.2-0.2c0.3-0.6,0.6-0.7,0.9-0.7C11.1,23.7,11.3,23.9,11.4,23.9 M9.3,25.4c0-0.1,0.1-0.1,0.1-0.1
		c0.1,0,0.1,0.1,0.1,0.1c0,0.1-0.1,0.1-0.1,0.1C9.4,25.6,9.3,25.5,9.3,25.4 M9.8,26L9.8,26c0,0-0.1,0-0.1,0.1
		c-0.1,0.1-0.2,0.1-0.4,0.2c0,0,0,0,0,0c0,0,0,0,0,0c0,0,0,0,0,0c-0.1,0-0.1,0.1-0.1,0.1c0,0.1,0,0.1,0.1,0.2
		c-0.1,0.1-0.1,0.1-0.2,0.2c-0.1-0.1-0.2-0.2-0.2-0.4c0-0.2,0.1-0.3,0.2-0.4c0,0,0,0,0,0c0.1-0.1,0.3-0.2,0.4-0.2
		c0,0,0.1-0.1,0.1-0.1c0.2-0.1,0.3-0.2,0.3-0.3c0-0.1-0.1-0.2-0.2-0.3c0.1,0,0.2-0.1,0.3-0.1c0.1,0.1,0.2,0.2,0.2,0.4
		C10.2,25.7,10,25.9,9.8,26 M9.7,26.9c-0.1,0-0.2,0.1-0.2,0.1c0,0-0.1,0.1,0,0.2c0,0,0.1,0,0.2,0c0,0,0.1-0.1,0.2-0.1
		c0,0,0,0.1,0,0.1c0,0.1-0.1,0.3-0.3,0.3l0,0.2c0,0.1,0,0.1-0.1,0.1c-0.1,0-0.1,0-0.1-0.1l0-0.2c-0.1,0-0.3-0.2-0.3-0.3
		c0-0.1,0-0.1,0.1-0.2c0.1-0.2,0.2-0.3,0.5-0.4c0,0,0,0,0,0c0,0,0,0,0,0c0,0,0,0,0,0c0,0,0,0,0,0c0,0,0,0,0,0c0,0,0.1-0.1,0.1-0.1
		c0,0,0-0.1-0.1-0.1c0,0,0,0,0.1,0c0.1,0,0.1-0.1,0.2-0.1c0.1,0.1,0.1,0.2,0.1,0.3C10.1,26.7,9.9,26.8,9.7,26.9 M8.8,23.8H9
		C9,23.8,9,24,9,24S8.9,23.8,8.8,23.8 M8.7,24.5c-0.1-0.2-0.2-0.3-0.3-0.4c-0.1-0.1-0.2,0-0.4,0c-0.2,0-0.4-0.1-0.4-0.2
		c0,0,0-0.1,0-0.1c0.1,0,0.3-0.2,0.5-0.2c0.2,0,0.6,0.1,0.9,0.7c0.1,0.1,0.2,0.2,0.3,0.2c-0.1,0-0.2,0.1-0.3,0.1
		C8.8,24.7,8.7,24.6,8.7,24.5 M3.7,21.7L4.3,22c0,0.1,0,0.2,0,0.2c0,0.8,0.5,1.4,1.3,1.6c0.1,0,0.1,0,0.1,0l-0.1,1.5v0
		c0,0.3,0.3,0.5,0.6,0.5c0.3,0,0.6-0.2,0.6-0.5v0l-0.2-1.5h0v-0.1c0-0.1-0.1-0.3-0.2-0.4c0.1,0,0.3,0,0.4-0.1
		c0.3-0.2,0.3-0.5,0.4-0.5l0-0.2l0.4-0.2v0.1c0,0.2,0.1,0.5,0.3,0.6v0.3v0.1c-0.2,0.1-0.4,0.2-0.5,0.3l-0.1,0.1l0,0.2
		c0,0,0,0.1,0,0.1c0.1,0.2,0.4,0.3,0.7,0.3c0.1,0,0.2,0,0.3,0l0,0c0,0.1,0.1,0.2,0.2,0.3c0.1,0.1,0.1,0.2,0.2,0.3
		c-0.1,0.1-0.2,0.3-0.2,0.5c0,0.3,0.1,0.5,0.3,0.6c-0.1,0.1-0.1,0.2-0.1,0.4c0,0.2,0.1,0.4,0.3,0.6c0,0.1,0,0.1,0,0.2
		c0,0.2,0.1,0.4,0.3,0.5c0,0.2,0.2,0.4,0.4,0.4c0.2,0,0.4-0.2,0.4-0.4c0.2-0.1,0.3-0.3,0.3-0.5c0-0.1,0-0.1,0-0.2
		c0.2-0.2,0.3-0.3,0.3-0.6c0-0.2-0.1-0.3-0.1-0.4c0.2-0.1,0.3-0.3,0.3-0.6c0-0.2-0.1-0.4-0.2-0.5c0.1-0.1,0.2-0.2,0.2-0.3
		c0.1-0.1,0.1-0.2,0.2-0.3l0,0c0.1,0,0.2,0,0.3,0c0.3,0,0.6-0.2,0.7-0.3c0,0,0-0.1,0-0.1l0-0.2l-0.1-0.1c-0.1-0.1-0.2-0.2-0.4-0.3
		v-0.4c0.2-0.2,0.3-0.4,0.3-0.7v-0.3h-0.3h-0.6c-0.3-0.3-0.6-0.5-1-0.5c-0.4,0-0.8,0.2-1,0.5H7.9l0.8-0.5c0,0,0-0.1,0-0.1
		c0,0-0.1,0-0.1,0l-1.5,0.9l-0.1,0c0.1-0.1,0.1-0.3,0.1-0.3l0-0.2L8.2,21c0,0,0-0.1,0-0.1c0,0-0.1,0-0.1,0L7,21.8l0,0
		c0,0,0-0.1,0-0.1l0.4-0.4l-0.1-0.1c0,0,0,0-0.1-0.1l0.5-0.6c0,0,0-0.1,0-0.1c0,0-0.1,0-0.1,0L7.1,21c-0.3-0.2-0.7-0.3-1.1-0.3
		c-0.3,0-0.6,0.1-0.8,0.2l-0.3-0.4c0,0-0.1,0-0.1,0c0,0,0,0.1,0,0.1L5,20.9c-0.2,0.1-0.3,0.2-0.4,0.3l-0.4-0.3c0,0-0.1,0-0.1,0
		c0,0,0,0.1,0,0.1l0.4,0.3c-0.1,0.2-0.2,0.4-0.3,0.6l-0.5-0.3C3.7,21.5,3.7,21.5,3.7,21.7C3.6,21.6,3.6,21.7,3.7,21.7"/>
	<path fill="#FFFFFF" d="M18.2,24.2c-0.4,0-0.6-0.3-0.6-0.6h1.3C18.8,23.9,18.5,24.2,18.2,24.2 M16.8,26.2c0,0-0.1,0-0.2,0
		c-0.1,0-0.3-0.2-0.5-0.3l0.1-2c0,0,0.1,0,0.1,0c0.1,0,0.2,0.1,0.3,0.2c0.1,0.1,0.3,0.2,0.5,0.2c0.1,0,0.3,0.1,0.4,0.1
		C17.5,24.6,16.8,26.2,16.8,26.2 M15.8,26.7C15.8,26.8,15.7,26.8,15.8,26.7c-0.1,0.1-0.2,0.1-0.2,0L15.2,22H13h0
		c-0.1,0-0.3-0.1-0.3-0.3c0-0.1,0.1-0.3,0.3-0.3c0.1,0,0.3,0.1,0.3,0.3c0,0,0,0,0,0c0.5,0,1.4,0.1,2.1-0.4c-0.1-0.1-0.1-0.2-0.1-0.3
		c0-0.2,0.2-0.4,0.4-0.4c0.2,0,0.4,0.2,0.4,0.4c0,0.1,0,0.2-0.1,0.3c0.7,0.5,1.6,0.5,2.1,0.4c0,0,0,0,0,0c0-0.1,0.1-0.3,0.3-0.3
		c0.1,0,0.3,0.1,0.3,0.3c0,0.1-0.1,0.3-0.3,0.3h0h-2.2L15.8,26.7z M15.1,25.7c-0.1-0.2-0.2-0.3-0.3-0.3c-0.1,0-0.3,0-0.5,0
		c-0.2,0-0.4,0-0.6,0c-0.1,0-0.2-0.1-0.3-0.1c0.1-0.2,0.9-1.5,1-1.6c0.1,0,0.2,0.1,0.3,0.1c0.1,0,0.2,0,0.4,0l0.1,1.9
		C15.2,25.7,15.1,25.7,15.1,25.7 M13.2,24.2c-0.4,0-0.6-0.3-0.6-0.6h1.3C13.8,23.9,13.5,24.2,13.2,24.2 M13.8,23.3l-0.5-1.1l1.7,0
		l0.1,1.3c-0.1,0-0.2,0-0.3,0c-0.2-0.1-0.3-0.1-0.3-0.1l-0.1-0.1l-0.1,0.1L14,23.7c0-0.1,0-0.1,0-0.2v-0.3H13.8z M13.2,22.3l0.5,1
		h-0.9L13.2,22.3z M17.4,24.1c-0.1,0-0.1,0-0.2,0c-0.2,0-0.3-0.1-0.4-0.2c-0.1-0.1-0.2-0.2-0.4-0.2c0,0-0.1,0-0.1,0l0.1-1.4H18
		l-0.5,1.1h-0.2v0.3C17.3,23.8,17.3,24,17.4,24.1 M18.6,23.3h-0.9l0.5-1L18.6,23.3z M18.9,23.3l-0.5-1.1c0.3,0,0.5-0.3,0.5-0.5
		c0-0.3-0.2-0.5-0.5-0.5c-0.2,0-0.4,0.1-0.5,0.3c-0.7,0-1.2-0.1-1.6-0.3c0,0,0-0.1,0-0.2c0-0.3-0.3-0.6-0.6-0.6
		c-0.3,0-0.6,0.3-0.6,0.6c0,0.1,0,0.1,0,0.2c-0.4,0.2-0.9,0.3-1.6,0.3c-0.1-0.2-0.3-0.3-0.5-0.3c-0.3,0-0.5,0.2-0.5,0.5
		c0,0.3,0.2,0.5,0.5,0.5l-0.5,1.1h-0.2v0.3c0,0.5,0.4,0.9,0.9,0.9c0.2,0,0.4-0.1,0.5-0.1l-0.5,0.8h0l0,0l0,0l0,0l-0.1,0.4l1.7,0.3
		c0,0.1,0.1,0.2,0.3,0.2c0.1,0,0.2,0,0.3,0l0,0.7l0,0c0,0.2,0.2,0.4,0.4,0.4c0.2,0,0.4-0.2,0.4-0.3v0v0l0-0.5l1,0.3l0.8-2.1l0-0.1
		c0.1,0,0.2,0.1,0.3,0.1c0.5,0,0.9-0.4,0.9-0.9v-0.3H18.9z"/>
	<path fill="#FFFFFF" d="M6.1,15.4c0.2,0,0.4,0,0.6,0.1c0,0,0.2,0,0.5,0c0.3,0,0.5,0.3,0.5,0.3l0,0.1c0,0-0.1,0.1-0.5,0.1
		c-0.2,0-0.4-0.1-0.5-0.2c-0.2,0-0.3-0.1-0.5-0.1c-0.3,0-0.7,0.3-0.7,0.8c0,0.4,0.3,0.7,0.5,0.9c0.3,0.2,0.5,0.3,0.6,0.4l0,0
		c-0.1,0-0.1,0.1-0.2,0.1c-0.5-0.2-1.2-0.6-1.2-1.4C5.1,15.8,5.6,15.4,6.1,15.4 M8.2,16.2v0.3c0,0.4-0.3,0.6-0.6,0.8
		c-0.1,0.1-0.3,0.2-0.3,0.2l-0.6,0.2c-0.1-0.1-0.3-0.3-0.5-0.4c-0.3-0.2-0.6-0.4-0.6-0.8v-0.3H8.2z M7.4,18.6l-0.8,0.2
		c-0.1,0-0.2,0-0.2-0.1c0-0.1,0-0.2,0.1-0.2l0.8-0.2c0.1,0,0.2,0,0.2,0.1C7.6,18.5,7.5,18.6,7.4,18.6 M6.5,18l0.8-0.2
		c0.1,0,0.2,0,0.2,0.1c0,0.1,0,0.2-0.1,0.2l-0.8,0.2c-0.1,0-0.2,0-0.2-0.1C6.4,18.1,6.4,18,6.5,18 M7.7,19.5L7.7,19.5l-1.5,0v0
		c0-0.1,0.4-0.3,0.5-0.5l0.4-0.1C7.1,19.1,7.7,19.3,7.7,19.5 M7.7,14.3h1.4v-1.6h0.8v1.6h1.4V15H9.9v4.5H9.1V15H7.7V14.3z M4.8,16.5
		c0,1,0.8,1.4,1.4,1.7c0,0.1,0.1,0.2,0.2,0.2c0,0-0.1,0.1-0.1,0.1c0,0.1-0.1,0.2,0,0.3c0,0.1,0.1,0.1,0.1,0.2
		C6.2,19.1,6,19.3,6,19.6v0.2h2v-0.2c0-0.3-0.3-0.5-0.5-0.6c0,0-0.1-0.1-0.1-0.1v0c0,0,0.3-0.1,0.3-0.4c0-0.1-0.1-0.3-0.2-0.3
		c0,0,0.1-0.1,0.1-0.1c0-0.1,0.1-0.2,0-0.3c0-0.1,0-0.1-0.1-0.1c0.1,0,0.1-0.1,0.2-0.1c0.3-0.2,0.7-0.5,0.7-1V16H7.9l0-0.2
		c0.1,0,0.2-0.1,0.2-0.1c0.1,0,0.2,0.1,0.3,0.1c0.1,0,0.1,0,0.1-0.1c0,0-0.1,0-0.1,0c-0.1,0-0.2-0.1-0.3-0.1c-0.1,0-0.1,0-0.2,0
		c0,0-0.2-0.2-0.3-0.3h1.2v4.4h1.3v-4.4h1.4V14h-1.4v-1.6H8.8V14H7.4v1.3c-0.1,0-0.2-0.1-0.3-0.1c-0.2,0-0.4,0-0.4,0
		s-0.3-0.1-0.6-0.1C5.5,15.1,4.8,15.7,4.8,16.5"/>
	<path fill="#FFFFFF" d="M17.7,16.9c0-0.3,0.1-0.4,0.4-0.4c0.1,0,0.2,0.1,0.2,0.2c0,0.1-0.1,0.2-0.2,0.2c-0.1,0-0.1,0.1-0.1,0.1
		c0,0.1,0.1,0.1,0.1,0.1c0.3,0,0.5-0.2,0.5-0.4c0-0.3-0.2-0.5-0.5-0.5c-0.3,0-0.5,0.2-0.6,0.4l-0.3-0.7H18c0.6,0,0.9,0.3,0.9,0.8
		c0,0.4-0.3,0.7-0.7,0.7C17.9,17.4,17.7,17.1,17.7,16.9 M18.4,19.6L18.4,19.6L15.7,15c0,0,0,0,0.1,0c0.3,0,0.5-0.1,0.7-0.3
		C17,16.2,18.4,19.6,18.4,19.6 M17.5,19.2h-0.5V18l0.5,0.8V19.2z M16.8,19.2h-0.5v-1.8c0-0.1-0.1-0.2-0.2-0.2
		c-0.1,0-0.2,0.1-0.2,0.2v1.8h-0.5v-1.8c0-0.1-0.1-0.2-0.2-0.2c-0.1,0-0.2,0.1-0.2,0.2v1.8h-0.5v-1.7L15,17h1.5l0.3,0.5V19.2z
		 M14.4,19.2h-0.5v-0.3l0.5-0.8V19.2z M15.6,15.8h0.2l0.5,0.8h-1.2L15.6,15.8z M13.2,19.6L13.2,19.6c-0.1,0,1.3-3.4,1.8-4.9
		c0.1,0.1,0.2,0.2,0.3,0.2l0.3,0.4L13.2,19.6z M13.3,17.4c-0.4,0-0.7-0.3-0.7-0.7c0-0.5,0.3-0.8,0.9-0.8h0.8L14,16.5
		c-0.1-0.2-0.3-0.4-0.6-0.4c-0.3,0-0.5,0.2-0.5,0.5c0,0.3,0.2,0.4,0.4,0.4c0.1,0,0.1-0.1,0.1-0.1c0-0.1-0.1-0.1-0.1-0.1
		c-0.1,0-0.2,0-0.2-0.2c0-0.1,0.1-0.2,0.2-0.2c0.2,0,0.4,0.2,0.4,0.4C13.8,17.1,13.6,17.4,13.3,17.4 M15.7,13.4
		c0.4,0,0.7,0.3,0.7,0.7c0,0.4-0.3,0.7-0.7,0.7c-0.4,0-0.7-0.3-0.7-0.7C15,13.7,15.3,13.4,15.7,13.4 M19.2,16.7
		c0-0.7-0.5-1.1-1.2-1.1h-0.9l-0.4-1.1c0-0.1,0.1-0.2,0.1-0.4c0-0.5-0.4-1-1-1c-0.5,0-1,0.4-1,1c0,0.1,0,0.3,0.1,0.4l-0.4,1.1h-0.9
		c-0.7,0-1.2,0.5-1.2,1.1c0,0.5,0.4,1,1,1c0.1,0,0.2,0,0.3-0.1l-0.4,1l-0.3,0.9c-0.1,0.2,0.1,0.3,0.1,0.3l0.2,0.1
		c0.1,0.1,0.2,0,0.3-0.1l0.2-0.4v0.1h0.3h3.6h0.3v-0.1l0.2,0.4c0.1,0.1,0.2,0.2,0.3,0.1l0.2-0.1c0,0,0.1-0.1,0.1-0.3l-0.3-0.9
		l-0.4-1c0.1,0,0.2,0.1,0.3,0.1C18.7,17.6,19.2,17.2,19.2,16.7"/>
	<path fill="#FFFFFF" d="M7.2,15.7C7.2,15.7,7.2,15.7,7.2,15.7c0.1-0.1,0-0.1,0-0.1C7.1,15.6,7.1,15.6,7.2,15.7
		C7.1,15.7,7.1,15.7,7.2,15.7"/>
	<path fill="#FFFFFF" d="M15.6,6.9c0.2-0.2,0.4-0.3,0.4-0.4l0,0l0.1,0l0,0c0,0,0,0.1,0,0.1l0,0l0,0C16,6.8,15.8,7,15.7,7.3l0,0.1
		l0-0.1l0,0c0,0,0-0.1,0-0.1v0C15.6,7.1,15.6,7,15.6,6.9L15.6,6.9L15.6,6.9z M15.5,7.3c0,0.1,0.1,0.2,0.1,0.3
		c0.1,0.1,0.3,0.1,0.3,0.1l0,0c0,0,0-0.1,0-0.1c0-0.5,0.5-0.8,0.5-0.8s0-0.1,0-0.1l-0.1-0.3c0,0,0-0.1-0.1-0.1L16,6.3
		c-0.3,0.3-0.5,0.5-0.6,0.6C15.5,7,15.5,7.2,15.5,7.3"/>
	<path fill="#FFFFFF" d="M16.5,6.1c0,0.1,0,0.5,0,0.5c0,0,0.2-0.2,0.2-0.3c0-0.2-0.1-0.5-0.1-0.5c0,0-0.2-0.2-0.3-0.2
		c0,0-0.1,0.1-0.1,0.2c0,0.1-0.1,0.2-0.2,0.3v0C16.2,6,16.5,6,16.5,6.1"/>
	<path fill="#FFFFFF" d="M5.4,8.4l0.2,0.3C5.7,8.6,5.9,8.5,6,8.4c0,0,0,0,0-0.1c0,0,0-0.1,0-0.1C6,8.1,6.1,8,6.2,8
		c0.1,0,0.1,0,0.2,0c0.1,0,0.2,0,0.3,0.1C6.8,8,6.9,8,7.1,8L7,7.6C6.7,7.7,6.4,7.8,6.1,7.9C5.9,8,5.6,8.2,5.4,8.4"/>
	<path fill="#FFFFFF" d="M4.8,7.7L5,8c0.2-0.1,0.4-0.3,0.6-0.4c0,0,0,0,0,0c0-0.1,0.1-0.3,0.2-0.3c0.1,0,0.1,0,0.2,0
		c0.1,0,0.2,0,0.3,0.1c0.2-0.1,0.4-0.1,0.6-0.2c0,0-0.1-0.4-0.1-0.4C6.5,6.8,6.1,6.9,5.8,7.1C5.4,7.2,5.1,7.5,4.8,7.7"/>
	<path fill="#FFFFFF" d="M5.2,6.8C5.2,6.8,5.2,6.7,5.2,6.8c0-0.2,0.1-0.3,0.2-0.4c0.1,0,0.1,0,0.2,0c0.1,0,0.2,0,0.3,0.1
		c0.3-0.1,0.5-0.2,0.8-0.2C6.7,6.1,6.6,6,6.6,6c0,0,0,0-0.1,0C6.5,5.9,6.3,6,6.2,6L6.1,6C6,6,5.9,6.1,5.8,6.1C5.6,6.1,5.4,6,5.3,5.9
		C5.2,5.8,5.2,5.8,5.2,5.8c0,0,0,0,0,0c0,0,0,0,0,0.1c0,0,0,0,0,0.1c0,0,0,0.1,0,0.1c0,0.3-0.3,0.5-0.4,0.6l0,0C4.4,6.9,4.4,7,4.3,7
		c0,0,0.1,0.1,0.2,0.2C4.7,7.1,5,6.9,5.2,6.8"/>
	<path fill="#FFFFFF" d="M13.7,6.1c0.1,0.1,0.2,0.3,0.3,0.4c0,0-0.2,0.1-0.3,0.5c-0.1,0-0.1,0-0.2,0c0-0.1,0-0.1,0-0.2
		c0-0.2,0-0.4,0-0.5C13.5,6.1,13.6,6.1,13.7,6.1 M13.3,7c0.2,0,0.4,0.1,0.4,0.1c0.1-0.4,0.3-0.6,0.5-0.7c-0.1-0.1-0.3-0.3-0.4-0.6
		C13.6,5.9,13.4,6,13.3,6c0,0.1,0.1,0.3,0.1,0.6C13.3,6.8,13.3,6.9,13.3,7"/>
	<path fill="#FFFFFF" d="M10.2,6.2c0,0.2,0,0.3,0,0.5c0,0.1,0,0.1,0,0.2c-0.1,0-0.1,0-0.2,0C9.9,6.6,9.7,6.4,9.7,6.4
		C9.8,6.3,9.9,6.2,10,6.1C10.1,6.1,10.2,6.1,10.2,6.2 M9.5,6.4c0.1,0.1,0.4,0.3,0.5,0.7C10,7.1,10.2,7,10.4,7c0-0.1,0-0.2,0-0.3
		c0-0.3,0-0.5,0.1-0.6c-0.1,0-0.3-0.1-0.5-0.2C9.8,6.1,9.6,6.3,9.5,6.4"/>
	<path fill="#FFFFFF" d="M10.1,7.6c0.1,0,0.2-0.1,0.3-0.1c0.1,0.1,0.1,0.2,0.2,0.3C10.5,7.9,10.3,7.9,10,8
		C10.1,7.9,10.1,7.7,10.1,7.6 M9.7,8.3c0.6-0.1,1-0.3,1.2-0.4c-0.1-0.1-0.3-0.3-0.4-0.6c-0.1,0-0.2,0.1-0.5,0.1
		C10,7.8,9.8,8.1,9.7,8.3"/>
	<path fill="#FFFFFF" d="M11.8,7.7c0,0,0.1,0.1,0.1,0.1c0,0-0.1,0.1-0.1,0.1c0,0-0.1,0-0.1-0.1C11.8,7.8,11.8,7.8,11.8,7.7
		 M11.5,7.9c0.1,0.1,0.2,0.2,0.4,0.2C12,8.1,12.2,8,12.2,7.9c-0.1-0.1-0.3-0.2-0.4-0.5C11.7,7.7,11.5,7.8,11.5,7.9"/>
	<path fill="#FFFFFF" d="M9.8,4.6c0,0,0.1,0.1,0.1,0.2c0,0.1,0,0.2-0.1,0.4C9.7,5.1,9.7,5,9.7,4.9C9.7,4.8,9.7,4.6,9.8,4.6 M9.8,5.4
		c0.1-0.1,0.2-0.4,0.2-0.7c0-0.1-0.1-0.3-0.3-0.3c-0.2,0-0.3,0.2-0.3,0.5C9.5,5.2,9.7,5.4,9.8,5.4"/>
	<path fill="#FFFFFF" d="M13.3,7.5c0.1,0,0.2,0.1,0.3,0.1c0,0.2,0,0.3,0.1,0.5c-0.3-0.1-0.4-0.1-0.6-0.2C13.1,7.7,13.2,7.6,13.3,7.5
		 M14,8.3c-0.1-0.1-0.3-0.4-0.3-0.8c-0.3-0.1-0.4-0.1-0.5-0.1c-0.1,0.3-0.3,0.5-0.4,0.6C12.9,8,13.3,8.1,14,8.3"/>
	<path fill="#FFFFFF" d="M10.9,6.4c0.2,0.1,0.4,0.1,0.4,0.1s-0.2,0-0.3,0.2c0,0,0,0-0.1,0c0,0,0,0,0,0C10.8,6.6,10.8,6.5,10.9,6.4
		 M11.5,6.9c0,0,0,0.3-0.3,0.6c-0.1-0.1-0.1-0.1-0.1-0.2C11.5,7.2,11.5,6.9,11.5,6.9 M11,6.8C11,6.8,11.1,6.8,11,6.8
		C11.1,6.8,11.1,6.8,11,6.8c0-0.1,0.1-0.2,0.2-0.2c0,0,0,0,0,0c0.1,0,0.1,0,0.2,0.1c0,0.1-0.1,0.3-0.3,0.4l-0.3,0.1
		c0.1,0.2,0.2,0.3,0.4,0.5c0.3-0.2,0.5-0.5,0.5-0.8c0-0.4-0.4-0.6-0.9-0.8c0,0.2,0,0.3,0,0.5c0,0.1,0,0.2,0,0.2L11,6.8z"/>
	<path fill="#FFFFFF" d="M13.9,4.6c0.1,0,0.2,0.1,0.2,0.3c0,0.1,0,0.2-0.1,0.3c-0.1-0.2-0.1-0.3-0.1-0.4C13.8,4.7,13.8,4.6,13.9,4.6
		 M14.2,4.9c0-0.2-0.2-0.5-0.3-0.5c-0.2,0-0.3,0.2-0.3,0.3c0,0.2,0.2,0.6,0.2,0.7C14,5.4,14.2,5.2,14.2,4.9"/>
	<path fill="#FFFFFF" d="M12.2,6.9c0,0,0,0.3,0.5,0.4c0,0.1-0.1,0.1-0.2,0.2C12.1,7.2,12.2,6.9,12.2,6.9 M12.8,6.4
		c0,0.1,0,0.2,0,0.3c0,0,0,0,0,0c0,0-0.1,0-0.1,0c-0.1-0.2-0.3-0.2-0.3-0.2S12.6,6.4,12.8,6.4 M12.5,7.7c0.2-0.2,0.3-0.3,0.4-0.5
		l-0.3-0.1c-0.2-0.1-0.3-0.2-0.3-0.4c0-0.1,0.1-0.1,0.1-0.1c0,0,0,0,0,0c0.1,0,0.1,0.1,0.1,0.2c0,0,0,0,0,0c0,0,0,0,0,0L13,6.9
		c0-0.1,0-0.2,0-0.2c0-0.2,0-0.4,0-0.5C12.5,6.3,12,6.5,12,6.9C12,7.2,12.2,7.5,12.5,7.7"/>
	<polygon fill="#FFFFFF" points="17.9,8.1 18,7.6 18.5,7.5 18,7.3 18.1,6.8 17.7,7.2 17.3,6.9 17.3,6.9 17.5,7.4 17.2,7.8 17.7,7.7 
			"/>
	<path fill="#FFFFFF" d="M17.1,6.7c0.2-0.2,0.1-0.6,0.1-0.6l0,0c0.1,0.1,0.2,0.1,0.3,0.2c0.1,0,0.2,0.1,0.4,0.1
		c0.2,0,0.3-0.1,0.4-0.2c0,0,0,0,0,0c0,0,0,0,0,0.1c0,0,0,0.1,0,0.1c0,0.3,0.3,0.6,0.5,0.6c0,0,0.1,0.1,0.3,0.1l0,0
		c0,0-0.2,0.1-0.4,0.4c-0.2,0.4,0,0.8-0.1,1c-0.1,0.2-0.3,0.3-0.4,0.3c0,0-0.1,0-0.1,0l-0.3-0.1c-0.1,0-0.3-0.1-0.5-0.1l0,0
		c-0.1-0.1-0.2-0.2-0.4-0.3c0,0-0.2-0.2-0.2-0.2c-0.1-0.1-0.3-0.3-0.1-0.6C16.6,7.2,16.9,7.1,17.1,6.7 M16.3,7.3
		c0,0.1-0.1,0.2-0.1,0.3c0,0.2,0.1,0.4,0.3,0.5c0,0,0.2,0.2,0.2,0.2c0.2,0.1,0.3,0.2,0.4,0.3l0,0l0.1,0c0.1,0,0.3,0,0.5,0.1L18,8.8
		c0.1,0,0.1,0,0.2,0c0.2,0,0.3-0.1,0.4-0.2c0.1-0.1,0.1-0.1,0.2-0.2c0-0.1,0.1-0.2,0.1-0.3l0-0.2c0-0.1,0-0.2,0-0.3c0,0,0,0,0-0.1h0
		l0-0.1c0.1-0.2,0.2-0.3,0.4-0.3l0.1-0.1l0-0.3l-0.1,0c-0.1,0-0.2-0.1-0.3-0.1c-0.1,0-0.4-0.2-0.4-0.5c0,0,0,0,0,0c0,0,0-0.1,0-0.1
		c0-0.1-0.1-0.2-0.1-0.2c0,0-0.1,0-0.1,0c-0.1,0-0.1,0.1-0.2,0.1c-0.1,0.1-0.2,0.1-0.3,0.1c-0.1,0-0.2,0-0.3-0.1
		c0,0-0.2-0.1-0.3-0.2l-0.1-0.1l-0.1,0c0,0-0.1,0-0.1,0.1L17,6l0,0.1c0,0.1,0,0.2,0,0.2c0,0.1,0,0.2,0,0.2l0,0.1c0,0,0,0,0,0.1
		c-0.1,0.1-0.2,0.2-0.3,0.3C16.5,7.1,16.4,7.2,16.3,7.3"/>
	<path fill="#FFFFFF" d="M8.7,7.8c0.1,0,0.1-0.2,0.2-0.2c0.1-0.1,0.2,0,0.2-0.2c0-0.1-0.2-0.1-0.2-0.2c-0.1-0.1,0-0.2-0.2-0.2
		c-0.1,0-0.1,0.1-0.1,0.2v0.4C8.6,7.8,8.6,7.8,8.7,7.8"/>
	<path fill="#FFFFFF" d="M4.1,9.3C4,9.3,3.9,9.3,3.9,9.3c-0.1,0.1,0,0.2,0,0.3c0,0.1-0.1,0.2,0,0.3c0.1,0.1,0.2,0,0.3,0
		c0.1,0,0.2,0.1,0.3,0c0.1-0.1,0-0.2,0-0.2L4.1,9.3z"/>
	<path fill="#FFFFFF" d="M11.9,31.7c-6.4,0-11.6-5.1-11.6-11.5c0-2.6,0.8-4.9,2.2-6.8c0.1,0,0.2-0.1,0.2-0.1
		c0.1-0.1,0.2-0.2,0.2-0.4c2.1-2.5,5.3-4.2,8.8-4.2c3.6,0,6.8,1.6,9,4.2c0.1,0.4,0.4,0.6,0.5,0.6c1.4,1.9,2.2,4.2,2.2,6.7
		C23.4,26.5,18.3,31.7,11.9,31.7 M3.2,12.1C3,12.3,3,12.3,2.8,12.5c0,0,0,0,0-0.1c-0.1-0.1-0.1-0.1-0.2-0.1c0,0,0,0,0.1-0.1
		C2.8,12.2,3.2,12.1,3.2,12.1 M3.3,9.7L3.3,9.7L3.3,9.7z M1.7,12.6c0-0.3,0.2-0.5,0.4-0.7c0.1-0.1,0.2-0.1,0.3-0.1l0.4-0.2l0.2-0.1
		l-0.1,0c-0.7,0-1-0.2-1-0.6c0-0.1,0.1-0.2,0.2-0.2c0.1,0,0.2,0.1,0.2,0.2c0,0,0,0.1,0,0.1c0.1,0.1,0.5,0.1,0.7,0.1
		c0.4,0,0.8-0.2,1-0.3c-0.2,0-0.5-0.1-0.7-0.3C3,10.4,2.9,10.1,2.8,9.7c0-0.3,0.1-0.7,0.3-0.9c0.5-0.6,1.1-0.6,1.1-0.6
		c0.1,0,0.2,0.1,0.2,0.2c0,0.1-0.1,0.2-0.2,0.2c0,0-0.5,0-0.9,0.5C3.2,9.2,3.1,9.4,3.2,9.7c0,0.2,0.1,0.5,0.3,0.6
		c0.1,0.1,0.3,0.2,0.6,0.2c0.2,0,0.5-0.1,0.7-0.4l0,0c0.2-0.3,0.6-0.6,0.6-0.7c0.1-0.1,0.3,0.1,0.2,0.2c-0.2,0.3-0.6,0.7-1,1.2
		c-0.1,0.1-0.1,0.1-0.1,0.1c-0.3,0.3-0.6,0.5-1,0.8c-0.4,0.2-0.5,0.3-0.6,0.3v0l-0.5,0.2c-0.1,0-0.2,0.1-0.2,0.1
		C2.1,12.4,2,12.5,2,12.6c0,0.1,0.1,0.2,0.2,0.2c0.1,0,0.2-0.1,0.2-0.2c0,0,0-0.1,0-0.1c0,0,0.1,0,0.1,0c0.1,0,0.2,0.1,0.2,0.2
		c0,0.4-0.3,0.5-0.5,0.5C2,13.2,1.7,12.9,1.7,12.6 M2.9,8.2V7.9H3V7.7H2.6v0.3h0.1v0.3H2.3V7.9h0.1l0-0.3H2.3V7.3h1.6
		c0.2,0.1,0.2,0.2,0.2,0.4H3.2v0.3h0.1v0.3L2.9,8.2z M4.4,8.1c0,0-0.1,0-0.1,0c0,0-0.3,0-0.7,0.2V7.9h0.6C4.2,7.9,4.3,8,4.4,8.1
		 M4.7,9.4c0.1,0.1,0.2,0.2,0.2,0.3c0,0.3-0.2,0.5-0.4,0.5c-0.1,0-0.2,0-0.2,0c0,0-0.1,0.1-0.2,0.1c-0.3,0-0.5-0.2-0.5-0.5
		c0-0.1,0-0.1,0-0.2c0,0-0.1-0.1-0.1-0.2c0-0.1,0-0.2,0.1-0.3C3.7,9,3.8,8.9,3.9,8.9c0,0,0,0,0,0C4,8.9,4.2,9,4.2,9c0,0,0,0,0,0
		l0.5-0.6c0,0,0.1,0,0.2,0.1C5,8.7,5,8.9,5,8.9L4.7,9.4C4.6,9.4,4.7,9.4,4.7,9.4 M4.9,9.4c0,0,0.1-0.1,0.2-0.3
		c0.1,0.1,0.1,0.1,0.2,0.2C5.2,9.4,5.1,9.6,5,9.7v0C5,9.6,5,9.5,4.9,9.4 M4.4,6.4L4.4,6.4C4.6,6.3,4.8,6.1,4.7,6
		c0-0.2,0-0.4,0.3-0.6c0.3-0.1,0.5,0,0.6,0.2c0,0,0.1,0.1,0.1,0.1c0.2,0,0.5-0.1,0.8-0.1c0.2,0,0.4,0.1,0.4,0.2
		c0.3,0.8,0.6,2.7,0.6,2.7c0,0-0.5,0-1.1,0.3C6,8.9,5.6,9.3,5.6,9.3c0,0-1.2-1.4-1.7-2.2C3.8,7,4,6.7,4.4,6.4 M8.1,4.5l0.3,0.3
		L8.4,4.9L8.6,5l0.1-0.1l0.2,0.2L8.6,5.5L8.3,5.3l0.1-0.1L8.2,5.1L8,5.3l0.2,0.2l0.1-0.1l0.2,0.2L8.2,6L8,5.8L8,5.7L7.8,5.5L7.3,6.2
		c0,0,0,0,0,0C7.2,6,7.1,5.9,7.1,5.7L8.1,4.5z M9,5.3c0,0,0.1,0.3,0.4,0.5C9.3,5.9,9.2,6,9.2,6.1C9,6.1,8.9,6,8.8,6
		c-0.2,0-0.3,0-0.5,0.1L9,5.3z M8.2,8.2c-0.2,0-0.4,0-0.5,0c0-0.1,0-0.1,0-0.3h0.4C8.1,8,8.1,8.1,8.2,8.2C8.2,8.2,8.2,8.2,8.2,8.2
		 M7.4,6.7L7.4,6.4C7.6,6.2,7.7,6,7.8,5.9c0,0,0.2,0.2,0.3,0.3C7.7,6.3,7.5,6.6,7.4,6.7 M7.5,7.2L7.5,7.2l0.8,0c0,0,0,0,0,0
		c0-0.3,0.2-0.5,0.5-0.5C9,6.7,9.1,7,9.1,7c0.1,0,0.3,0.1,0.3,0.4c0,0.3-0.2,0.4-0.3,0.4C9.1,8,9,8.2,8.7,8.2C8.4,8.2,8.2,8,8.2,7.7
		c0,0,0,0,0,0H7.6l0,0c0,0,0,0,0,0C7.4,7.5,7.4,7.4,7.5,7.2 M7,9.1C7,9.1,7,9.1,7,9.1C7,9,7,8.9,7.1,8.8c0.1,0,0.3,0,0.5,0
		c0.2,0,0.4,0,0.7,0C7.8,9,7.3,9.2,6.9,9.4C7,9.4,7,9.3,7,9.1 M6.8,9.4c-0.5,0.2-0.9,0.5-1.4,0.8C5.6,10,5.8,9.8,5.9,9.6
		C6,9.5,6.2,9.3,6.2,9.2c0.1,0,0.2,0.1,0.2,0.1C6.6,9.4,6.7,9.5,6.8,9.4 M6.8,9.1c0,0,0,0.1-0.1,0.1c0,0-0.1,0-0.1,0
		c0,0-0.1-0.2-0.3-0.2c0.1-0.1,0.4-0.2,0.6-0.3C6.8,8.9,6.8,9.1,6.8,9.1 M9.8,4.1c0.3,0,0.6,0.3,0.6,0.6c0,0.3-0.2,0.7-0.3,0.8
		c0.1,0.1,0.3,0.1,0.4,0.2c0-0.1,0.1-0.4,0.3-0.7l0-0.1l0,0C11,5.1,11,5.2,11.1,5.2l0,0l0,0c-0.2,0.3-0.2,0.5-0.3,0.6
		c0.4,0.1,0.8,0.3,1,0.6c0.2-0.3,0.6-0.5,1-0.6c-0.1-0.2-0.2-0.4-0.3-0.6l0,0l0,0c0.1,0,0.1-0.1,0.2-0.1l0,0l0,0
		c0.2,0.3,0.3,0.5,0.3,0.7c0.1,0,0.3-0.1,0.4-0.2c-0.1-0.1-0.3-0.5-0.3-0.8c0-0.3,0.2-0.6,0.6-0.6c0.3,0,0.6,0.4,0.6,0.8
		c0,0.3-0.2,0.6-0.5,0.8c0.2,0.3,0.4,0.5,0.5,0.6c0,0,0.3-0.1,0.3-0.1l-0.2,0.2c-0.2,0.2-0.3,0.3-0.3,0.3h0c-0.1,0-0.2,0.1-0.2,0.3
		c0,0,0,0,0,0l0,0l0,0C14,7.2,14,7.3,14,7.5c0,0.1,0,0.6,0.5,0.8l0,0l0,0.1c0,0,0.1,0.1,0.1,0.1l0.1,0.1l0.1,0.1l-0.1,0
		c-1.3-0.1-2-0.5-2.1-0.5c-0.1,0.1-0.5,0.4-0.7,0.4c-0.1,0-0.5-0.3-0.7-0.4C11,8.2,10,8.7,8.5,8.7c-0.2,0-0.5,0-0.8,0
		c-0.1,0-0.1-0.3,0-0.3c0.1,0,0.6,0,0.9,0l0.1,0c0.7,0,1-0.5,1-0.9c0-0.3-0.1-0.5-0.3-0.7C9.2,6.6,9,6.5,8.8,6.5
		c-0.6,0-0.9,0.4-0.9,0.4c0,0-0.1,0.1-0.1,0.1c0,0-0.1,0-0.1,0c0,0-0.1-0.1-0.1-0.1c0,0,0-0.1,0-0.1c0,0,0.4-0.5,1.2-0.5
		c0.2,0,0.3,0.1,0.4,0.1c0.2-0.2,0.4-0.5,0.4-0.6C9.5,5.6,9.2,5.4,9.2,4.9C9.2,4.5,9.5,4.1,9.8,4.1 M10.7,5
		c-0.1,0.2-0.2,0.3-0.3,0.5c0,0-0.1,0-0.1,0c0.1-0.2,0.2-0.5,0.2-0.6C10.6,4.9,10.6,5,10.7,5 M12.5,5.5c0,0.1,0.1,0.2,0.1,0.3
		c-0.3,0.1-0.6,0.3-0.8,0.5C11.6,6,11.3,5.9,11,5.7c0-0.1,0.1-0.2,0.1-0.3c0.2,0.2,0.5,0.3,0.7,0.3C12.1,5.7,12.3,5.6,12.5,5.5
		 M13.4,5.5C13.3,5.5,13.3,5.5,13.4,5.5C13.2,5.4,13.1,5.2,13,5c0-0.1,0.1-0.1,0.1-0.2C13.2,5.1,13.2,5.3,13.4,5.5 M11.8,5.4
		c-0.5,0-1.1-0.6-1.4-1.3h0.4c0.3,0.5,0.7,0.9,1,0.9c0.3,0,0.7-0.4,1-0.9h0.4C12.9,4.8,12.3,5.4,11.8,5.4 M9.8,3.6h4v0.3h-4V3.6z
		 M11.2,2.3c0.2,0,0.3,0,0.4,0.1V1.2h-0.6V0.8h0.6V0.3h0.4v0.6h0.6v0.4h-0.6v1.1c0.1,0,0.2-0.1,0.4-0.1c0.6,0,1,0.4,1,1.1
		c0,0,0,0,0,0h-0.4c0-0.4-0.2-0.7-0.7-0.7c-0.3,0-0.5,0.2-0.6,0.3c-0.1-0.1-0.3-0.3-0.6-0.3c-0.5,0-0.7,0.4-0.7,0.7h-0.4v0
		C10.2,2.7,10.6,2.3,11.2,2.3 M15,5.4c0.1,0.1,0.1,0.2,0.2,0.3c0,0,0,0,0,0c0,0-0.2,0.2-0.3,0.3c-0.1,0-0.3,0-0.3,0.1
		c-0.1-0.1-0.2-0.2-0.3-0.3c0.3-0.3,0.4-0.5,0.4-0.5S14.8,5.4,15,5.4 M14.4,8c-0.2-0.2-0.2-0.4-0.2-0.5v0c0-0.1,0-0.2,0-0.2
		c0.1,0,0.1,0.1,0.2,0.1c0,0,0.1,0.1,0.1,0.1c0,0.1-0.2,0.2-0.2,0.2l0,0.2C14.3,7.8,14.4,7.9,14.4,8 M16.1,8.8c0.1,0,0.3,0,0.5,0
		c0,0,0.1,0.1,0.1,0.1c0,0,0,0.1,0,0.2c0,0.1,0.1,0.2,0.2,0.3c-0.5-0.2-1-0.4-1.5-0.6C15.6,8.8,15.9,8.8,16.1,8.8 M15.1,8.2
		C15.1,8.2,15,8.2,15.1,8.2C15,8,15,7.9,15,7.8c0,0,0,0,0-0.1c0.1-0.1,0.1-0.2,0.1-0.2l0,0.1c0,0,0.1,0.1,0.1,0.1s0,0,0.1,0
		c0,0,0,0,0.1,0L15.6,8c0,0,0.1,0,0.2,0c0,0,0,0,0,0c0,0,0.1,0.1,0.1,0.1C15.6,8.2,15.4,8.2,15.1,8.2 M15.2,8.6
		C15.2,8.6,15.2,8.6,15.2,8.6c0-0.1,0-0.1,0-0.2l0,0v0V8.4c0,0,0.7,0,0.8,0c0.2,0,0.2,0.3,0.1,0.3L15.2,8.6L15.2,8.6z M18.4,9.4
		c0.1,0,0.1,0,0.2,0c0,0,0,0,0,0.1c0,0.1,0,0.2,0.1,0.3l0.2,0.1c0,0,0,0.1-0.1,0.1C18.7,9.8,18.6,9.6,18.4,9.4 M18.2,10.2
		c-0.4-0.3-0.9-0.5-1.4-0.8c0.1,0,0.3,0,0.3-0.1c0.1-0.1,0.1-0.1,0.1-0.1c0,0,0.1,0,0.1,0c0.1,0.1,0.2,0.2,0.3,0.4
		C17.9,9.8,18.1,10,18.2,10.2 M17.9,9.5c-0.1-0.2,0.2-0.3,0.3-0.2c0.2,0.2,0.4,0.5,0.6,0.7l0.1,0.1h-0.1c-0.1,0-0.2,0-0.2,0.1l0,0
		l0,0C18.2,9.9,18,9.7,17.9,9.5 M14.9,4.9l0.2,0l0-0.1l0.1,0.1l0-0.2l0.1,0.1l0-0.1l0.1,0.2c0.1,0,0.1,0,0.2,0.1c0,0,0.2,0,0.2,0.1
		c0,0.1-0.2,0.2-0.2,0.2c0,0,0.1,0.1,0.1,0.1C15.8,5.4,16,5.6,16,5.7c0,0,0.1-0.1,0.1-0.2c0,0,0.2-0.2,0.2-0.2
		c0.1,0,0.2,0.1,0.3,0.1c0.1,0.1,0.2,0.2,0.2,0.2l0.5-0.3c0,0,0.2,0.4,0.6,0.4c0.1,0,0.1,0,0.2,0c0.2-0.2,0.4-0.3,0.6-0.2
		c0.2,0.1,0.3,0.3,0.3,0.5c0,0.1,0.2,0.3,0.3,0.3c0.1,0.1,0.3,0.1,0.3,0.1l0.1,0l0.1,0.7c-0.6,0.3-0.6,0.3-0.6,0.9
		c0,0.2,0,0.4-0.1,0.6C19,8.8,19,8.9,18.9,9c0,0,0,0,0,0c0,0,0,0,0,0.1L19,9.3c0,0,0.3-0.2,0.3-0.3c0,0,0-0.4,0-0.4s0.1-0.1,0.1-0.6
		c0-0.4,0-0.5,0.2-0.6c0.1,0,0.2-0.2,0.3-0.2c0,0.2-0.3,0.2-0.3,0.3c0,0.1,0,0.1,0.1,0.1l0,0c0.1,0,0.1,0,0.1,0
		c0.1,0,0.1-0.1,0.2-0.1c0.1,0,0.2,0,0.2,0.1l0-0.1c0,0-0.1-0.1-0.1-0.2c0-0.1-0.1-0.1-0.2-0.1l0-0.1c0-0.1,0.1-0.1,0.2-0.1
		c0.1,0,0.1,0,0.1,0L20.6,7l0,0.1l0.1,0l0,0.1l0.1,0l0,0.1l0.1,0.1l-0.2,0.1c0,0.1,0,0.2-0.2,0.3c0,0,0,0,0,0.1
		c0,0.2-0.1,0.2-0.2,0.2l0,0.2c0,0,0.1,0.1,0.1,0.1c0.4,0,0.3-0.6,0.6-0.6c0.2,0,0.2,0.2,0.3,0.4c0,0.3,0.1,0.5,0,1
		C21.2,9.5,21.1,9.7,21,10c0-0.1,0-0.2,0-0.2l0-0.1c0-0.3-0.1-0.7-0.3-0.9c-0.1-0.1-0.2-0.1-0.3-0.1c-0.1,0-0.2,0-0.2,0.1
		c-0.1,0.1-0.1,0.1-0.1,0.2c0,0.1,0,0.2,0.1,0.3c0.1,0.1,0.1,0.2,0.1,0.4l0,0.1c0,0.2-0.1,0.4-0.3,0.5c0,0,0,0,0,0
		c0-0.1,0.1-0.2,0.1-0.3c0,0,0-0.1,0-0.2c0-0.1,0.1-0.2,0.1-0.3c-0.1,0-0.2,0.2-0.3,0.2c0,0-0.1,0-0.1,0c0,0.1,0,0.2,0,0.2
		c0,0-0.1,0.5-0.1,0.5c0,0,0,0,0,0l-0.2,0h0c0,0-0.1-0.1-0.1-0.1l0.1-0.4l-0.1,0.3c0,0,0-0.1-0.1-0.1c0,0-0.1,0-0.1,0l-0.2,0.4
		c0,0,0.1,0.1,0.1,0.2l0,0c0,0-0.1-0.1-0.2-0.1c-0.1,0-0.1,0.1-0.2,0.1l0,0c0,0,0-0.1,0.1-0.1c0,0-0.1,0-0.1,0
		c-0.1,0-0.2,0.1-0.2,0.1l0,0c0,0,0.1-0.1,0.2-0.1c0,0,0,0-0.1,0c0,0-0.1,0-0.1,0l0,0c0,0,0.1,0,0.1,0c0.1,0,0.2,0.1,0.3,0.1
		l0.2-0.4c0-0.2,0.1-0.2,0.1-0.3c0,0,0-0.1,0-0.1c0,0-0.2,0.1-0.3,0.1c-0.1,0,0-0.1,0-0.2l-0.1-0.2c-0.1,0-0.2,0-0.3,0l0,0
		c0,0,0,0,0,0c-0.1,0-0.3,0-0.5,0h0l-0.4-0.1c-0.1,0-0.2-0.1-0.3-0.1c-0.1,0-0.3,0.2-0.3,0.2c0,0-0.1,0-0.1,0c0,0-0.1-0.1-0.1-0.1
		c0,0,0-0.2,0-0.3c-0.1-0.1-0.1-0.1-0.2-0.2l-0.3-0.2l0,0c-0.2-0.1-0.3-0.3-0.3-0.5l0,0l-0.1-0.1l-0.2,0c0,0-0.2-0.2-0.3-0.3
		l-0.1-0.1c0,0,0-0.1,0-0.2c0-0.1-0.1-0.1-0.1-0.1c0,0-0.1,0.2-0.2,0.3c-0.1,0.1-0.2,0.2-0.2,0.3c0,0.1,0,0.3,0.1,0.5
		c0,0,0,0,0.1,0.1c0,0,0.1,0.2,0.2,0.2c0,0,0,0.1,0,0.1c-0.1,0-0.1,0-0.2,0l0,0l0-0.1l-0.1-0.1c0-0.1,0-0.3-0.1-0.4
		c0-0.1-0.1-0.2-0.1-0.2l0-0.1c0.1-0.1,0.2-0.3,0.2-0.4c0,0-0.1-0.1-0.1-0.1c0,0-0.1-0.1-0.1-0.1c-0.1,0-0.2,0-0.2-0.1
		c0,0,0-0.1,0-0.1c0-0.1,0.1-0.1,0.1,0c0,0,0,0,0,0c0,0,0.1,0,0.1,0c0-0.1,0-0.2,0.1-0.3c0.1-0.1,0.2-0.2,0.2-0.2
		c0,0,0.1-0.1,0.2-0.2c0,0,0.1-0.1,0.2-0.1c0.2-0.1,0.3-0.3,0.3-0.4l0-0.2c-0.1-0.1-0.2-0.2-0.2-0.3c0,0,0,0,0-0.1
		c-0.1,0-0.3-0.1-0.3-0.2L15,5L14.9,4.9z M20.9,12.5c-0.2-0.2-0.2-0.3-0.4-0.4l0.5,0.2c0.1,0,0.1,0.1,0.1,0.1
		C20.9,12.3,20.9,12.5,20.9,12.5 M20.8,9.7c0,0.3-0.2,0.6-0.5,0.8c-0.2,0.2-0.5,0.3-0.7,0.3c0.3,0.2,0.6,0.3,1,0.3
		c0.6,0,0.7-0.1,0.7-0.2c0,0,0-0.1,0-0.1c0,0,0.1,0,0.1,0c0.1,0,0.2,0.1,0.2,0.2c0,0.6-0.7,0.6-1,0.6l-0.1,0c0.1,0,0.2,0.1,0.2,0.1
		c0.5,0.2,0.5,0.2,0.5,0.2c0.1,0,0.2,0.1,0.3,0.1c0.3,0.2,0.4,0.4,0.4,0.7c0,0.3-0.2,0.6-0.5,0.6c-0.3,0-0.5-0.2-0.5-0.5
		c0-0.1,0.1-0.2,0.2-0.2c0.1,0,0.2,0.1,0.2,0.2c0,0.2,0.1,0.2,0.2,0.2c0.1,0,0.2-0.1,0.2-0.3c0-0.1-0.1-0.3-0.3-0.4
		c-0.1-0.1-0.1-0.1-0.2-0.1l-0.5-0.2c0,0-0.5-0.2-0.6-0.3l0,0c-0.3-0.2-0.6-0.4-0.9-0.7L19,10.8l0,0c0,0,0.2,0.1,0.3,0
		c0.1-0.1,0-0.3,0-0.3l0.1,0c0,0,0,0,0,0c0,0,0,0,0.1,0c0.3,0,0.6-0.2,0.6-0.2c0.2-0.2,0.3-0.4,0.3-0.6c0,0,0-0.1,0-0.1
		c0-0.3-0.1-0.5-0.2-0.6c0,0-0.1-0.1-0.1-0.2c0,0,0-0.1,0-0.1c0,0,0.1,0,0.1,0c0.1,0,0.1,0,0.2,0.1c0.2,0.2,0.3,0.5,0.3,0.8
		C20.8,9.6,20.8,9.7,20.8,9.7 M21.6,13.4c0.3-0.1,0.6-0.4,0.6-0.8c0-0.2-0.1-0.6-0.6-0.9c-0.1,0-0.1-0.1-0.2-0.1
		c0.3-0.1,0.5-0.4,0.5-0.7c0-0.2-0.2-0.4-0.4-0.4c-0.1,0-0.2,0-0.3,0.1c-0.1,0.1-0.1,0.1-0.1,0.2c0,0-0.2,0-0.5,0
		c-0.1,0-0.2,0-0.4-0.1c0.1,0,0.3-0.2,0.4-0.3c0.1-0.1,0.3-0.1,0.4-0.3c0.3-0.5,0.4-0.7,0.5-1.1c0-0.2,0.1-0.4,0.1-0.6
		c0-0.2,0-0.3,0-0.4l0-0.2c0-0.1,0-0.5-0.4-0.6c0,0-0.6-0.8-0.6-0.9c0,0,0,0-0.1,0c0,0-0.2,0.3-0.2,0.3c-0.1,0-0.2,0-0.2,0.1
		c0,0,0,0-0.1-0.1c0,0,0,0-0.1,0l-0.1-0.6l-0.1,0c0,0-0.3,0.1-0.3,0.1c0,0-0.1,0-0.2-0.1c0,0-0.1-0.1-0.1-0.1c0,0,0-0.1,0-0.1
		c0-0.3-0.2-0.5-0.4-0.7c-0.2-0.1-0.5-0.2-0.9,0.2c0,0-0.1,0-0.1,0c-0.1,0-0.1-0.1-0.1-0.1L17.4,5l-0.5,0.3C16.5,5.1,16.4,5,16.2,5
		c-0.1,0-0.1,0.1-0.2,0.2c0,0,0-0.1,0-0.1c0-0.2-0.2-0.4-0.4-0.4c0,0-0.1,0-0.1,0c0-0.1-0.2-0.4-0.2-0.4c0,0-0.1,0-0.1,0
		c0,0-0.6,0.5-0.6,0.5c-0.1-0.4-0.3-0.6-0.7-0.7V3.4h-0.3v0c0-0.8-0.5-1.4-1.3-1.4c0,0-0.1,0-0.1,0V1.5h0.6V0.6h-0.6V0h-0.9v0.6
		h-0.6v0.9h0.6V2c-0.1,0-0.1,0-0.2,0c-0.8,0-1.3,0.6-1.3,1.4H9.6V4C9.2,4.1,9,4.4,8.9,4.8L8.7,4.6c0,0-0.5-0.4-0.5-0.4l-0.1,0L7,5.4
		C6.9,5.3,6.7,5.3,6.5,5.3c-0.3,0-0.7,0.1-0.8,0.1C5.4,5,5.1,5.1,4.9,5.2C4.7,5.3,4.4,5.5,4.4,5.9c0,0,0,0.1,0,0.1
		c0,0-0.1,0-0.1,0.1c0,0-0.1,0-0.1,0C3.9,6.4,3.7,6.7,3.6,7H2v1.5h1.1C3.1,8.6,2.6,8.9,2.6,9.6c0,0.8,0.7,1.2,0.8,1.3
		C3.2,11,3.1,11,3,11c-0.3,0-0.4,0-0.5,0c0-0.2-0.2-0.4-0.4-0.4c-0.2,0-0.4,0.2-0.4,0.4c0,0.5,0.4,0.6,0.5,0.7c-0.1,0-0.7,0.3-0.7,1
		c0,0.4,0.3,0.7,0.6,0.8C0.8,15.4,0,17.7,0,20.2C0,26.8,5.4,32,11.9,32c6.5,0,11.8-5.4,11.8-11.9C23.7,17.6,22.9,15.3,21.6,13.4"/>
	<path fill="#FFFFFF" d="M12,28.6v-8.4h8.3C20.3,24.8,16.6,28.6,12,28.6 M12,11.7c4.5,0.1,8.2,3.8,8.3,8.3H12V11.7z M11.7,20H3.4
		c0.1-4.5,3.8-8.2,8.3-8.3V20z M11.7,28.6c-4.6-0.1-8.3-3.8-8.3-8.4h8.3V28.6z M20.6,20.2c0-4.8-3.9-8.8-8.8-8.8
		c-4.8,0-8.8,3.9-8.8,8.8c0,4.8,3.9,8.8,8.8,8.8C16.7,28.9,20.6,25,20.6,20.2"/>
	<path fill="#FFFFFF" d="M4.9,26.5c0,0-0.1-0.1-0.2-0.2c0,0,0,0-0.1,0c0,0,0,0,0,0c0.1,0.1,0.1,0.1-0.1,0.3l-0.7,0.6c0,0,0,0-0.1,0
		c-0.1-0.1-0.1-0.3,0.1-0.4c0.1-0.1,0.3-0.1,0.4,0c0,0,0,0,0.1,0c0,0,0-0.1,0-0.1c-0.2-0.2-0.5-0.2-0.7-0.1c-0.2,0.2-0.1,0.4,0,0.6
		c0.1,0.1,0.1,0.1,0.2,0.2c0,0,0.1,0.1,0.2,0.2c0,0,0,0,0.1,0c0,0,0,0,0,0c-0.1-0.1-0.1-0.1,0-0.2l0.7-0.6c0.2-0.2,0.2-0.2,0.3-0.1
		c0,0,0,0,0,0c0,0,0,0,0-0.1C5,26.6,4.9,26.5,4.9,26.5"/>
	<path fill="#FFFFFF" d="M2.7,25.8C2.5,25.5,2.6,25.2,3,25c0.5-0.3,0.7-0.1,0.7,0.1c0.2,0.3,0,0.6-0.3,0.8C3,26.1,2.8,26,2.7,25.8
		 M3.8,25.1c-0.3-0.4-0.7-0.5-1.1-0.3c-0.4,0.2-0.4,0.6-0.2,1c0.3,0.5,0.8,0.5,1,0.3C3.9,25.9,4.1,25.5,3.8,25.1"/>
	<path fill="#FFFFFF" d="M3.2,24.1C3.2,24.1,3.2,24.1,3.2,24.1C3.2,24.1,3.2,24.1,3.2,24.1c0-0.1,0-0.2,0-0.2c0,0,0-0.1-0.1-0.2
		c0,0,0,0,0,0c0,0,0,0,0,0c0,0.1,0,0.2-0.1,0.2l-0.7,0.3l0.6-1.3c0,0,0-0.1,0-0.1c0,0,0,0-0.1,0l-1.1,0.4c-0.1,0-0.2,0-0.2-0.1
		c0,0,0,0,0,0c0,0,0,0,0,0.1c0,0.1,0.1,0.2,0.1,0.2c0,0,0,0.1,0.1,0.2c0,0,0,0.1,0,0.1c0,0,0,0,0,0c0-0.1,0-0.2,0.1-0.2L2.4,23
		l-0.6,1.3c0,0,0,0.1,0,0.1c0,0,0,0,0.1,0L3,24C3.1,24,3.1,24,3.2,24.1"/>
	<path fill="#FFFFFF" d="M1.5,22.6C1.5,22.6,1.5,22.6,1.5,22.6C1.5,22.6,1.5,22.6,1.5,22.6c-0.1-0.1-0.1-0.1-0.1-0.2l-0.1-0.3
		L2.2,22c0.3-0.1,0.3,0,0.3,0.1c0,0,0,0,0,0c0,0,0,0,0,0c0-0.1,0-0.2,0-0.2c0-0.1,0-0.2,0-0.3c0,0,0,0,0,0c0,0,0,0,0,0
		c0,0.1,0,0.2-0.3,0.2l-0.9,0.2l0-0.2c0-0.2,0-0.2,0.1-0.2c0,0,0,0,0,0c0,0,0,0,0,0c0,0-0.2,0-0.2,0c0,0,0,0,0,0c0,0,0,0.1,0.1,0.2
		l0.1,0.8c0,0.1,0,0.2,0,0.2c0,0,0,0,0,0C1.3,22.6,1.4,22.6,1.5,22.6"/>
	<path fill="#FFFFFF" d="M1.1,21c0-0.1,0-0.1,0.1-0.1c0.1,0,0.1,0,0.4,0l0.3,0c0.2,0,0.3,0,0.4,0c0.1,0,0.1,0,0.1,0.1c0,0,0,0,0,0
		c0,0,0,0,0,0c0-0.1,0-0.2,0-0.2c0-0.1,0-0.2,0-0.3c0,0,0,0,0,0c0,0,0,0,0,0c0,0.1,0,0.2-0.1,0.2c-0.1,0-0.2,0-0.4,0l-0.3,0
		c-0.3,0-0.3,0-0.4,0c-0.1,0-0.1,0-0.1-0.1c0,0,0,0,0,0c0,0,0,0,0,0.1c0,0.1,0,0.2,0,0.2C1,20.8,1,20.9,1.1,21C1,21,1,21,1.1,21
		C1.1,21,1.1,21,1.1,21"/>
	<path fill="#FFFFFF" d="M1,19.9C1,19.9,1,19.8,1,19.9c0-0.2,0.1-0.2,0.2-0.2l0.8,0.1c0.3,0,0.3,0,0.3,0.1c0,0,0,0,0,0c0,0,0,0,0,0
		c0-0.1,0-0.2,0-0.2c0,0,0-0.2,0-0.3c0,0,0-0.1,0-0.1c0,0,0,0,0,0c0,0.1,0,0.2-0.3,0.2l-0.3,0c0,0,0,0,0,0c0,0,0-0.2,0-0.3
		c0-0.1,0.1-0.1,0.1-0.1c0,0,0,0,0,0c0,0,0,0,0,0c-0.1,0-0.2,0-0.3,0c0,0,0,0,0,0c0,0,0.1,0,0,0.1l0,0.3c0,0,0,0,0,0l-0.5,0
		c0,0,0,0,0,0l0-0.3c0-0.1,0-0.1,0.1-0.1c0,0,0,0,0.1,0c0,0,0,0,0,0c0,0,0,0,0,0c0,0-0.1,0-0.2,0c0,0,0,0-0.1,0c0,0,0,0,0,0
		c0,0,0,0,0,0c0,0,0,0,0,0l0,0c0,0,0,0.1,0,0.1c0,0,0,0.4,0,0.5C1,19.6,1,19.7,1,19.9C1,19.8,1,19.9,1,19.9"/>
	<path fill="#FFFFFF" d="M1.2,18.4c0-0.1,0.1-0.1,0.1-0.1c0.1,0,0.1,0,0.4,0.1L2,18.4c0.2,0,0.3,0.1,0.4,0.1c0.1,0,0.1,0.1,0.1,0.1
		c0,0,0,0,0,0c0,0,0,0,0,0c0-0.1,0-0.2,0-0.2c0,0,0-0.2,0.1-0.3c0,0,0,0,0-0.1c0,0,0,0,0,0c0,0.1,0,0.2-0.1,0.1
		c-0.1,0-0.2,0-0.4-0.1l-0.3-0.1c-0.3-0.1-0.3-0.1-0.4-0.1c-0.1,0-0.1-0.1-0.1-0.1c0,0,0,0,0,0c0,0,0,0,0,0c0,0.1,0,0.2,0,0.2
		C1.2,18.2,1.1,18.3,1.2,18.4C1.1,18.4,1.1,18.4,1.2,18.4C1.2,18.4,1.2,18.4,1.2,18.4"/>
	<path fill="#FFFFFF" d="M2,17.5c0.5,0.2,0.9-0.1,1-0.6c0-0.1,0.1-0.3,0.1-0.3c0,0,0-0.1,0-0.1c-0.1,0-0.2-0.1-0.2-0.1c0,0,0,0,0,0
		c0,0,0,0,0,0C3,16.5,3,16.6,2.9,16.9c-0.1,0.3-0.4,0.5-0.8,0.3c-0.3-0.1-0.5-0.3-0.4-0.7c0.1-0.2,0.2-0.4,0.4-0.3c0,0,0.1,0,0.1,0
		c0,0,0,0,0,0c0,0-0.1,0-0.2-0.1c-0.1,0-0.1,0-0.1,0c0,0,0,0,0,0c0,0.1-0.1,0.2-0.2,0.4C1.5,16.9,1.6,17.3,2,17.5"/>
	<path fill="#FFFFFF" d="M2.1,15.5c0-0.1,0.1-0.1,0.1-0.1c0.1,0,0.1,0,0.4,0.2l0.3,0.2c0.2,0.1,0.3,0.1,0.4,0.2c0.1,0,0.1,0.1,0,0.1
		c0,0,0,0,0,0c0,0,0,0,0,0c0-0.1,0.1-0.2,0.1-0.2c0,0,0.1-0.1,0.1-0.3c0,0,0,0,0-0.1c0,0,0,0,0,0c0,0.1-0.1,0.1-0.2,0.1
		c-0.1,0-0.2-0.1-0.4-0.2l-0.3-0.2c-0.3-0.1-0.3-0.2-0.4-0.2c-0.1,0-0.1-0.1,0-0.2c0,0,0,0,0,0c0,0,0,0,0,0c0,0.1-0.1,0.2-0.1,0.2
		C2.1,15.3,2.1,15.4,2.1,15.5C2,15.5,2,15.5,2.1,15.5C2.1,15.5,2.1,15.5,2.1,15.5"/>
	<path fill="#FFFFFF" d="M3.8,14.4l-0.2,0.3l-0.3-0.5c0,0,0,0,0,0l0,0L3.8,14.4z M3.6,15.1c0.1,0.1,0.1,0.2,0,0.3c0,0,0,0,0,0
		c0,0,0,0,0,0c0.1-0.1,0.1-0.2,0.1-0.2c0,0,0.1-0.1,0.1-0.2c0,0,0,0,0-0.1c0,0,0,0-0.1,0c0,0.1-0.1,0.1-0.1,0c0,0,0,0-0.1-0.1
		l-0.1-0.2c0,0,0,0,0,0l0.3-0.4c0,0,0,0,0,0l0.3,0.1c0,0,0,0.1,0,0.1c0,0,0,0,0,0c0,0,0,0,0.1,0c0,0,0.1-0.1,0.1-0.2
		c0,0,0.1-0.1,0.1-0.1c0-0.1,0-0.1,0-0.1c0,0,0,0,0,0c-0.1,0.1-0.2,0.1-0.3,0C3.9,14.2,3.1,14,3,13.9c-0.1,0-0.1,0-0.1,0
		c0,0,0,0,0,0.1L3.6,15.1z"/>
	<path fill="#FFFFFF" d="M4.4,12.3c0.1-0.1,0.1-0.1,0.3,0.1L5,12.8c0.3,0.3,0.6,0.4,0.9,0.1c0.3-0.3,0.3-0.6,0-0.9l-0.3-0.4
		c-0.1-0.1-0.1-0.2,0-0.2c0,0,0,0,0-0.1c0,0,0,0-0.1,0c-0.1,0-0.1,0.1-0.2,0.1c0,0-0.1,0.1-0.2,0.1c0,0,0,0,0,0.1c0,0,0,0,0,0
		c0.1-0.1,0.1-0.1,0.3,0.1l0.3,0.4C6,12.5,6,12.6,5.8,12.8c-0.2,0.2-0.4,0.1-0.6-0.2l-0.4-0.4c-0.1-0.1-0.1-0.2,0-0.2c0,0,0,0,0,0
		c0,0,0,0-0.1,0c-0.1,0-0.1,0.1-0.2,0.2C4.5,12.2,4.4,12.2,4.4,12.3C4.3,12.3,4.3,12.3,4.4,12.3C4.3,12.4,4.3,12.4,4.4,12.3"/>
	<path fill="#FFFFFF" d="M6.7,12c0.1,0.2,0.1,0.2,0,0.2c0,0,0,0,0,0c0,0,0,0,0.1,0c0.1,0,0.2-0.1,0.2-0.1c0,0,0.1,0,0.2-0.1
		c0,0,0,0,0-0.1c0,0,0,0,0,0C6.9,12,6.9,12,6.8,11.9l-0.4-0.7l1.4,0.4c0,0,0.1,0,0.1,0c0,0,0,0,0-0.1l-0.6-1c-0.1-0.1-0.1-0.1,0-0.2
		c0,0,0,0,0,0c0,0,0,0-0.1,0c-0.1,0-0.1,0.1-0.2,0.1c0,0-0.1,0.1-0.2,0.1c0,0,0,0,0,0.1c0,0,0,0,0,0c0.1-0.1,0.1,0,0.2,0.1l0.4,0.7
		l-1.4-0.4c0,0-0.1,0-0.1,0c0,0,0,0,0,0.1L6.7,12z"/>
	<path fill="#FFFFFF" d="M7.9,10.1c0.1,0,0.1,0,0.1,0.1c0,0.1,0,0.1,0.1,0.4l0.1,0.3c0.1,0.2,0.1,0.3,0.1,0.4c0,0.1,0,0.1-0.1,0.1
		c0,0,0,0,0,0c0,0,0,0,0.1,0c0.1,0,0.2-0.1,0.2-0.1c0,0,0.2-0.1,0.3-0.1c0,0,0,0,0,0c0,0,0,0,0,0c-0.1,0-0.2,0-0.2,0
		c0-0.1-0.1-0.2-0.1-0.4l-0.1-0.3c-0.1-0.3-0.1-0.3-0.1-0.4c0-0.1,0-0.1,0.1-0.1c0,0,0,0,0,0c0,0,0,0-0.1,0c-0.1,0-0.2,0.1-0.2,0.1
		C8.1,10,8,10,7.9,10.1C7.9,10.1,7.8,10.1,7.9,10.1C7.9,10.1,7.9,10.1,7.9,10.1"/>
	<path fill="#FFFFFF" d="M8.8,9.8c0.1,0,0.2,0,0.2,0.1l0.7,1.1c0,0,0.1,0.1,0.1,0.1c0,0,0,0,0.1-0.1l0.3-1.2c0-0.2,0.1-0.2,0.1-0.2
		c0,0,0,0,0,0c0,0,0,0-0.1,0c-0.1,0-0.1,0-0.2,0c-0.1,0-0.1,0-0.2,0c0,0-0.1,0-0.1,0c0,0,0,0,0,0c0.1,0,0.1,0,0.1,0c0,0,0,0,0,0.1
		l-0.2,1L9.3,9.8c0-0.1-0.1-0.1-0.1-0.1c0,0,0-0.1,0.1-0.1c0,0,0,0,0,0c0,0,0,0-0.1,0c-0.1,0-0.2,0-0.2,0.1C9,9.7,8.9,9.7,8.8,9.8
		C8.8,9.7,8.7,9.7,8.8,9.8C8.8,9.8,8.8,9.8,8.8,9.8"/>
	<path fill="#FFFFFF" d="M10.7,9.4c0.1,0,0.1,0,0.2,0.1c0,0.1,0,0.1,0,0.4l0,0.3c0,0.1,0,0.2,0,0.3c0,0.2,0,0.2-0.1,0.2c0,0,0,0,0,0
		c0,0,0,0,0,0c0.1,0,0.2,0,0.2,0c0.2,0,0.4,0,0.6,0c0,0,0.1,0,0.1-0.1c0,0,0-0.2,0-0.2c0,0,0,0,0,0c0,0,0,0,0,0c0,0.1,0,0.1-0.1,0.1
		c0,0-0.2,0-0.2,0c-0.1,0-0.2,0-0.2-0.1c0-0.1,0-0.2,0-0.4c0,0,0,0,0,0c0,0,0.2,0,0.3,0c0.1,0,0.1,0.1,0.1,0.1c0,0,0,0,0,0
		c0,0,0,0,0,0c0-0.1,0-0.2,0-0.3c0,0,0,0,0,0c0,0,0,0,0,0c0,0-0.1,0-0.2,0c-0.1,0-0.2,0-0.2,0c0,0,0,0,0,0l0-0.5c0,0,0,0,0,0
		c0.4,0,0.4,0,0.4,0.1c0,0,0,0,0,0c0,0,0,0,0,0c0-0.2,0-0.2,0-0.2c0,0,0,0,0,0c0,0,0,0-0.1,0c0,0-0.4,0-0.5,0
		C11,9.3,10.8,9.3,10.7,9.4C10.7,9.3,10.7,9.3,10.7,9.4C10.7,9.4,10.7,9.4,10.7,9.4"/>
	<path fill="#FFFFFF" d="M12.6,9.5c0,0,0,0,0.1,0c0.2,0,0.3,0.1,0.2,0.4c0,0.2-0.1,0.3-0.3,0.3c-0.1,0-0.1,0-0.1-0.1L12.6,9.5z
		 M12.2,10.7c0.1,0,0.2,0,0.2,0c0,0,0.2,0,0.3,0c0,0,0,0,0,0c0,0,0,0,0,0c-0.1,0-0.2-0.1-0.1-0.3l0-0.3c0,0,0,0,0,0l0.2,0
		c0,0,0,0,0,0c0.1,0.1,0.1,0.2,0.2,0.3c0.1,0.2,0.2,0.3,0.4,0.4l0.2,0c0,0,0,0,0,0c0,0,0,0,0,0c-0.1,0-0.3-0.1-0.6-0.7
		c0.2-0.1,0.3-0.3,0.3-0.4c0-0.3-0.2-0.4-0.5-0.4c-0.1,0-0.2,0-0.3,0c0,0-0.2,0-0.3,0c0,0-0.1,0-0.1,0c0,0,0,0,0,0
		c0.1,0,0.1,0,0.1,0.2l-0.1,0.9C12.3,10.6,12.3,10.7,12.2,10.7C12.1,10.7,12.1,10.7,12.2,10.7C12.1,10.7,12.1,10.7,12.2,10.7"/>
	<path fill="#FFFFFF" d="M14,11c0.2,0.1,0.5,0,0.6-0.3c0.1-0.4-0.4-0.6-0.4-0.9c0-0.1,0.1-0.2,0.3-0.1c0.1,0,0.2,0.2,0.2,0.3
		c0,0,0,0,0,0c0,0,0,0,0-0.1c0-0.1,0.1-0.2,0.1-0.2c0,0,0,0,0,0c0,0-0.1-0.1-0.2-0.1c-0.3-0.1-0.5,0-0.5,0.3
		c-0.1,0.4,0.4,0.6,0.4,0.9C14.3,10.9,14.2,10.9,14,11c-0.1-0.1-0.2-0.3-0.2-0.4c0,0,0,0,0,0c0,0,0,0,0,0l-0.1,0.3
		C13.7,10.9,13.8,11,14,11"/>
	<path fill="#FFFFFF" d="M14.9,11.2c0.1,0,0.2,0.1,0.2,0.1c0,0,0.2,0.1,0.3,0.1c0,0,0,0,0.1,0c0,0,0,0,0,0c-0.1,0-0.1-0.1-0.1-0.1
		c0-0.1,0.1-0.2,0.1-0.4l0.1-0.3c0.1-0.3,0.1-0.3,0.1-0.4c0-0.1,0.1-0.1,0.1-0.1c0,0,0,0,0,0c0,0,0,0,0,0c-0.1,0-0.2-0.1-0.2-0.1
		c-0.1,0-0.2-0.1-0.2-0.1c0,0-0.1,0-0.1,0c0,0,0,0,0,0c0.1,0,0.1,0.1,0.1,0.1c0,0.1,0,0.1-0.1,0.4l-0.1,0.3
		c-0.1,0.2-0.1,0.3-0.2,0.4C15,11.2,15,11.2,14.9,11.2C14.9,11.2,14.9,11.2,14.9,11.2C14.9,11.2,14.9,11.2,14.9,11.2"/>
	<path fill="#FFFFFF" d="M16.4,11.4l0.4-0.8c0-0.1,0-0.1,0.2,0c0.4,0.2,0.5,0.5,0.3,0.9c-0.2,0.4-0.5,0.4-0.8,0.2
		C16.2,11.7,16.2,11.6,16.4,11.4 M15.8,11.5C15.8,11.5,15.8,11.6,15.8,11.5c0.1,0.1,0.2,0.1,0.2,0.2c0.1,0,0.2,0.1,0.3,0.2
		c0.4,0.2,0.9,0.2,1.1-0.2c0.2-0.4,0-0.8-0.5-1.1c-0.1-0.1-0.2-0.1-0.3-0.1c0,0-0.1-0.1-0.2-0.1c0,0-0.1,0-0.1,0c0,0,0,0,0,0
		c0.1,0.1,0.1,0.1,0.1,0.2c0,0.1-0.1,0.1-0.2,0.3l-0.2,0.3C16,11.6,16,11.6,15.8,11.5C15.9,11.5,15.8,11.5,15.8,11.5"/>
	<path fill="#FFFFFF" d="M18.5,12.1C18.5,12,18.5,12,18.5,12.1L18.5,12.1l-0.2,0.5L18,12.3L18.5,12.1z M17.3,12.4
		C17.3,12.4,17.3,12.4,17.3,12.4C17.3,12.4,17.3,12.4,17.3,12.4c0.1,0.1,0.1,0.2,0.2,0.2c0,0,0.1,0.1,0.2,0.1c0,0,0,0,0,0
		c0,0,0,0,0-0.1c0,0,0-0.1,0-0.1c0,0,0.1,0,0.1-0.1l0.2-0.1c0,0,0,0,0,0l0.4,0.3c0,0,0,0,0,0L18.2,13c0,0-0.1,0-0.1,0c0,0,0,0,0,0
		c0,0,0,0,0,0.1c0,0,0.1,0.1,0.2,0.1c0,0,0.1,0.1,0.1,0.1c0.1,0.1,0.1,0.1,0.1,0c0,0,0,0,0,0c-0.1-0.1,0-0.2,0-0.3
		c0.1-0.3,0.3-1.1,0.4-1.2c0-0.1,0-0.1,0-0.1c0,0,0,0-0.1,0l-1.1,0.6C17.5,12.5,17.4,12.5,17.3,12.4"/>
	<path fill="#FFFFFF" d="M19.2,13.6l0.7-0.6c0,0,0.1,0,0.1,0.1c0.3,0.3,0.3,0.7,0,1c-0.3,0.3-0.6,0.2-0.8-0.1
		C19,13.8,19,13.8,19.2,13.6 M18.7,13.6C18.7,13.5,18.7,13.5,18.7,13.6C18.7,13.6,18.7,13.6,18.7,13.6c0,0.1,0.1,0.2,0.1,0.2
		c0.1,0.1,0.2,0.2,0.2,0.3c0.3,0.4,0.7,0.5,1.1,0.2c0.4-0.3,0.3-0.7-0.1-1.2C20.1,13,20,12.9,20,12.9c0,0-0.1-0.1-0.2-0.2
		c0,0,0,0-0.1,0c0,0,0,0,0,0.1c0.1,0.1,0.1,0.1,0,0.2c0,0-0.1,0.1-0.3,0.3l-0.3,0.2C18.8,13.6,18.8,13.6,18.7,13.6"/>
	<path fill="#FFFFFF" d="M20.7,16.9C20.8,16.9,20.8,16.9,20.7,16.9c0.1,0,0.3,0,0.3,0c0,0,0,0,0,0c0,0,0,0-0.1,0
		c-0.2,0-0.3,0-0.4-0.3c-0.1-0.3,0-0.6,0.4-0.8c0.3-0.1,0.6-0.1,0.8,0.2c0.1,0.2,0.1,0.4-0.1,0.5c0,0,0,0,0,0c0,0,0,0,0.1,0
		c0,0,0.1-0.1,0.2-0.1c0.1,0,0.1,0,0.1,0c0,0,0,0,0,0c0-0.1,0-0.2-0.1-0.4c-0.2-0.4-0.6-0.7-1-0.5c-0.5,0.2-0.5,0.7-0.3,1.1
		C20.6,16.7,20.7,16.8,20.7,16.9"/>
	<path fill="#FFFFFF" d="M22,17.6C22,17.6,22,17.6,22,17.6L22,17.6L22,17.6l-0.5,0.3l-0.1-0.4L22,17.6z M20.9,17.1
		C20.9,17.1,20.9,17.1,20.9,17.1C20.8,17.1,20.8,17.1,20.9,17.1c0,0.1,0,0.2,0,0.2c0,0.1,0,0.1,0,0.2c0,0,0,0,0,0c0,0,0,0,0-0.1
		c0-0.1,0-0.1,0-0.1c0,0,0.1,0,0.1,0l0.2,0c0,0,0,0,0,0l0.1,0.4c0,0,0,0,0,0l-0.3,0.2c0,0,0-0.1-0.1-0.1c0,0,0,0,0,0c0,0,0,0,0,0.1
		c0,0,0,0.1,0.1,0.2c0,0,0,0.1,0,0.2c0,0.1,0,0.1,0.1,0.1c0,0,0,0,0,0c0-0.1,0.1-0.2,0.2-0.2c0.2-0.2,0.9-0.7,1-0.7
		c0,0,0.1,0,0.1-0.1c0,0,0,0-0.1,0l-1.3-0.2C21,17.3,20.9,17.2,20.9,17.1"/>
	<path fill="#FFFFFF" d="M22.4,18.6C22.4,18.6,22.4,18.6,22.4,18.6C22.4,18.7,22.4,18.7,22.4,18.6c0.1,0.1,0.1,0.1,0.1,0.3l0,0.3
		l-0.9,0.1c-0.3,0-0.3,0-0.3-0.1c0,0,0,0,0,0c0,0,0,0,0,0c0,0.1,0,0.2,0,0.2c0,0.1,0,0.2,0,0.3c0,0,0,0,0,0c0,0,0,0,0,0
		c0-0.2,0-0.2,0.3-0.2l0.9-0.1l0,0.2c0,0.2,0,0.2-0.1,0.2c0,0,0,0,0,0c0,0,0,0,0,0c0,0,0.2,0,0.2,0c0,0,0.1,0,0,0c0,0,0-0.1,0-0.2
		l-0.1-0.8c0-0.1,0-0.2,0-0.2c0,0,0,0,0,0C22.6,18.6,22.5,18.6,22.4,18.6"/>
	<path fill="#FFFFFF" d="M22.6,21.1c0,0.3-0.3,0.5-0.7,0.5c-0.5,0-0.6-0.4-0.6-0.5c0-0.4,0.4-0.5,0.7-0.5
		C22.5,20.6,22.6,20.8,22.6,21.1 M23,21.4c0,0-0.2-0.3-0.2-0.4c0-0.5-0.4-0.7-0.7-0.7c-0.3,0-0.8,0.2-0.8,0.7c0,0.5,0.3,0.8,0.7,0.9
		c0.4,0,0.7-0.2,0.8-0.7c0,0.1,0.1,0.3,0.1,0.3c0,0,0,0,0.1,0C22.9,21.5,22.9,21.5,23,21.4C23,21.5,23,21.4,23,21.4"/>
	<path fill="#FFFFFF" d="M22.4,22.5c0,0.1-0.1,0.1-0.3,0.1l-0.7-0.2c-0.3-0.1-0.3-0.1-0.3-0.2c0,0,0,0,0,0c0,0,0,0,0,0
		c0,0.1,0,0.2-0.1,0.2c0,0.1-0.1,0.3-0.2,0.5c0,0.1,0,0.1,0,0.1c0.1,0,0.2,0.1,0.2,0.1c0,0,0,0,0,0c0,0,0,0,0,0
		C21,23,21,23,21.1,22.8c0.1-0.2,0.1-0.2,0.3-0.2l0.7,0.2c0.2,0.1,0.2,0.1,0.2,0.2c0,0,0,0,0,0c0,0,0,0,0,0c0-0.1,0.1-0.2,0.1-0.2
		C22.4,22.7,22.5,22.6,22.4,22.5C22.5,22.5,22.5,22.5,22.4,22.5C22.5,22.4,22.5,22.5,22.4,22.5"/>
	<path fill="#FFFFFF" d="M22,24c0,0.1-0.1,0.1-0.1,0.1c-0.1,0-0.1,0-0.4-0.1l-0.3-0.1c-0.2-0.1-0.3-0.1-0.4-0.2
		c-0.1,0-0.1-0.1,0-0.1c0,0,0,0,0,0c0,0,0,0,0,0c0,0.1-0.1,0.2-0.1,0.2c0,0-0.1,0.2-0.1,0.3c0,0,0,0,0,0.1c0,0,0,0,0,0
		c0-0.1,0.1-0.1,0.1-0.1c0.1,0,0.2,0.1,0.4,0.1l0.3,0.1c0.3,0.1,0.3,0.1,0.4,0.2c0.1,0,0.1,0.1,0.1,0.1c0,0,0,0,0,0c0,0,0,0,0,0
		c0-0.1,0.1-0.2,0.1-0.2C22,24.2,22,24.1,22,24C22,24,22,24,22,24C22,23.9,22,24,22,24"/>
	<path fill="#FFFFFF" d="M21,24.7c-0.5-0.3-0.9,0-1.1,0.4c-0.1,0.1-0.1,0.2-0.1,0.3c0,0,0,0.1,0,0.1c0,0.1,0.2,0.2,0.2,0.2
		c0,0,0,0,0,0c0,0,0,0,0-0.1c-0.1-0.1-0.1-0.2,0-0.5c0.2-0.3,0.5-0.4,0.9-0.2c0.3,0.2,0.4,0.4,0.2,0.8c-0.1,0.2-0.3,0.3-0.5,0.2
		c0,0-0.1,0-0.1,0c0,0,0,0,0,0.1c0,0,0.1,0.1,0.2,0.1c0.1,0,0.1,0.1,0.1,0.1c0,0,0,0,0,0c0.1-0.1,0.2-0.2,0.3-0.4
		C21.4,25.4,21.4,24.9,21,24.7"/>
	<path fill="#FFFFFF" d="M20,26.9L20,26.9l-0.5-0.2l0.3-0.3L20,26.9C19.9,26.9,20,26.9,20,26.9L20,26.9z M19.6,25.9
		c-0.1-0.1-0.1-0.2,0-0.3c0,0,0,0,0,0c0,0,0,0,0,0c-0.1,0.1-0.1,0.2-0.1,0.2c0,0-0.1,0.1-0.1,0.2c0,0,0,0,0,0c0,0,0,0,0.1,0
		c0,0,0.1,0,0.1,0c0,0,0,0,0.1,0.1l0.1,0.2c0,0,0,0,0,0l-0.3,0.3c0,0,0,0,0,0L19,26.5c0,0,0-0.1,0-0.1c0,0,0,0,0,0c0,0,0,0-0.1,0
		c0,0-0.1,0.1-0.1,0.2c0,0-0.1,0.1-0.1,0.1c-0.1,0.1-0.1,0.1,0,0.1c0,0,0,0,0,0c0.1-0.1,0.2,0,0.3,0c0.3,0.1,1.1,0.3,1.2,0.4
		c0.1,0,0.1,0,0.1,0c0,0,0,0,0-0.1L19.6,25.9z"/>
	<path fill="#FFFFFF" d="M7.1,29.2c-0.2,0.4-0.5,0.4-0.8,0.2c-0.2-0.1-0.2-0.2-0.1-0.4l0.4-0.7c0-0.1,0-0.1,0.2,0
		C7.2,28.5,7.3,28.9,7.1,29.2 M6.9,28.2c-0.1-0.1-0.2-0.1-0.3-0.1c0,0-0.1-0.1-0.2-0.1c0,0-0.1,0-0.1,0c0,0,0,0,0,0
		c0.1,0.1,0.1,0.1,0.1,0.2c0,0.1-0.1,0.1-0.2,0.3l-0.2,0.3c-0.2,0.4-0.3,0.4-0.3,0.4c0,0-0.1,0-0.1,0c0,0,0,0,0,0
		c0.1,0,0.2,0.1,0.2,0.1c0.1,0,0.2,0.2,0.3,0.2c0.4,0.2,0.9,0.2,1.1-0.2C7.6,28.9,7.4,28.5,6.9,28.2"/>
	<path fill="#FFFFFF" d="M8.9,29.2c0,0-0.4-0.1-0.4-0.2c0,0-0.2-0.1-0.3-0.1c0,0,0,0-0.1,0c0,0,0,0,0,0c0.1,0,0.1,0.1,0.1,0.1
		c0,0.1,0,0.1-0.1,0.4L8,29.8C8,29.9,7.9,30,7.9,30c-0.1,0.2-0.1,0.2-0.2,0.2c0,0,0,0,0,0c0,0,0,0,0,0c0.1,0,0.2,0.1,0.2,0.1
		c0.2,0.1,0.4,0.1,0.5,0.2c0,0,0.1,0,0.1,0c0,0,0.1-0.1,0.1-0.2c0,0,0,0,0,0c0,0,0,0,0,0c0,0.1-0.1,0.1-0.1,0.1
		c-0.1,0-0.2,0-0.2-0.1c-0.1,0-0.1-0.1-0.1-0.2c0-0.1,0.1-0.2,0.2-0.4c0,0,0,0,0,0c0,0,0.2,0.1,0.2,0.1c0.1,0,0.1,0.1,0.1,0.2
		c0,0,0,0,0,0c0,0,0,0,0,0c0-0.1,0.1-0.2,0.1-0.2c0,0,0,0,0,0c0,0,0,0-0.1,0c0,0-0.1,0-0.2,0c-0.1,0-0.2-0.1-0.2-0.1c0,0,0,0,0,0
		l0.2-0.5c0,0,0,0,0,0c0.3,0.1,0.3,0.1,0.3,0.3c0,0,0,0,0,0c0,0,0,0,0,0C9,29.3,9,29.3,9,29.2c0,0,0,0,0,0C9,29.2,8.9,29.2,8.9,29.2
		"/>
	<path fill="#FFFFFF" d="M11.5,29.7c-0.1,0-0.2-0.1-0.5-0.1c-0.4,0-0.9,0.2-0.9,0.6c-0.1,0.5,0.3,0.8,0.8,0.9c0.1,0,0.3,0,0.3,0
		c0,0,0,0,0.1-0.1c0-0.1,0.1-0.2,0.1-0.2c0,0,0,0,0,0c0,0,0,0,0,0c-0.1,0.2-0.2,0.2-0.4,0.2c-0.3,0-0.6-0.3-0.5-0.7
		c0-0.3,0.2-0.6,0.6-0.5c0.2,0,0.4,0.1,0.4,0.3c0,0,0,0.1,0,0.1c0,0,0,0,0,0c0,0,0-0.1,0-0.2C11.6,29.8,11.6,29.7,11.5,29.7
		C11.6,29.7,11.6,29.7,11.5,29.7"/>
	<path fill="#FFFFFF" d="M13.9,30.9c-0.1,0-0.2,0-0.2-0.1c0-0.1,0-0.2-0.1-0.4l0-0.3c0-0.3,0-0.3,0-0.4c0-0.1,0-0.1,0.1-0.1
		c0,0,0,0,0,0c0,0,0,0-0.1,0c-0.1,0-0.2,0-0.2,0c-0.1,0-0.2,0-0.3,0c0,0,0,0,0,0c0,0,0,0,0,0c0.1,0,0.1,0,0.2,0.1c0,0.1,0,0.1,0,0.4
		l0,0.1c0,0,0,0,0,0l-0.7,0.1c0,0,0,0,0,0l0-0.1c0-0.3,0-0.3,0-0.4c0-0.1,0-0.1,0.1-0.1c0,0,0,0,0,0c0,0,0,0-0.1,0
		c-0.1,0-0.2,0-0.2,0c-0.1,0-0.2,0-0.3,0c0,0,0,0,0,0c0,0,0,0,0,0c0.1,0,0.1,0,0.2,0.1c0,0.1,0,0.1,0,0.4l0,0.3c0,0.2,0,0.3,0,0.4
		c0,0.1,0,0.1-0.1,0.1c0,0,0,0,0,0c0,0,0,0,0.1,0c0.1,0,0.2,0,0.2,0c0.1,0,0.2,0,0.3,0c0,0,0,0,0,0c0,0,0,0,0,0
		c-0.1,0-0.2,0-0.2-0.1c0-0.1,0-0.2-0.1-0.4l0-0.1c0,0,0,0,0,0l0.7-0.1c0,0,0,0,0,0l0,0.1c0,0.2,0,0.3,0,0.4c0,0.1,0,0.1-0.1,0.1
		c0,0,0,0,0,0c0,0,0,0,0.1,0c0.1,0,0.2,0,0.2,0C13.6,30.9,13.7,30.9,13.9,30.9C13.9,30.9,13.9,30.9,13.9,30.9
		C13.9,30.9,13.9,30.9,13.9,30.9"/>
	<path fill="#FFFFFF" d="M15.2,30.5c-0.1,0-0.2,0-0.2,0c0-0.1-0.1-0.2-0.1-0.4l-0.1-0.3c-0.1-0.3-0.1-0.3-0.1-0.4
		c0-0.1,0-0.1,0.1-0.1c0,0,0,0,0,0c0,0,0,0-0.1,0c-0.1,0-0.2,0.1-0.2,0.1c-0.1,0-0.2,0-0.2,0.1c0,0-0.1,0,0,0c0,0,0,0,0,0
		c0.1,0,0.1,0,0.1,0.1c0,0.1,0,0.1,0.1,0.4l0.1,0.3c0.1,0.2,0.1,0.3,0.1,0.4c0,0.1,0,0.1-0.1,0.1c0,0,0,0,0,0c0,0,0,0,0.1,0
		c0.1,0,0.2-0.1,0.2-0.1C15,30.6,15.1,30.6,15.2,30.5C15.2,30.5,15.3,30.5,15.2,30.5C15.2,30.5,15.2,30.5,15.2,30.5"/>
	<path fill="#FFFFFF" d="M16.8,29.6C16.8,29.6,16.7,29.6,16.8,29.6C16.7,29.6,16.7,29.6,16.8,29.6c0,0.1,0,0.2-0.2,0.3
		c-0.2,0.1-0.2,0.1-0.4-0.1l-0.3-0.7c-0.1-0.2-0.1-0.2,0-0.3c0,0,0,0,0,0c0,0,0,0-0.1,0c-0.1,0-0.2,0.1-0.2,0.1c0,0-0.2,0.1-0.2,0.1
		c0,0,0,0,0,0c0,0,0,0,0.1,0c0.1-0.1,0.1,0,0.2,0.2l0.3,0.7c0.1,0.3,0.1,0.3,0,0.4c0,0,0,0,0,0c0,0,0,0,0.1,0c0.1,0,0.2-0.1,0.2-0.1
		c0.1-0.1,0.3-0.1,0.5-0.2c0.1,0,0.1-0.1,0.1-0.1C16.8,29.8,16.8,29.6,16.8,29.6"/>
	<path fill="#FFFFFF" d="M18.1,28.8C18.1,28.8,18.1,28.7,18.1,28.8C18.1,28.8,18.1,28.8,18.1,28.8c0,0.1,0,0.1,0,0.2
		c0,0-0.1,0.1-0.2,0.2c-0.1,0.1-0.1,0.1-0.2,0c0,0-0.1-0.2-0.2-0.4c0,0,0,0,0,0c0,0,0.2-0.1,0.2-0.1c0.1,0,0.1,0,0.2,0.1
		c0,0,0,0,0,0c0,0,0,0,0-0.1c-0.1-0.1-0.1-0.2-0.1-0.2c0,0,0,0,0,0c0,0,0,0,0,0.1c0,0,0,0.1-0.1,0.1c-0.1,0-0.1,0.1-0.2,0.1
		c0,0,0,0,0,0l-0.3-0.4c0,0,0,0,0,0c0.3-0.2,0.3-0.2,0.4-0.1c0,0,0,0,0,0c0,0,0,0,0,0c-0.1-0.1-0.1-0.2-0.1-0.2c0,0,0,0,0,0
		c0,0,0,0-0.1,0.1c0,0-0.3,0.2-0.4,0.3c0,0-0.1,0.1-0.2,0.1c0,0,0,0,0,0c0,0,0,0,0,0c0.1-0.1,0.1-0.1,0.2,0c0,0.1,0.1,0.1,0.2,0.3
		l0.2,0.3c0.1,0.1,0.1,0.2,0.1,0.2c0.1,0.2,0.1,0.2,0,0.3c0,0,0,0,0,0c0,0,0,0,0.1,0c0.1,0,0.2-0.1,0.2-0.1c0.2-0.1,0.3-0.2,0.5-0.3
		c0,0,0,0,0-0.1C18.2,28.9,18.2,28.8,18.1,28.8"/>
</g>
</svg>
