<!-- Generator: Adobe Illustrator 19.1.0, SVG Export Plug-In  -->
<svg version="1.1"
	 xmlns="http://www.w3.org/2000/svg" xmlns:xlink="http://www.w3.org/1999/xlink" xmlns:a="http://ns.adobe.com/AdobeSVGViewerExtensions/3.0/"
	 x="0px" y="0px" width="24px" height="17.4px" viewBox="0 0 24 17.4" enable-background="new 0 0 24 17.4" xml:space="preserve">
<defs>
</defs>
<path d="M23.2,0H0.8C0.4,0,0,0.4,0,0.8v15.8c0,0.4,0.4,0.8,0.8,0.8h22.4c0.4,0,0.8-0.4,0.8-0.8V0.8
	C24,0.4,23.6,0,23.2,0z M22.4,15.8H1.6V1.6h20.7V15.8z M3.8,5.5l7.8,4.8c0.1,0.1,0.3,0.1,0.4,0.1s0.3,0,0.4-0.1l7.8-4.8
	c0.4-0.2,0.5-0.7,0.3-1.1s-0.7-0.5-1.1-0.3L12,8.6L4.6,4.1C4.2,3.8,3.7,4,3.5,4.3C3.3,4.7,3.4,5.2,3.8,5.5z"/>
</svg>
