<!-- Generator: Adobe Illustrator 19.1.0, SVG Export Plug-In  -->
<svg version="1.1"
	 xmlns="http://www.w3.org/2000/svg" xmlns:xlink="http://www.w3.org/1999/xlink" xmlns:a="http://ns.adobe.com/AdobeSVGViewerExtensions/3.0/"
	 x="0px" y="0px" width="16px" height="10.2px" viewBox="0 0 16 10.2" enable-background="new 0 0 16 10.2" xml:space="preserve">
<defs>
</defs>
<g>
	<path d="M0,5.1C-0.1,2.5,2.2,0,4.8,0c1.3-0.1,2.6,0.4,3.7,1.3C8.1,1.7,7.6,2.2,7.2,2.6c-0.9-0.5-2-1-3-0.6
		C2.5,2.5,1.5,4.5,2.1,6.1c0.5,1.7,2.6,2.7,4.2,1.9C7.2,7.7,7.7,7,8,6.1c-1,0-1.9,0-2.9,0c0-0.6,0-1.2,0-1.7c1.6,0,3.2,0,4.9,0
		c0.1,1.4-0.1,2.9-1,4.1c-1.3,1.6-3.6,2.1-5.5,1.5C1.4,9.2,0,7.2,0,5.1z"/>
	<path d="M13.1,2.9c0.5,0,1,0,1.4,0c0,0.5,0,1,0,1.5c0.5,0,1,0,1.5,0c0,0.5,0,1,0,1.4c-0.5,0-1,0-1.5,0
		c0,0.5,0,1,0,1.5c-0.5,0-1,0-1.4,0c0-0.5,0-1,0-1.5c-0.5,0-1,0-1.5,0c0-0.5,0-1,0-1.4c0.5,0,1,0,1.5,0C13.1,3.9,13.1,3.4,13.1,2.9z
		"/>
</g>
</svg>
