<!-- Generator: Adobe Illustrator 19.1.0, SVG Export Plug-In  -->
<svg version="1.1"
	 xmlns="http://www.w3.org/2000/svg" xmlns:xlink="http://www.w3.org/1999/xlink" xmlns:a="http://ns.adobe.com/AdobeSVGViewerExtensions/3.0/"
	 x="0px" y="0px" width="21px" height="22px" viewBox="0 0 21 22" enable-background="new 0 0 21 22" xml:space="preserve">
<defs>
</defs>
<g>
	<path d="M15.8,9.8c-0.3-2.3-2.2-4.3-4.6-4.6C9.5,5,7.8,5.7,6.6,7c-1,1.1-1.5,2.7-1.3,4.2c0.2,1.4,0.9,2.7,2,3.5v1.7
		c0,0.8,0.6,1.5,1.3,1.6l-0.2,0v0.4l4.2-0.4v0c0.7-0.2,1.1-0.8,1.1-1.6v-1.7C15.3,13.5,16.1,11.7,15.8,9.8z M10.2,17.3
		c0-1.3-0.1-4.4-1.1-5.8H12c-1,1.4-1.1,4.5-1.1,5.8H10.2z M13.2,14.2L13,14.3v2.1c0,0.5-0.4,0.9-0.9,0.9h-0.8c0-1.3,0.1-4.4,1.1-5.7
		c0.1-0.1,0.1-0.2,0-0.3c-0.1-0.1-0.2-0.2-0.3-0.2H9c-0.1,0-0.2,0.1-0.3,0.2c-0.1,0.1,0,0.2,0,0.3c1,1.3,1.1,4.4,1.1,5.7H9.1
		c-0.5,0-0.9-0.4-0.9-0.9v-2.1L8,14.2c-1-0.7-1.7-1.9-1.9-3.1C5.9,9.7,6.3,8.5,7.2,7.5c0.9-1,2.1-1.5,3.4-1.5c0.2,0,0.4,0,0.6,0
		c2,0.3,3.6,1.9,3.9,3.9C15.3,11.5,14.6,13.2,13.2,14.2z"/>
	<polygon points="8.5,19.1 12.6,18.7 12.6,18.3 8.5,18.7 	"/>
	<polygon points="8.5,19.8 12.6,19.4 12.6,19.1 8.5,19.5 	"/>
	<polygon points="8.5,20.6 12.6,20.2 12.6,19.8 8.5,20.2 	"/>
	<path d="M8.5,21.3l0.6-0.1c0.1,0.4,0.5,0.7,1,0.7h1c0.6,0,1-0.5,1.1-1l0.5,0v-0.4L8.5,21V21.3z"/>
	<path d="M4.3,10.5c0-0.3-0.3-0.6-0.6-0.6H0.6C0.3,9.9,0,10.2,0,10.5s0.3,0.6,0.6,0.6h3.1C4,11.1,4.3,10.8,4.3,10.5z
		"/>
	<path d="M10.6,4.3c0.3,0,0.6-0.3,0.6-0.6V0.6c0-0.3-0.3-0.6-0.6-0.6C10.3,0,10,0.3,10,0.6v3.1
		C10,4,10.3,4.3,10.6,4.3z"/>
	<path d="M20.5,9.9h-3.1c-0.3,0-0.6,0.3-0.6,0.6s0.3,0.6,0.6,0.6h3.1c0.3,0,0.6-0.3,0.6-0.6S20.8,9.9,20.5,9.9z"/>
	<path d="M5.3,6.1c0.2,0.2,0.6,0.2,0.8,0c0.2-0.2,0.2-0.6,0-0.8L3.9,3.1c-0.2-0.2-0.6-0.2-0.8,0
		c-0.2,0.2-0.2,0.6,0,0.8L5.3,6.1z"/>
	<path d="M15.8,14.9c-0.2-0.2-0.6-0.2-0.8,0c-0.2,0.2-0.2,0.6,0,0.8l2.2,2.2c0.2,0.2,0.6,0.2,0.8,0
		c0.2-0.2,0.2-0.6,0-0.8L15.8,14.9z"/>
	<path d="M5.3,14.9l-2.2,2.2c-0.2,0.2-0.2,0.6,0,0.8c0.2,0.2,0.6,0.2,0.8,0l2.2-2.2c0.2-0.2,0.2-0.6,0-0.8
		C5.9,14.7,5.5,14.7,5.3,14.9z"/>
	<path d="M15.8,6.1L18,3.9c0.2-0.2,0.2-0.6,0-0.8c-0.2-0.2-0.6-0.2-0.8,0l-2.2,2.2c-0.2,0.2-0.2,0.6,0,0.8
		C15.2,6.3,15.6,6.3,15.8,6.1z"/>
</g>
</svg>
