<!-- Generator: Adobe Illustrator 19.1.0, SVG Export Plug-In  -->
<svg version="1.1"
	 xmlns="http://www.w3.org/2000/svg" xmlns:xlink="http://www.w3.org/1999/xlink" xmlns:a="http://ns.adobe.com/AdobeSVGViewerExtensions/3.0/"
	 x="0px" y="0px" width="22px" height="22.2px" viewBox="0 0 22 22.2" enable-background="new 0 0 22 22.2" xml:space="preserve">
<defs>
</defs>
<g>
	<g>
		<path fill-rule="evenodd" clip-rule="evenodd" d="M11.2,0C5.2,0,0.4,4.8,0.4,10.8c0,2,0.6,3.9,1.5,5.6L0,22.2
			l6-1.9c1.5,0.9,3.3,1.3,5.2,1.3c6,0,10.8-4.8,10.8-10.8C22,4.8,17.2,0,11.2,0z M11.2,19.8c-1.8,0-3.5-0.5-4.9-1.5l-3.5,1.1
			l1.1-3.3c-1.1-1.5-1.7-3.3-1.7-5.3c0-5,4-9,9-9c5,0,9,4,9,9C20.2,15.8,16.2,19.8,11.2,19.8z M16.3,13.3c-0.3-0.1-1.6-0.9-1.9-1
			c-0.2-0.1-0.4-0.2-0.6,0.1c-0.2,0.3-0.7,0.9-0.9,1c-0.2,0.2-0.3,0.2-0.6,0C12,13.3,11.1,13,10.1,12c-0.8-0.8-1.3-1.7-1.5-2
			c-0.2-0.3,0-0.4,0.1-0.6c0.1-0.1,0.3-0.3,0.4-0.5c0.1-0.2,0.2-0.3,0.3-0.4c0.1-0.2,0.1-0.3,0-0.5C9.4,8,8.9,6.6,8.7,6
			S8.3,5.6,8.1,5.6c-0.2,0-0.3,0-0.5,0c-0.2,0-0.5,0.1-0.7,0.3c-0.3,0.3-1,0.9-1.1,2.3c-0.1,1.4,0.9,2.7,1,2.9
			c0.1,0.2,1.8,3.1,4.6,4.3c2.8,1.2,2.8,0.8,3.3,0.8c0.5,0,1.7-0.6,1.9-1.2c0.3-0.6,0.3-1.2,0.2-1.3C16.7,13.5,16.5,13.4,16.3,13.3z
			"/>
	</g>
</g>
</svg>
