<!-- Generator: Adobe Illustrator 19.1.0, SVG Export Plug-In  -->
<svg version="1.1"
	 xmlns="http://www.w3.org/2000/svg" xmlns:xlink="http://www.w3.org/1999/xlink" xmlns:a="http://ns.adobe.com/AdobeSVGViewerExtensions/3.0/"
	 x="0px" y="0px" width="24px" height="24px" viewBox="0 0 24 24" enable-background="new 0 0 24 24" xml:space="preserve">
<defs>
</defs>
<g>
	<path fill-rule="evenodd" clip-rule="evenodd" d="M12,7c0.1-0.5-0.1-0.6-0.3-0.7c-0.1-0.1-0.3-0.2-0.4-0.3
		C11.2,6,11,5.9,10.6,6c-0.3,0.1-1.2,0.3-1.8,1.4c-0.6,1.1-0.5,2.6-0.4,2.8c0,0.2,0.1,3.3,1.8,5.5c1.7,2.2,1.9,1.9,2.3,2.1
		c0.4,0.2,1.6,0.2,2.1-0.2c0.5-0.4,0.7-0.8,0.7-1c0-0.1-0.1-0.3-0.3-0.5c-0.2-0.2-0.9-1.4-1.1-1.6c-0.2-0.2-0.3-0.3-0.6-0.2
		c-0.3,0.1-1,0.4-1.2,0.4c-0.2,0.1-0.3,0-0.5-0.2c-0.2-0.2-0.7-0.9-1.1-2.1c-0.3-1-0.3-1.9-0.3-2.2c0-0.3,0.2-0.3,0.4-0.4
		c0.2,0,0.4-0.1,0.6-0.2c0.2-0.1,0.3-0.1,0.4-0.2c0.2-0.1,0.2-0.2,0.2-0.4C11.8,8.9,12,7.5,12,7z"/>
</g>
</svg>
